<?xml version="1.0" encoding="UTF-8"?>
<svg width="200px" height="62px" viewBox="0 0 200 62" version="1.1" xmlns="http://www.w3.org/2000/svg" xmlns:xlink="http://www.w3.org/1999/xlink">
    <title>afo-poweredby-2</title>
    <g id="afo-poweredby-2" stroke="none" stroke-width="1" fill="none" fill-rule="evenodd">
        <path d="M8.608418,9.632278 L8.608418,15.176726 L11.987066,15.176726 C12.2758393,15.176726 12.4815903,15.035949 12.604319,14.754395 C12.7270477,14.472841 12.8245087,14.1299227 12.896702,13.72564 C12.940018,13.5379373 13.069966,13.444086 13.286546,13.444086 C13.329862,13.444086 13.3876167,13.4513053 13.45981,13.465744 C13.5320033,13.4801827 13.589758,13.4946213 13.633074,13.50906 C13.6041967,13.8267107 13.578929,14.1876773 13.557271,14.59196 C13.535613,14.9962427 13.524784,15.34999 13.524784,15.653202 C13.524784,15.8986593 13.5320033,16.1982617 13.546442,16.552009 C13.5608807,16.9057563 13.589758,17.3064293 13.633074,17.754028 C13.5175647,17.7829053 13.4092747,17.797344 13.308204,17.797344 C13.0771853,17.797344 12.940018,17.7034927 12.896702,17.51579 C12.8245087,17.1115073 12.7270477,16.768589 12.604319,16.487035 C12.4815903,16.205481 12.2758393,16.064704 11.987066,16.064704 L8.608418,16.064704 L8.608418,21.175992 C8.608418,21.479204 8.80334,21.6813453 9.193184,21.782416 C9.583028,21.8834867 10.2255487,21.934022 11.120746,21.934022 L12.311936,21.934022 C12.7306573,21.934022 13.0952337,21.8726577 13.405665,21.749929 C13.7160963,21.6272003 13.990431,21.4611557 14.228669,21.251795 C14.466907,21.0424343 14.6798773,20.7933673 14.86758,20.504594 C15.0552827,20.2158207 15.235766,19.89817 15.40903,19.551642 C15.452346,19.4505713 15.560636,19.400036 15.7339,19.400036 C15.8060933,19.400036 15.8818963,19.421694 15.961309,19.46501 C16.0407217,19.508326 16.1165247,19.551642 16.188718,19.594958 C16.05877,19.8692927 15.9468703,20.1977723 15.853019,20.580397 C15.7591677,20.9630217 15.668926,21.327598 15.582294,21.674126 C15.495662,22.020654 15.4054203,22.3166467 15.311569,22.562104 C15.2177177,22.8075613 15.0985987,22.93029 14.954212,22.93029 C14.8387027,22.93029 14.672658,22.9230707 14.456078,22.908632 C14.239498,22.8941933 14.0048697,22.8833643 13.752193,22.876145 C13.4995163,22.8689257 13.24323,22.8580967 12.983334,22.843658 C12.723438,22.8292193 12.4996387,22.822 12.311936,22.822 L7.568834,22.822 C7.15011267,22.822 6.702514,22.832829 6.226038,22.854487 C5.749562,22.876145 5.294744,22.9014127 4.861584,22.93029 C4.83270667,22.7859033 4.818268,22.670394 4.818268,22.583762 C4.818268,22.3816207 4.89046133,22.2661113 5.034848,22.237234 C5.58351733,22.1361633 5.976971,22.0278733 6.215209,21.912364 C6.453447,21.7968547 6.572566,21.5947133 6.572566,21.30594 L6.572566,10.282018 C6.572566,9.99324467 6.46788567,9.794713 6.258525,9.686423 C6.04916433,9.578133 5.641272,9.46623333 5.034848,9.350724 C4.89046133,9.32184667 4.818268,9.199118 4.818268,8.982538 C4.818268,8.91034467 4.82187767,8.84898033 4.829097,8.798445 C4.83631633,8.74790967 4.84714533,8.69376467 4.861584,8.63601 C5.48244667,8.679326 6.00223867,8.70820333 6.42096,8.722642 C6.83968133,8.73708067 7.21508667,8.7443 7.547176,8.7443 L11.813802,8.7443 C12.463542,8.7443 13.02665,8.722642 13.503126,8.679326 C13.979602,8.63601 14.2972527,8.614352 14.456078,8.614352 C14.6437807,8.614352 14.770119,8.733471 14.835093,8.971709 C14.900067,9.209947 14.954212,9.49511067 14.997528,9.8272 C15.040844,10.1592893 15.0913793,10.5130367 15.149134,10.888442 C15.2068887,11.2638473 15.3151787,11.581498 15.474004,11.841394 C15.3584947,11.928026 15.2285467,11.971342 15.08416,11.971342 C14.8964573,11.971342 14.7737287,11.906368 14.715974,11.77642 C14.54271,11.4010147 14.3766653,11.0797543 14.21784,10.812639 C14.0590147,10.5455237 13.8749217,10.325334 13.665561,10.15207 C13.4562003,9.978806 13.2035237,9.848858 12.907531,9.762226 C12.6115383,9.675594 12.246962,9.632278 11.813802,9.632278 L8.608418,9.632278 Z" id="Path" fill="#FFFFFF" fill-rule="nonzero"></path>
        <path d="M9.05814,40.0084664 L7.10892,50.2705364 C7.04522,50.5508164 7.11529,50.7514714 7.31913,50.8725014 C7.52297,50.9935314 7.87332,51.0858964 8.37018,51.1495964 C8.43388,51.1623364 8.49758,51.1910014 8.56128,51.2355914 C8.62498,51.2801814 8.65683,51.3661764 8.65683,51.4935764 C8.65683,51.5317964 8.653645,51.5795714 8.647275,51.6369014 C8.640905,51.6942314 8.63135,51.7547464 8.61861,51.8184464 C8.23641,51.7802264 7.82873,51.7515614 7.39557,51.7324514 C6.96241,51.7133414 6.54199,51.7037864 6.13431,51.7037864 C5.86677,51.7037864 5.519605,51.7133414 5.092815,51.7324514 C4.666025,51.7515614 4.28064,51.7802264 3.93666,51.8184464 C3.92392,51.7547464 3.914365,51.6974164 3.907995,51.6464564 C3.901625,51.5954964 3.89844,51.5509064 3.89844,51.5126864 C3.89844,51.3470664 3.98762,51.2451464 4.16598,51.2069264 C4.53544,51.1432264 4.825275,51.0540464 5.035485,50.9393864 C5.245695,50.8247264 5.37628,50.6463664 5.42724,50.4043064 L7.31913,40.5817664 C7.37009,40.3269664 7.303205,40.1422364 7.118475,40.0275764 C6.933745,39.9129164 6.69487,39.8364764 6.40185,39.7982564 C6.18527,39.7727764 6.07698,39.6708564 6.07698,39.4924964 C6.07698,39.4160564 6.09609,39.3077664 6.13431,39.1676264 C6.51651,39.2058464 6.901895,39.2345114 7.290465,39.2536214 C7.679035,39.2727314 8.03894,39.2822864 8.37018,39.2822864 L10.05186,39.2822864 C10.67612,39.2822864 11.22394,39.3587264 11.69532,39.5116064 C12.1667,39.6644864 12.564825,39.8746964 12.889695,40.1422364 C13.214565,40.4097764 13.45981,40.7250914 13.62543,41.0881814 C13.79105,41.4512714 13.87386,41.8430264 13.87386,42.2634464 C13.87386,42.8367464 13.76557,43.3718264 13.54899,43.8686864 C13.33241,44.3655464 13.017095,44.7955214 12.603045,45.1586114 C12.188995,45.5217014 11.685765,45.8083514 11.093355,46.0185614 C10.500945,46.2287714 9.83528,46.3338764 9.09636,46.3338764 L8.27463,46.3338764 C8.31285,46.0790764 8.379735,45.8911614 8.475285,45.7701314 C8.570835,45.6491014 8.71416,45.5885864 8.90526,45.5885864 C9.89898,45.5631064 10.666565,45.2955664 11.208015,44.7859664 C11.749465,44.2763664 12.02019,43.4610064 12.02019,42.3398864 C12.02019,42.0341264 11.978785,41.7411064 11.895975,41.4608264 C11.813165,41.1805464 11.679395,40.9321164 11.494665,40.7155364 C11.309935,40.4989564 11.07106,40.3269664 10.77804,40.1995664 C10.48502,40.0721664 10.1283,40.0084664 9.70788,40.0084664 L9.05814,40.0084664 Z" id="Path" fill="#FFFFFF" fill-rule="nonzero"></path>
        <path d="M17.60031,43.2571664 C18.07169,43.2571664 18.482555,43.3367914 18.832905,43.4960414 C19.183255,43.6552914 19.46672,43.8782414 19.6833,44.1648914 C19.89988,44.4515414 20.062315,44.7923364 20.170605,45.1872764 C20.278895,45.5822164 20.33304,46.0090064 20.33304,46.4676464 C20.33304,47.3849264 20.18653,48.1875464 19.89351,48.8755064 C19.60049,49.5634664 19.227845,50.1335814 18.775575,50.5858514 C18.323305,51.0381214 17.81689,51.3757314 17.25633,51.5986814 C16.69577,51.8216314 16.14795,51.9331064 15.61287,51.9331064 C15.16697,51.9331064 14.787955,51.8630364 14.475825,51.7228964 C14.163695,51.5827564 13.91208,51.3789164 13.72098,51.1113764 C13.52988,50.8438364 13.392925,50.5157814 13.310115,50.1272114 C13.227305,49.7386414 13.1859,49.3022964 13.1859,48.8181764 C13.1859,47.9773364 13.329225,47.2129364 13.615875,46.5249764 C13.902525,45.8370164 14.265615,45.2509764 14.705145,44.7668564 C15.144675,44.2827364 15.622425,43.9100914 16.138395,43.6489214 C16.654365,43.3877514 17.14167,43.2571664 17.60031,43.2571664 Z M16.09062,51.1878164 C16.47282,51.1878164 16.826355,51.0731564 17.151225,50.8438364 C17.476095,50.6145164 17.756375,50.2960164 17.992065,49.8883364 C18.227755,49.4806564 18.4093,48.9997214 18.5367,48.4455314 C18.6641,47.8913414 18.7278,47.2830064 18.7278,46.6205264 C18.7278,45.8179064 18.63225,45.1809064 18.44115,44.7095264 C18.25005,44.2381464 17.91244,44.0024564 17.42832,44.0024564 C17.0079,44.0024564 16.63207,44.1425964 16.30083,44.4228764 C15.96959,44.7031564 15.692495,45.0662464 15.469545,45.5121464 C15.246595,45.9580464 15.07779,46.4549064 14.96313,47.0027264 C14.84847,47.5505464 14.79114,48.0919964 14.79114,48.6270764 C14.79114,49.4679164 14.889875,50.1049164 15.087345,50.5380764 C15.284815,50.9712364 15.61924,51.1878164 16.09062,51.1878164 Z" id="Shape" fill="#FFFFFF" fill-rule="nonzero"></path>
        <path d="M27.40374,49.9265564 C27.42922,49.7481964 27.457885,49.5220614 27.489735,49.2481514 C27.521585,48.9742414 27.55025,48.7417364 27.57573,48.5506364 C26.90051,49.5698364 26.20618,50.3883814 25.49274,51.0062714 C24.7793,51.6241614 24.11682,51.9331064 23.5053,51.9331064 C22.7409,51.9331064 22.3587,51.5381664 22.3587,50.7482864 C22.3587,50.5954064 22.36507,50.4266014 22.37781,50.2418714 C22.39055,50.0571414 22.40966,49.8564864 22.43514,49.6399064 L22.97022,45.2254964 C22.98296,45.1745364 22.992515,45.1108364 22.998885,45.0343964 C23.005255,44.9579564 23.00844,44.9069964 23.00844,44.8815164 C23.00844,44.6649364 22.932,44.5566464 22.77912,44.5566464 C22.70268,44.5566464 22.610315,44.5789414 22.502025,44.6235314 C22.393735,44.6681214 22.28863,44.7127114 22.18671,44.7573014 C22.08479,44.8018914 21.98924,44.8464814 21.90006,44.8910714 C21.81088,44.9356614 21.74081,44.9579564 21.68985,44.9579564 C21.56245,44.9579564 21.47327,44.8369264 21.42231,44.5948664 C21.67711,44.4037664 21.941465,44.2285914 22.215375,44.0693414 C22.489285,43.9100914 22.750455,43.7699514 22.998885,43.6489214 C23.247315,43.5278914 23.47345,43.4323414 23.67729,43.3622714 C23.88113,43.2922014 24.04038,43.2571664 24.15504,43.2571664 C24.28244,43.2571664 24.40347,43.2858314 24.51813,43.3431614 C24.63279,43.4004914 24.69012,43.5374464 24.69012,43.7540264 C24.69012,43.7922464 24.686935,43.8559464 24.680565,43.9451264 C24.674195,44.0343064 24.66464,44.1107464 24.6519,44.1744464 C24.56272,45.0535064 24.463985,45.9166414 24.355695,46.7638514 C24.247405,47.6110614 24.1423,48.4678264 24.04038,49.3341464 C24.00216,49.6653864 23.98305,49.9265564 23.98305,50.1176564 C23.98305,50.3469764 24.018085,50.5030414 24.088155,50.5858514 C24.158225,50.6686614 24.28244,50.7100664 24.4608,50.7100664 C24.67738,50.7100664 24.92581,50.6049614 25.20609,50.3947514 C25.48637,50.1845414 25.76665,49.9106314 26.04693,49.5730214 C26.32721,49.2354114 26.591565,48.8563964 26.839995,48.4359764 C27.088425,48.0155564 27.30182,47.5951364 27.48018,47.1747164 C27.7095,46.5886764 27.852825,46.0472264 27.910155,45.5503664 C27.967485,45.0535064 27.99615,44.7031564 27.99615,44.4993164 C27.99615,44.2954764 27.980225,44.1203014 27.948375,43.9737914 C27.916525,43.8272814 27.88149,43.7221764 27.84327,43.6584764 L27.95793,43.5247064 C28.18725,43.4992264 28.42931,43.4610064 28.68411,43.4100464 C28.93891,43.3590864 29.20645,43.2953864 29.48673,43.2189464 C29.57591,43.3463464 29.6205,43.5310764 29.6205,43.7731364 C29.6205,43.8113564 29.617315,43.8909814 29.610945,44.0120114 C29.604575,44.1330414 29.59502,44.2317764 29.58228,44.3082164 L28.98987,49.2768164 C28.96439,49.4551764 28.94528,49.6207964 28.93254,49.7736764 C28.9198,49.9265564 28.91343,50.0539564 28.91343,50.1558764 C28.91343,50.3597164 28.948465,50.4998564 29.018535,50.5762964 C29.088605,50.6527364 29.21282,50.6909564 29.39118,50.6909564 C29.73516,50.6909564 30.107805,50.5062264 30.509115,50.1367664 C30.910425,49.7673064 31.28944,49.3086664 31.64616,48.7608464 C32.00288,48.2130264 32.299085,47.6238014 32.534775,46.9931714 C32.770465,46.3625414 32.88831,45.7860564 32.88831,45.2637164 C32.88831,44.9706964 32.85009,44.6936014 32.77365,44.4324314 C32.69721,44.1712614 32.56981,43.9514964 32.39145,43.7731364 L32.58255,43.5055964 C32.92653,43.4801164 33.23866,43.4482664 33.51894,43.4100464 C33.79922,43.3718264 34.10498,43.3144964 34.43622,43.2380564 C34.48718,43.3781964 34.522215,43.5310764 34.541325,43.6966964 C34.560435,43.8623164 34.56999,44.0151964 34.56999,44.1553364 C34.56999,44.4993164 34.48081,44.9292914 34.30245,45.4452614 C34.12409,45.9612314 33.88203,46.5058664 33.57627,47.0791664 C33.27051,47.6524664 32.916975,48.2289514 32.515665,48.8086214 C32.114355,49.3882914 31.687565,49.9106314 31.235295,50.3756414 C30.783025,50.8406514 30.324385,51.2164814 29.859375,51.5031314 C29.394365,51.7897814 28.95165,51.9331064 28.53123,51.9331064 C27.80505,51.9331064 27.41648,51.5827564 27.36552,50.8820564 C27.35278,50.7419164 27.349595,50.5922214 27.355965,50.4329714 C27.362335,50.2737214 27.37826,50.1049164 27.40374,49.9265564 Z" id="Path" fill="#FFFFFF" fill-rule="nonzero"></path>
        <path d="M36.593739,47.2511564 C37.804039,47.1492364 38.663989,46.9008064 39.173589,46.5058664 C39.683189,46.1109264 39.937989,45.6140664 39.937989,45.0152864 C39.937989,44.6585664 39.851994,44.3878414 39.680004,44.2031114 C39.508014,44.0183814 39.275509,43.9260164 38.982489,43.9260164 C38.676729,43.9260164 38.393264,44.0183814 38.132094,44.2031114 C37.870924,44.3878414 37.635234,44.6330864 37.425024,44.9388464 C37.214814,45.2446064 37.039639,45.5981414 36.899499,45.9994514 C36.759359,46.4007614 36.657439,46.8179964 36.593739,47.2511564 Z M36.536409,47.8244564 C36.523669,47.9518564 36.514114,48.0792564 36.507744,48.2066564 C36.501374,48.3340564 36.498189,48.4678264 36.498189,48.6079664 C36.498189,48.9009864 36.523669,49.1876364 36.574629,49.4679164 C36.625589,49.7481964 36.714769,49.9966264 36.842169,50.2132064 C36.969569,50.4297864 37.144744,50.6049614 37.367694,50.7387314 C37.590644,50.8725014 37.874109,50.9393864 38.218089,50.9393864 C38.549329,50.9393864 38.893309,50.8788714 39.250029,50.7578414 C39.606749,50.6368114 39.969839,50.4488964 40.339299,50.1940964 C40.466699,50.1049164 40.555879,50.0603264 40.606839,50.0603264 C40.708759,50.0603264 40.775644,50.1112864 40.807494,50.2132064 C40.839344,50.3151264 40.855269,50.3915664 40.855269,50.4425264 C40.664169,50.6208864 40.447589,50.7992464 40.205529,50.9776064 C39.963469,51.1559664 39.702299,51.3152164 39.422019,51.4553564 C39.141739,51.5954964 38.842349,51.7101564 38.523849,51.7993364 C38.205349,51.8885164 37.874109,51.9331064 37.530129,51.9331064 C36.995049,51.9331064 36.558704,51.8343714 36.221094,51.6369014 C35.883484,51.4394314 35.615944,51.1846314 35.418474,50.8725014 C35.221004,50.5603714 35.087234,50.2195764 35.017164,49.8501164 C34.947094,49.4806564 34.912059,49.1239364 34.912059,48.7799564 C34.912059,48.1047364 35.017164,47.4358864 35.227374,46.7734064 C35.437584,46.1109264 35.733789,45.5185164 36.115989,44.9961764 C36.498189,44.4738364 36.963199,44.0534164 37.511019,43.7349164 C38.058839,43.4164164 38.670359,43.2571664 39.345579,43.2571664 C39.613119,43.2571664 39.874289,43.2922014 40.129089,43.3622714 C40.383889,43.4323414 40.610024,43.5374464 40.807494,43.6775864 C41.004964,43.8177264 41.164214,44.0024564 41.285244,44.2317764 C41.406274,44.4610964 41.466789,44.7350064 41.466789,45.0535064 C41.466789,45.5248864 41.342574,45.9293814 41.094144,46.2669914 C40.845714,46.6046014 40.501734,46.8848814 40.062204,47.1078314 C39.622674,47.3307814 39.103519,47.4995864 38.504739,47.6142464 C37.905959,47.7289064 37.249849,47.7989764 36.536409,47.8244564 Z" id="Shape" fill="#FFFFFF" fill-rule="nonzero"></path>
        <path d="M47.620209,45.0726164 C47.416369,45.0726164 47.183864,45.1617964 46.922694,45.3401564 C46.661524,45.5185164 46.400354,45.7605764 46.139184,46.0663364 C45.878014,46.3720964 45.623214,46.7256314 45.374784,47.1269414 C45.126354,47.5282514 44.906589,47.9550414 44.715489,48.4073114 C44.524389,48.8595814 44.371509,49.3214064 44.256849,49.7927864 C44.142189,50.2641664 44.084859,50.7164364 44.084859,51.1495964 C44.084859,51.3279564 44.103969,51.4999464 44.142189,51.6655664 C43.887389,51.6910464 43.629404,51.7292664 43.368234,51.7802264 C43.107064,51.8311864 42.849079,51.8885164 42.594279,51.9522164 C42.479619,51.8885164 42.422289,51.8120764 42.422289,51.7228964 C42.422289,51.6464564 42.435029,51.5572764 42.460509,51.4553564 C42.485989,51.3534364 42.511469,51.2706264 42.536949,51.2069264 C42.562429,51.1432264 42.587909,51.0667864 42.613389,50.9776064 C42.638869,50.8884264 42.664349,50.7610264 42.689829,50.5954064 L43.530669,46.2574364 C43.619849,45.7605764 43.677179,45.4229664 43.702659,45.2446064 C43.728139,45.0662464 43.747249,44.9388464 43.759989,44.8624064 C43.759989,44.6967864 43.702659,44.6139764 43.587999,44.6139764 C43.537039,44.6139764 43.463784,44.6330864 43.368234,44.6713064 C43.272684,44.7095264 43.170764,44.7541164 43.062474,44.8050764 C42.954184,44.8560364 42.852264,44.9006264 42.756714,44.9388464 C42.661164,44.9770664 42.587909,44.9961764 42.536949,44.9961764 C42.473249,44.9961764 42.419104,44.9579564 42.374514,44.8815164 C42.329924,44.8050764 42.294889,44.7158964 42.269409,44.6139764 C42.498729,44.4738364 42.769454,44.3241414 43.081584,44.1648914 C43.393714,44.0056414 43.693104,43.8591314 43.979754,43.7253614 C44.266404,43.5915914 44.521204,43.4801164 44.744154,43.3909364 C44.967104,43.3017564 45.110429,43.2571664 45.174129,43.2571664 C45.263309,43.2571664 45.339749,43.2794614 45.403449,43.3240514 C45.467149,43.3686414 45.498999,43.4418964 45.498999,43.5438164 C45.498999,43.5692964 45.495814,43.6138864 45.489444,43.6775864 C45.483074,43.7412864 45.473519,43.8049864 45.460779,43.8686864 L44.849259,46.7351864 L44.925699,46.7351864 C45.613659,45.5121464 46.241104,44.6267164 46.808034,44.0788964 C47.374964,43.5310764 47.932339,43.2571664 48.480159,43.2571664 C48.594819,43.2571664 48.699924,43.2762764 48.795474,43.3144964 C48.891024,43.3527164 48.957909,43.3909364 48.996129,43.4291564 C48.881469,43.7221764 48.779549,44.0279364 48.690369,44.3464364 C48.601189,44.6649364 48.531119,45.0216564 48.480159,45.4165964 L48.174399,45.4165964 C48.046999,45.1872764 47.862269,45.0726164 47.620209,45.0726164 Z" id="Path" fill="#FFFFFF" fill-rule="nonzero"></path>
        <path d="M50.620479,47.2511564 C51.830779,47.1492364 52.690729,46.9008064 53.200329,46.5058664 C53.709929,46.1109264 53.964729,45.6140664 53.964729,45.0152864 C53.964729,44.6585664 53.878734,44.3878414 53.706744,44.2031114 C53.534754,44.0183814 53.302249,43.9260164 53.009229,43.9260164 C52.703469,43.9260164 52.420004,44.0183814 52.158834,44.2031114 C51.897664,44.3878414 51.661974,44.6330864 51.451764,44.9388464 C51.241554,45.2446064 51.066379,45.5981414 50.926239,45.9994514 C50.786099,46.4007614 50.684179,46.8179964 50.620479,47.2511564 Z M50.563149,47.8244564 C50.550409,47.9518564 50.540854,48.0792564 50.534484,48.2066564 C50.528114,48.3340564 50.524929,48.4678264 50.524929,48.6079664 C50.524929,48.9009864 50.550409,49.1876364 50.601369,49.4679164 C50.652329,49.7481964 50.741509,49.9966264 50.868909,50.2132064 C50.996309,50.4297864 51.171484,50.6049614 51.394434,50.7387314 C51.617384,50.8725014 51.900849,50.9393864 52.244829,50.9393864 C52.576069,50.9393864 52.920049,50.8788714 53.276769,50.7578414 C53.633489,50.6368114 53.996579,50.4488964 54.366039,50.1940964 C54.493439,50.1049164 54.582619,50.0603264 54.633579,50.0603264 C54.735499,50.0603264 54.802384,50.1112864 54.834234,50.2132064 C54.866084,50.3151264 54.882009,50.3915664 54.882009,50.4425264 C54.690909,50.6208864 54.474329,50.7992464 54.232269,50.9776064 C53.990209,51.1559664 53.729039,51.3152164 53.448759,51.4553564 C53.168479,51.5954964 52.869089,51.7101564 52.550589,51.7993364 C52.232089,51.8885164 51.900849,51.9331064 51.556869,51.9331064 C51.021789,51.9331064 50.585444,51.8343714 50.247834,51.6369014 C49.910224,51.4394314 49.642684,51.1846314 49.445214,50.8725014 C49.247744,50.5603714 49.113974,50.2195764 49.043904,49.8501164 C48.973834,49.4806564 48.938799,49.1239364 48.938799,48.7799564 C48.938799,48.1047364 49.043904,47.4358864 49.254114,46.7734064 C49.464324,46.1109264 49.760529,45.5185164 50.142729,44.9961764 C50.524929,44.4738364 50.989939,44.0534164 51.537759,43.7349164 C52.085579,43.4164164 52.697099,43.2571664 53.372319,43.2571664 C53.639859,43.2571664 53.901029,43.2922014 54.155829,43.3622714 C54.410629,43.4323414 54.636764,43.5374464 54.834234,43.6775864 C55.031704,43.8177264 55.190954,44.0024564 55.311984,44.2317764 C55.433014,44.4610964 55.493529,44.7350064 55.493529,45.0535064 C55.493529,45.5248864 55.369314,45.9293814 55.120884,46.2669914 C54.872454,46.6046014 54.528474,46.8848814 54.088944,47.1078314 C53.649414,47.3307814 53.130259,47.4995864 52.531479,47.6142464 C51.932699,47.7289064 51.276589,47.7989764 50.563149,47.8244564 Z" id="Shape" fill="#FFFFFF" fill-rule="nonzero"></path>
        <path d="M62.659779,41.8048064 C62.685259,41.6519264 62.713924,41.4831214 62.745774,41.2983914 C62.777624,41.1136614 62.803104,40.9321164 62.822214,40.7537564 C62.841324,40.5753964 62.857249,40.4065914 62.869989,40.2473414 C62.882729,40.0880914 62.889099,39.9575064 62.889099,39.8555864 C62.889099,39.7918864 62.879544,39.7281864 62.860434,39.6644864 C62.841324,39.6007864 62.787179,39.5689364 62.697999,39.5689364 C62.659779,39.5689364 62.592894,39.5784914 62.497344,39.5976014 C62.401794,39.6167114 62.299874,39.6358214 62.191584,39.6549314 C62.083294,39.6740414 61.981374,39.6899664 61.885824,39.7027064 C61.790274,39.7154464 61.723389,39.7218164 61.685169,39.7218164 C61.519549,39.7218164 61.436739,39.5880464 61.436739,39.3205064 C62.010039,39.1676264 62.538749,39.0115614 63.022869,38.8523114 C63.506989,38.6930614 63.991109,38.5178864 64.475229,38.3267864 C64.577149,38.3904864 64.640849,38.4478164 64.666329,38.4987764 C64.691809,38.5497364 64.704549,38.6006964 64.704549,38.6516564 C64.704549,38.7535764 64.691809,38.8682364 64.666329,38.9956364 L62.487789,50.1940964 C62.475049,50.2577964 62.462309,50.3183114 62.449569,50.3756414 C62.436829,50.4329714 62.430459,50.4807464 62.430459,50.5189664 C62.430459,50.6718464 62.506899,50.7482864 62.659779,50.7482864 C62.748959,50.7482864 62.841324,50.7259914 62.936874,50.6814014 C63.032424,50.6368114 63.127974,50.5858514 63.223524,50.5285214 C63.319074,50.4711914 63.408254,50.4202314 63.491064,50.3756414 C63.573874,50.3310514 63.640759,50.3087564 63.691719,50.3087564 C63.819119,50.3087564 63.901929,50.4361564 63.940149,50.6909564 C63.723569,50.8565764 63.491064,51.0126414 63.242634,51.1591514 C62.994204,51.3056614 62.755329,51.4362464 62.526009,51.5509064 C62.296689,51.6655664 62.080109,51.7579314 61.876269,51.8280014 C61.672429,51.8980714 61.506809,51.9331064 61.379409,51.9331064 C61.239269,51.9331064 61.111869,51.9044414 60.997209,51.8471114 C60.882549,51.7897814 60.825219,51.6528264 60.825219,51.4362464 C60.825219,51.3343264 60.844329,51.1878164 60.882549,50.9967164 L61.455849,48.5315264 L61.379409,48.5315264 C60.780629,49.7290864 60.181849,50.5954064 59.583069,51.1304864 C58.984289,51.6655664 58.372769,51.9331064 57.748509,51.9331064 C57.557409,51.9331064 57.369494,51.9044414 57.184764,51.8471114 C57.000034,51.7897814 56.831229,51.6846764 56.678349,51.5317964 C56.525469,51.3789164 56.401254,51.1718914 56.305704,50.9107214 C56.210154,50.6495514 56.162379,50.3151264 56.162379,49.9074464 C56.162379,48.8245464 56.321629,47.8690464 56.640129,47.0409464 C56.958629,46.2128464 57.366309,45.5185164 57.863169,44.9579564 C58.360029,44.3973964 58.907849,43.9737914 59.506629,43.6871414 C60.105409,43.4004914 60.685079,43.2571664 61.245639,43.2571664 C61.653319,43.2571664 62.022779,43.2762764 62.354019,43.3144964 L62.659779,41.8048064 Z M62.143809,44.1935564 C61.990929,44.1425964 61.806199,44.1011914 61.589619,44.0693414 C61.373039,44.0374914 61.175569,44.0215664 60.997209,44.0215664 C60.500349,44.0215664 60.054449,44.1585214 59.659509,44.4324314 C59.264569,44.7063414 58.930144,45.0789864 58.656234,45.5503664 C58.382324,46.0217464 58.168929,46.5759364 58.016049,47.2129364 C57.863169,47.8499364 57.786729,48.5315264 57.786729,49.2577064 C57.786729,49.7927864 57.850429,50.1686164 57.977829,50.3851964 C58.105229,50.6017764 58.296329,50.7100664 58.551129,50.7100664 C58.793189,50.7100664 59.047989,50.5954064 59.315529,50.3660864 C59.583069,50.1367664 59.850609,49.8373764 60.118149,49.4679164 C60.385689,49.0984564 60.640489,48.6780364 60.882549,48.2066564 C61.124609,47.7352764 61.338004,47.2575264 61.522734,46.7734064 C61.707464,46.2892864 61.857159,45.8210914 61.971819,45.3688214 C62.086479,44.9165514 62.143809,44.5247964 62.143809,44.1935564 Z" id="Shape" fill="#FFFFFF" fill-rule="nonzero"></path>
        <path d="M71.813469,51.9331064 C71.329349,51.9331064 70.880264,51.8725914 70.466214,51.7515614 C70.052164,51.6305314 69.724109,51.5063164 69.482049,51.3789164 L71.335719,41.8048064 C71.399419,41.4353464 71.453564,41.0690714 71.498154,40.7059814 C71.542744,40.3428914 71.565039,40.0594264 71.565039,39.8555864 C71.565039,39.6899664 71.501339,39.6071564 71.373939,39.6071564 C71.233799,39.6071564 71.055439,39.6262664 70.838859,39.6644864 C70.622279,39.7027064 70.463029,39.7218164 70.361109,39.7218164 C70.195489,39.7218164 70.112679,39.5880464 70.112679,39.3205064 C70.685979,39.1676264 71.217874,39.0115614 71.708364,38.8523114 C72.198854,38.6930614 72.686159,38.5178864 73.170279,38.3267864 C73.272199,38.3904864 73.335899,38.4510014 73.361379,38.5083314 C73.386859,38.5656614 73.399599,38.6261764 73.399599,38.6898764 C73.399599,38.7917964 73.386859,38.8937164 73.361379,38.9956364 L71.870799,46.4676464 L71.947239,46.4676464 C72.329439,45.8179064 72.695714,45.2828264 73.046064,44.8624064 C73.396414,44.4419864 73.730839,44.1139314 74.049339,43.8782414 C74.367839,43.6425514 74.664044,43.4801164 74.937954,43.3909364 C75.211864,43.3017564 75.469849,43.2571664 75.711909,43.2571664 C75.915749,43.2571664 76.110034,43.2890164 76.294764,43.3527164 C76.479494,43.4164164 76.645114,43.5215214 76.791624,43.6680314 C76.938134,43.8145414 77.052794,44.0088264 77.135604,44.2508864 C77.218414,44.4929464 77.259819,44.7987064 77.259819,45.1681664 C77.259819,46.2510664 77.084644,47.2129364 76.734294,48.0537764 C76.383944,48.8946164 75.941229,49.6016864 75.406149,50.1749864 C74.871069,50.7482864 74.285029,51.1846314 73.648029,51.4840214 C73.011029,51.7834114 72.399509,51.9331064 71.813469,51.9331064 Z M71.087289,50.9011664 C71.227429,50.9776064 71.386679,51.0381214 71.565039,51.0827114 C71.743399,51.1273014 71.915389,51.1495964 72.081009,51.1495964 C72.603349,51.1495964 73.084284,51.0126414 73.523814,50.7387314 C73.963344,50.4648214 74.339174,50.0889914 74.651304,49.6112414 C74.963434,49.1334914 75.208679,48.5665614 75.387039,47.9104514 C75.565399,47.2543414 75.654579,46.5440864 75.654579,45.7796864 C75.654579,45.3210464 75.584509,44.9898064 75.444369,44.7859664 C75.304229,44.5821264 75.125869,44.4802064 74.909289,44.4802064 C74.629009,44.4802064 74.342359,44.5916814 74.049339,44.8146314 C73.756319,45.0375814 73.466484,45.3337864 73.179834,45.7032464 C72.893184,46.0727064 72.622459,46.4899414 72.367659,46.9549514 C72.112859,47.4199614 71.893094,47.8881564 71.708364,48.3595364 C71.523634,48.8309164 71.373939,49.2895564 71.259279,49.7354564 C71.144619,50.1813564 71.087289,50.5699264 71.087289,50.9011664 Z" id="Shape" fill="#FFFFFF" fill-rule="nonzero"></path>
        <path d="M80.737839,55.7742164 C81.336619,55.7742164 81.843034,55.5544514 82.257084,55.1149214 C82.671134,54.6753914 82.967339,54.0352064 83.145699,53.1943664 L84.139419,48.3977564 L84.062979,48.3977564 C83.375019,49.6717564 82.699799,50.5794814 82.037319,51.1209314 C81.374839,51.6623814 80.712359,51.9331064 80.049879,51.9331064 C79.629459,51.9331064 79.307774,51.8439264 79.084824,51.6655664 C78.861874,51.4872064 78.750399,51.1941864 78.750399,50.7865064 C78.750399,50.6336264 78.763139,50.4520814 78.788619,50.2418714 C78.814099,50.0316614 78.845949,49.8310064 78.884169,49.6399064 L79.820559,45.1872764 C79.833299,45.1490564 79.846039,45.0885414 79.858779,45.0057314 C79.871519,44.9229214 79.877889,44.8624064 79.877889,44.8241864 C79.877889,44.6713064 79.814189,44.5948664 79.686789,44.5948664 C79.623089,44.5948664 79.537094,44.6171614 79.428804,44.6617514 C79.320514,44.7063414 79.209039,44.7509314 79.094379,44.7955214 C78.979719,44.8401114 78.874614,44.8847014 78.779064,44.9292914 C78.683514,44.9738814 78.610259,44.9961764 78.559299,44.9961764 C78.495599,44.9961764 78.444639,44.9579564 78.406419,44.8815164 C78.368199,44.8050764 78.342719,44.7222664 78.329979,44.6330864 C78.546559,44.5056864 78.801359,44.3591764 79.094379,44.1935564 C79.387399,44.0279364 79.677234,43.8782414 79.963884,43.7444714 C80.250534,43.6107014 80.508519,43.4960414 80.737839,43.4004914 C80.967159,43.3049414 81.126409,43.2571664 81.215589,43.2571664 C81.457649,43.2571664 81.578679,43.3845664 81.578679,43.6393664 C81.578679,43.7540264 81.565939,43.8623164 81.540459,43.9642364 L80.432079,49.2577064 C80.355639,49.6016864 80.317419,49.8883364 80.317419,50.1176564 C80.317419,50.4743764 80.508519,50.6527364 80.890719,50.6527364 C81.183739,50.6527364 81.489499,50.5380764 81.807999,50.3087564 C82.126499,50.0794364 82.432259,49.7800464 82.725279,49.4105864 C83.018299,49.0411264 83.295394,48.6175214 83.556564,48.1397714 C83.817734,47.6620214 84.047054,47.1810864 84.244524,46.6969664 C84.441994,46.2128464 84.598059,45.7382814 84.712719,45.2732714 C84.827379,44.8082614 84.884709,44.3973964 84.884709,44.0406764 C84.884709,43.8623164 84.865599,43.6839564 84.827379,43.5055964 C85.336979,43.4673764 85.859319,43.3781964 86.394399,43.2380564 C86.470839,43.3144964 86.509059,43.3909364 86.509059,43.4673764 C86.509059,43.4928564 86.502689,43.5470014 86.489949,43.6298114 C86.477209,43.7126214 86.464469,43.7795064 86.451729,43.8304664 L84.731829,52.5064064 C84.591689,53.1943664 84.362369,53.7899614 84.043869,54.2931914 C83.725369,54.7964214 83.362279,55.2136564 82.954599,55.5448964 C82.546919,55.8761364 82.110574,56.1213814 81.645564,56.2806314 C81.180554,56.4398814 80.737839,56.5195064 80.317419,56.5195064 C79.412879,56.5195064 78.686699,56.3921064 78.138879,56.1373064 C78.240799,55.8442864 78.317239,55.5863014 78.368199,55.3633514 C78.419159,55.1404014 78.463749,54.8696764 78.501969,54.5511764 L78.826839,54.4365164 C79.005199,54.8059764 79.263184,55.1212914 79.600794,55.3824614 C79.938404,55.6436314 80.317419,55.7742164 80.737839,55.7742164 Z" id="Path" fill="#FFFFFF" fill-rule="nonzero"></path>
        <path d="M98.166159,46.4294264 L97.420869,41.9767964 L95.013009,46.4294264 L98.166159,46.4294264 Z M92.930019,50.2896464 C92.840839,50.4680064 92.796249,50.6145164 92.796249,50.7291764 C92.796249,50.8820564 92.882244,50.9935314 93.054234,51.0636014 C93.226224,51.1336714 93.490579,51.1941864 93.847299,51.2451464 C94.076619,51.2833664 94.191279,51.3789164 94.191279,51.5317964 C94.191279,51.5954964 94.178539,51.6910464 94.153059,51.8184464 C93.770859,51.7802264 93.417324,51.7515614 93.092454,51.7324514 C92.767584,51.7133414 92.426789,51.7037864 92.070069,51.7037864 C91.815269,51.7037864 91.550914,51.7101564 91.277004,51.7228964 C91.003094,51.7356364 90.700519,51.7674864 90.369279,51.8184464 C90.356539,51.7674864 90.343799,51.7165264 90.331059,51.6655664 C90.318319,51.6146064 90.311949,51.5700164 90.311949,51.5317964 C90.311949,51.3661764 90.420239,51.2642564 90.636819,51.2260364 C91.299299,51.1113764 91.726089,50.8693164 91.917189,50.4998564 L98.032389,39.2440664 C98.108829,39.1166664 98.204379,39.0529664 98.319039,39.0529664 C98.357259,39.0529664 98.395479,39.0593364 98.433699,39.0720764 C98.471919,39.0848164 98.503769,39.0975564 98.529249,39.1102964 L100.574019,50.4425264 C100.612239,50.6718464 100.726899,50.8438364 100.917999,50.9584964 C101.109099,51.0731564 101.357529,51.1559664 101.663289,51.2069264 C101.828909,51.2324064 101.937199,51.2706264 101.988159,51.3215864 C102.039119,51.3725464 102.064599,51.4362464 102.064599,51.5126864 C102.064599,51.5763864 102.051859,51.6719364 102.026379,51.7993364 C101.669659,51.7738564 101.328864,51.7515614 101.003994,51.7324514 C100.679124,51.7133414 100.344699,51.7037864 100.000719,51.7037864 C99.249059,51.7037864 98.503769,51.7420064 97.764849,51.8184464 C97.726629,51.7292664 97.707519,51.6337164 97.707519,51.5317964 C97.707519,51.3661764 97.828549,51.2642564 98.070609,51.2260364 C98.236229,51.2005564 98.414589,51.1432264 98.605689,51.0540464 C98.796789,50.9648664 98.892339,50.8247264 98.892339,50.6336264 C98.892339,50.6081464 98.892339,50.5699264 98.892339,50.5189664 C98.892339,50.4680064 98.885969,50.4106764 98.873229,50.3469764 L98.299929,47.1556064 L94.630809,47.1556064 L92.930019,50.2896464 Z" id="Shape" fill="#FFFFFF" fill-rule="nonzero"></path>
        <path d="M104.090259,43.1616164 C104.192179,42.6774964 104.243139,42.2889264 104.243139,41.9959064 C104.243139,41.8302864 104.224029,41.6582964 104.185809,41.4799364 C104.427869,41.4417164 104.682669,41.4034964 104.950209,41.3652764 C105.217749,41.3270564 105.485289,41.2697264 105.752829,41.1932864 C105.854749,41.2697264 105.905709,41.3461664 105.905709,41.4226064 C105.905709,41.4480864 105.902524,41.4990464 105.896154,41.5754864 C105.889784,41.6519264 105.880229,41.7156264 105.867489,41.7665864 L105.542619,43.4864864 L107.510949,43.4864864 C107.472729,43.6011464 107.434509,43.7412864 107.396289,43.9069064 C107.358069,44.0725264 107.326219,44.2254064 107.300739,44.3655464 C106.982239,44.3145864 106.657369,44.2763664 106.326129,44.2508864 C105.994889,44.2254064 105.682759,44.2062964 105.389739,44.1935564 L104.338689,50.1558764 C104.300469,50.3469764 104.281359,50.4807464 104.281359,50.5571864 C104.281359,50.8629464 104.466089,51.0158264 104.835549,51.0158264 C105.026649,51.0158264 105.201824,50.9935314 105.361074,50.9489414 C105.520324,50.9043514 105.663649,50.8502064 105.791049,50.7865064 C105.905709,50.7355464 106.004444,50.6877714 106.087254,50.6431814 C106.170064,50.5985914 106.236949,50.5762964 106.287909,50.5762964 C106.428049,50.5762964 106.510859,50.6973264 106.536339,50.9393864 C106.141399,51.2451464 105.711424,51.4872064 105.246414,51.6655664 C104.781404,51.8439264 104.345059,51.9331064 103.937379,51.9331064 C103.478739,51.9331064 103.153869,51.8598514 102.962769,51.7133414 C102.771669,51.5668314 102.676119,51.3470664 102.676119,51.0540464 C102.676119,50.9139064 102.688859,50.7801364 102.714339,50.6527364 L103.918269,44.1362264 L102.523239,44.1362264 C102.548719,43.9196464 102.590124,43.7572114 102.647454,43.6489214 C102.704784,43.5406314 102.803519,43.4864864 102.943659,43.4864864 L104.032929,43.4864864 L104.090259,43.1616164 Z" id="Path" fill="#FFFFFF" fill-rule="nonzero"></path>
        <path d="M110.262789,39.8555864 C110.262789,39.7918864 110.253234,39.7281864 110.234124,39.6644864 C110.215014,39.6007864 110.160869,39.5689364 110.071689,39.5689364 C110.033469,39.5689364 109.966584,39.5784914 109.871034,39.5976014 C109.775484,39.6167114 109.673564,39.6358214 109.565274,39.6549314 C109.456984,39.6740414 109.358249,39.6899664 109.269069,39.7027064 C109.179889,39.7154464 109.116189,39.7218164 109.077969,39.7218164 C108.912349,39.7218164 108.829539,39.5880464 108.829539,39.3205064 C109.402839,39.1676264 109.931549,39.0115614 110.415669,38.8523114 C110.899789,38.6930614 111.383909,38.5178864 111.868029,38.3267864 C111.969949,38.3904864 112.033649,38.4510014 112.059129,38.5083314 C112.084609,38.5656614 112.097349,38.6261764 112.097349,38.6898764 C112.097349,38.7917964 112.084609,38.8937164 112.059129,38.9956364 L109.880589,50.1367664 C109.867849,50.2004664 109.855109,50.2737214 109.842369,50.3565314 C109.829629,50.4393414 109.823259,50.4934864 109.823259,50.5189664 C109.823259,50.6718464 109.899699,50.7482864 110.052579,50.7482864 C110.141759,50.7482864 110.234124,50.7259914 110.329674,50.6814014 C110.425224,50.6368114 110.520774,50.5858514 110.616324,50.5285214 C110.711874,50.4711914 110.797869,50.4202314 110.874309,50.3756414 C110.950749,50.3310514 111.014449,50.3087564 111.065409,50.3087564 C111.192809,50.3087564 111.281989,50.4361564 111.332949,50.6909564 C111.116369,50.8565764 110.883864,51.0126414 110.635434,51.1591514 C110.387004,51.3056614 110.148129,51.4362464 109.918809,51.5509064 C109.689489,51.6655664 109.472909,51.7579314 109.269069,51.8280014 C109.065229,51.8980714 108.899609,51.9331064 108.772209,51.9331064 C108.632069,51.9331064 108.498299,51.9044414 108.370899,51.8471114 C108.243499,51.7897814 108.179799,51.6528264 108.179799,51.4362464 C108.179799,51.3980264 108.186169,51.3311414 108.198909,51.2355914 C108.211649,51.1400414 108.224389,51.0731564 108.237129,51.0349364 L110.033469,41.8048064 C110.109909,41.4353464 110.167239,41.0690714 110.205459,40.7059814 C110.243679,40.3428914 110.262789,40.0594264 110.262789,39.8555864 Z" id="Path" fill="#FFFFFF" fill-rule="nonzero"></path>
        <path d="M117.811239,48.5315264 L117.734799,48.5315264 C117.416299,49.1557864 117.091429,49.6844964 116.760189,50.1176564 C116.428949,50.5508164 116.100894,50.9011664 115.776024,51.1687064 C115.451154,51.4362464 115.132654,51.6305314 114.820524,51.7515614 C114.508394,51.8725914 114.212189,51.9331064 113.931909,51.9331064 C113.740809,51.9331064 113.559264,51.9044414 113.387274,51.8471114 C113.215284,51.7897814 113.062404,51.6910464 112.928634,51.5509064 C112.794864,51.4107664 112.689759,51.2196664 112.613319,50.9776064 C112.536879,50.7355464 112.498659,50.4297864 112.498659,50.0603264 C112.498659,48.9774264 112.673834,48.0155564 113.024184,47.1747164 C113.374534,46.3338764 113.810879,45.6236214 114.333219,45.0439514 C114.855559,44.4642814 115.419304,44.0215664 116.024454,43.7158064 C116.629604,43.4100464 117.193349,43.2571664 117.715689,43.2571664 C118.123369,43.2571664 118.515124,43.2762764 118.890954,43.3144964 C119.266784,43.3527164 119.690389,43.4227864 120.161769,43.5247064 L118.843179,50.1558764 C118.817699,50.2832764 118.804959,50.3979364 118.804959,50.4998564 C118.804959,50.6654764 118.875029,50.7482864 119.015169,50.7482864 C119.104349,50.7482864 119.196714,50.7259914 119.292264,50.6814014 C119.387814,50.6368114 119.483364,50.5858514 119.578914,50.5285214 C119.674464,50.4711914 119.763644,50.4202314 119.846454,50.3756414 C119.929264,50.3310514 119.996149,50.3087564 120.047109,50.3087564 C120.174509,50.3087564 120.263689,50.4361564 120.314649,50.6909564 C120.085329,50.8565764 119.846454,51.0126414 119.598024,51.1591514 C119.349594,51.3056614 119.110719,51.4362464 118.881399,51.5509064 C118.652079,51.6655664 118.435499,51.7579314 118.231659,51.8280014 C118.027819,51.8980714 117.862199,51.9331064 117.734799,51.9331064 C117.594659,51.9331064 117.467259,51.9044414 117.352599,51.8471114 C117.237939,51.7897814 117.180609,51.6655664 117.180609,51.4744664 C117.180609,51.4107664 117.186979,51.3375114 117.199719,51.2547014 C117.212459,51.1718914 117.231569,51.0858964 117.257049,50.9967164 L117.811239,48.5315264 Z M118.499199,44.1935564 C118.346319,44.1425964 118.177514,44.1011914 117.992784,44.0693414 C117.808054,44.0374914 117.632879,44.0215664 117.467259,44.0215664 C116.957659,44.0215664 116.499019,44.1553364 116.091339,44.4228764 C115.683659,44.6904164 115.333309,45.0662464 115.040289,45.5503664 C114.747269,46.0344864 114.521134,46.6077864 114.361884,47.2702664 C114.202634,47.9327464 114.123009,48.6525564 114.123009,49.4296964 C114.123009,49.8883364 114.180339,50.2163914 114.294999,50.4138614 C114.409659,50.6113314 114.568909,50.7100664 114.772749,50.7100664 C115.027549,50.7100664 115.301459,50.5954064 115.594479,50.3660864 C115.887499,50.1367664 116.170964,49.8373764 116.444874,49.4679164 C116.718784,49.0984564 116.983139,48.6812214 117.237939,48.2162114 C117.492739,47.7512014 117.712504,47.2766364 117.897234,46.7925164 C118.081964,46.3083964 118.228474,45.8402014 118.336764,45.3879314 C118.445054,44.9356614 118.499199,44.5375364 118.499199,44.1935564 Z" id="Shape" fill="#FFFFFF" fill-rule="nonzero"></path>
        <path d="M126.773829,45.3592664 C126.633689,45.3465264 126.544509,45.3114914 126.506289,45.2541614 C126.468069,45.1968314 126.442589,45.1299464 126.429849,45.0535064 C126.366149,44.6713064 126.219639,44.3751014 125.990319,44.1648914 C125.760999,43.9546814 125.448869,43.8495764 125.053929,43.8495764 C124.646249,43.8495764 124.295899,43.9483114 124.002879,44.1457814 C123.709859,44.3432514 123.563349,44.6267164 123.563349,44.9961764 C123.563349,45.2509764 123.674824,45.5089614 123.897774,45.7701314 C124.120724,46.0313014 124.385079,46.2956564 124.690839,46.5631964 C124.920159,46.7670364 125.162219,46.9772464 125.417019,47.1938264 C125.671819,47.4104064 125.901139,47.6301714 126.104979,47.8531214 C126.308819,48.0760714 126.477624,48.3085764 126.611394,48.5506364 C126.745164,48.7926964 126.812049,49.0411264 126.812049,49.2959264 C126.812049,49.6653864 126.729239,50.0093664 126.563619,50.3278664 C126.397999,50.6463664 126.171864,50.9234614 125.885214,51.1591514 C125.598564,51.3948414 125.260954,51.5827564 124.872384,51.7228964 C124.483814,51.8630364 124.072949,51.9331064 123.639789,51.9331064 C123.193889,51.9331064 122.760729,51.8948864 122.340309,51.8184464 C121.919889,51.7420064 121.524949,51.6209764 121.155489,51.4553564 C121.257409,51.0731564 121.337034,50.7196214 121.394364,50.3947514 C121.451694,50.0698814 121.493099,49.7036064 121.518579,49.2959264 L121.709679,49.2959264 C122.015439,49.2959264 122.168319,49.4042164 122.168319,49.6207964 C122.142839,50.1558764 122.267054,50.5699264 122.540964,50.8629464 C122.814874,51.1559664 123.193889,51.3024764 123.678009,51.3024764 C124.174869,51.3024764 124.582549,51.1718914 124.901049,50.9107214 C125.219549,50.6495514 125.378799,50.3087564 125.378799,49.8883364 C125.378799,49.6972364 125.331024,49.5125064 125.235474,49.3341464 C125.139924,49.1557864 125.015709,48.9869814 124.862829,48.8277314 C124.709949,48.6684814 124.537959,48.5092314 124.346859,48.3499814 C124.155759,48.1907314 123.958289,48.0282964 123.754449,47.8626764 C123.372249,47.5441764 123.025084,47.2097514 122.712954,46.8594014 C122.400824,46.5090514 122.244759,46.1045564 122.244759,45.6459164 C122.244759,45.3019364 122.324384,44.9834364 122.483634,44.6904164 C122.642884,44.3973964 122.859464,44.1457814 123.133374,43.9355714 C123.407284,43.7253614 123.725784,43.5597414 124.088874,43.4387114 C124.451964,43.3176814 124.837349,43.2571664 125.245029,43.2571664 C125.983949,43.2571664 126.678279,43.4291564 127.328019,43.7731364 C127.264319,43.9642364 127.210174,44.2062964 127.165584,44.4993164 C127.120994,44.7923364 127.085959,45.0853564 127.060479,45.3783764 L126.773829,45.3592664 Z" id="Path" fill="#FFFFFF" fill-rule="nonzero"></path>
        <path d="M131.207349,50.4234164 C131.181869,50.5635564 131.210534,50.6782164 131.293344,50.7673964 C131.376154,50.8565764 131.484444,50.9298314 131.618214,50.9871614 C131.751984,51.0444914 131.901679,51.0890814 132.067299,51.1209314 C132.232919,51.1527814 132.385799,51.1750764 132.525939,51.1878164 C132.602379,51.2005564 132.672449,51.2292214 132.736149,51.2738114 C132.799849,51.3184014 132.831699,51.3916564 132.831699,51.4935764 C132.831699,51.5317964 132.828514,51.5795714 132.822144,51.6369014 C132.815774,51.6942314 132.806219,51.7547464 132.793479,51.8184464 C132.602379,51.8057064 132.388984,51.7897814 132.153294,51.7706714 C131.917604,51.7515614 131.681914,51.7388214 131.446224,51.7324514 C131.210534,51.7260814 130.984399,51.7197114 130.767819,51.7133414 C130.551239,51.7069714 130.360139,51.7037864 130.194519,51.7037864 C129.926979,51.7037864 129.605294,51.7133414 129.229464,51.7324514 C128.853634,51.7515614 128.493729,51.7802264 128.149749,51.8184464 C128.137009,51.7547464 128.127454,51.6942314 128.121084,51.6369014 C128.114714,51.5795714 128.111529,51.5317964 128.111529,51.4935764 C128.111529,51.4298764 128.137009,51.3661764 128.187969,51.3024764 C128.238929,51.2387764 128.315369,51.2005564 128.417289,51.1878164 C128.659349,51.1623364 128.898224,51.0922664 129.133914,50.9776064 C129.369604,50.8629464 129.512929,50.6718464 129.563889,50.4043064 L131.455779,40.5817664 C131.481259,40.4288864 131.468519,40.3078564 131.417559,40.2186764 C131.366599,40.1294964 131.290159,40.0562414 131.188239,39.9989114 C131.086319,39.9415814 130.974844,39.8969914 130.853814,39.8651414 C130.732784,39.8332914 130.614939,39.8109964 130.500279,39.7982564 C130.321919,39.7727764 130.232739,39.6644864 130.232739,39.4733864 C130.232739,39.4351664 130.235924,39.3905764 130.242294,39.3396164 C130.248664,39.2886564 130.258219,39.2313264 130.270959,39.1676264 C130.653159,39.2058464 131.044914,39.2345114 131.446224,39.2536214 C131.847534,39.2727314 132.213809,39.2822864 132.545049,39.2822864 L136.175949,39.2822864 C136.456229,39.2822864 136.685549,39.2759164 136.863909,39.2631764 C137.042269,39.2504364 137.195149,39.2376964 137.322549,39.2249564 C137.449949,39.2122164 137.555054,39.1994764 137.637864,39.1867364 C137.720674,39.1739964 137.800299,39.1676264 137.876739,39.1676264 C138.055099,39.1676264 138.150649,39.2440664 138.163389,39.3969464 C138.188869,39.6007864 138.220719,39.9192864 138.258939,40.3524464 C138.297159,40.7856064 138.373599,41.2824664 138.488259,41.8430264 C138.450039,41.8685064 138.399079,41.8971714 138.335379,41.9290214 C138.271679,41.9608714 138.188869,41.9767964 138.086949,41.9767964 C137.934069,41.9767964 137.838519,41.9067264 137.800299,41.7665864 C137.698379,41.4480864 137.590089,41.1773614 137.475429,40.9544114 C137.360769,40.7314614 137.220629,40.5499164 137.055009,40.4097764 C136.889389,40.2696364 136.691919,40.1677164 136.462599,40.1040164 C136.233279,40.0403164 135.952999,40.0084664 135.621759,40.0084664 L133.194789,40.0084664 L132.201069,45.2063864 L134.819139,45.2063864 C135.099419,45.2063864 135.309629,45.0980964 135.449769,44.8815164 C135.589909,44.6649364 135.710939,44.3910264 135.812859,44.0597864 C135.838339,44.0088264 135.876559,43.9610514 135.927519,43.9164614 C135.978479,43.8718714 136.048549,43.8495764 136.137729,43.8495764 C136.188689,43.8495764 136.246019,43.8559464 136.309719,43.8686864 C136.373419,43.8814264 136.437119,43.8941664 136.500819,43.9069064 C136.411639,44.1871864 136.338384,44.4451714 136.281054,44.6808614 C136.223724,44.9165514 136.172764,45.1586114 136.128174,45.4070414 C136.083584,45.6554714 136.045364,45.9293814 136.013514,46.2287714 C135.981664,46.5281614 135.946629,46.8753264 135.908409,47.2702664 C135.793749,47.3084864 135.672719,47.3275964 135.545319,47.3275964 C135.379699,47.3275964 135.296889,47.2384164 135.296889,47.0600564 C135.296889,46.9453964 135.296889,46.8243664 135.296889,46.6969664 C135.296889,46.5695664 135.277779,46.4485364 135.239559,46.3338764 C135.201339,46.2192164 135.137639,46.1236664 135.048459,46.0472264 C134.959279,45.9707864 134.831879,45.9325664 134.666259,45.9325664 L132.067299,45.9325664 L131.207349,50.4234164 Z" id="Path" fill="#FFFFFF" fill-rule="nonzero"></path>
        <path d="M141.316539,41.2123964 C141.074479,41.2123964 140.883379,41.1391414 140.743239,40.9926314 C140.603099,40.8461214 140.533029,40.6518364 140.533029,40.4097764 C140.533029,40.0657964 140.650874,39.7568514 140.886564,39.4829414 C141.122254,39.2090314 141.405719,39.0720764 141.736959,39.0720764 C141.991759,39.0720764 142.173304,39.1548864 142.281594,39.3205064 C142.389884,39.4861264 142.444029,39.6963364 142.444029,39.9511364 C142.444029,40.2696364 142.335739,40.5594714 142.119159,40.8206414 C141.902579,41.0818114 141.635039,41.2123964 141.316539,41.2123964 Z M140.341929,50.1367664 C140.329189,50.1877264 140.316449,50.2546114 140.303709,50.3374214 C140.290969,50.4202314 140.284599,50.4807464 140.284599,50.5189664 C140.284599,50.6718464 140.361039,50.7482864 140.513919,50.7482864 C140.603099,50.7482864 140.695464,50.7259914 140.791014,50.6814014 C140.886564,50.6368114 140.982114,50.5858514 141.077664,50.5285214 C141.173214,50.4711914 141.259209,50.4202314 141.335649,50.3756414 C141.412089,50.3310514 141.475789,50.3087564 141.526749,50.3087564 C141.654149,50.3087564 141.743329,50.4361564 141.794289,50.6909564 C141.577709,50.8565764 141.345204,51.0126414 141.096774,51.1591514 C140.848344,51.3056614 140.609469,51.4362464 140.380149,51.5509064 C140.150829,51.6655664 139.934249,51.7579314 139.730409,51.8280014 C139.526569,51.8980714 139.360949,51.9331064 139.233549,51.9331064 C139.093409,51.9331064 138.959639,51.9044414 138.832239,51.8471114 C138.704839,51.7897814 138.641139,51.6528264 138.641139,51.4362464 C138.641139,51.3980264 138.647509,51.3311414 138.660249,51.2355914 C138.672989,51.1400414 138.685729,51.0731564 138.698469,51.0349364 C138.978749,49.6717564 139.201699,48.5856714 139.367319,47.7766814 C139.532939,46.9676914 139.657154,46.3498014 139.739964,45.9230114 C139.822774,45.4962214 139.876919,45.2127564 139.902399,45.0726164 C139.927879,44.9324764 139.940619,44.8496664 139.940619,44.8241864 C139.940619,44.6713064 139.883289,44.5948664 139.768629,44.5948664 C139.717669,44.5948664 139.641229,44.6171614 139.539309,44.6617514 C139.437389,44.7063414 139.329099,44.7509314 139.214439,44.7955214 C139.099779,44.8401114 138.994674,44.8847014 138.899124,44.9292914 C138.803574,44.9738814 138.730319,44.9961764 138.679359,44.9961764 C138.602919,44.9961764 138.545589,44.9579564 138.507369,44.8815164 C138.469149,44.8050764 138.437299,44.7158964 138.411819,44.6139764 C138.641139,44.4865764 138.908679,44.3432514 139.214439,44.1840014 C139.520199,44.0247514 139.816404,43.8750564 140.103054,43.7349164 C140.389704,43.5947764 140.644504,43.4801164 140.867454,43.3909364 C141.090404,43.3017564 141.240099,43.2571664 141.316539,43.2571664 C141.533119,43.2571664 141.641409,43.3654564 141.641409,43.5820364 C141.641409,43.6712164 141.628669,43.7667664 141.603189,43.8686864 L140.341929,50.1367664 Z" id="Shape" fill="#FFFFFF" fill-rule="nonzero"></path>
        <path d="M145.692729,49.3341464 C145.667249,49.4997664 145.648139,49.6494614 145.635399,49.7832314 C145.622659,49.9170014 145.616289,50.0348464 145.616289,50.1367664 C145.616289,50.3533464 145.648139,50.4998564 145.711839,50.5762964 C145.775539,50.6527364 145.890199,50.6909564 146.055819,50.6909564 C146.297879,50.6909564 146.559049,50.6017764 146.839329,50.4234164 C147.119609,50.2450564 147.393519,50.0125514 147.661059,49.7259014 C147.928599,49.4392514 148.186584,49.1080114 148.435014,48.7321814 C148.683444,48.3563514 148.900024,47.9677814 149.084754,47.5664714 C149.269484,47.1651614 149.419179,46.7734064 149.533839,46.3912064 C149.648499,46.0090064 149.705829,45.6586564 149.705829,45.3401564 C149.705829,45.0598764 149.664424,44.7891514 149.581614,44.5279814 C149.498804,44.2668114 149.349109,44.0279364 149.132529,43.8113564 L149.342739,43.5055964 C149.699459,43.4801164 150.021144,43.4482664 150.307794,43.4100464 C150.594444,43.3718264 150.903389,43.3144964 151.234629,43.2380564 C151.285589,43.3781964 151.320624,43.5310764 151.339734,43.6966964 C151.358844,43.8623164 151.368399,44.0151964 151.368399,44.1553364 C151.368399,44.5120564 151.276034,44.9547714 151.091304,45.4834814 C150.906574,46.0121914 150.658144,46.5631964 150.346014,47.1364964 C150.033884,47.7097964 149.667609,48.2830964 149.247189,48.8563964 C148.826769,49.4296964 148.387239,49.9456664 147.928599,50.4043064 C147.469959,50.8629464 147.004949,51.2324064 146.533569,51.5126864 C146.062189,51.7929664 145.609919,51.9331064 145.176759,51.9331064 C144.386879,51.9331064 143.991939,51.5381664 143.991939,50.7482864 C143.991939,50.5954064 143.998309,50.4266014 144.011049,50.2418714 C144.023789,50.0571414 144.042899,49.8564864 144.068379,49.6399064 L144.622569,45.2254964 C144.635309,45.1745364 144.644864,45.1108364 144.651234,45.0343964 C144.657604,44.9579564 144.660789,44.9069964 144.660789,44.8815164 C144.660789,44.6649364 144.584349,44.5566464 144.431469,44.5566464 C144.355029,44.5566464 144.262664,44.5789414 144.154374,44.6235314 C144.046084,44.6681214 143.940979,44.7127114 143.839059,44.7573014 C143.737139,44.8018914 143.641589,44.8464814 143.552409,44.8910714 C143.463229,44.9356614 143.393159,44.9579564 143.342199,44.9579564 C143.214799,44.9579564 143.125619,44.8369264 143.074659,44.5948664 C143.329459,44.4037664 143.593814,44.2285914 143.867724,44.0693414 C144.141634,43.9100914 144.402804,43.7699514 144.651234,43.6489214 C144.899664,43.5278914 145.125799,43.4323414 145.329639,43.3622714 C145.533479,43.2922014 145.692729,43.2571664 145.807389,43.2571664 C145.934789,43.2571664 146.052634,43.2858314 146.160924,43.3431614 C146.269214,43.4004914 146.323359,43.5247064 146.323359,43.7158064 C146.323359,43.7795064 146.323359,43.8527614 146.323359,43.9355714 C146.323359,44.0183814 146.316989,44.0980064 146.304249,44.1744464 L145.692729,49.3341464 Z" id="Path" fill="#FFFFFF" fill-rule="nonzero"></path>
        <path d="M153.394059,47.2511564 C154.604359,47.1492364 155.464309,46.9008064 155.973909,46.5058664 C156.483509,46.1109264 156.738309,45.6140664 156.738309,45.0152864 C156.738309,44.6585664 156.652314,44.3878414 156.480324,44.2031114 C156.308334,44.0183814 156.075829,43.9260164 155.782809,43.9260164 C155.477049,43.9260164 155.193584,44.0183814 154.932414,44.2031114 C154.671244,44.3878414 154.435554,44.6330864 154.225344,44.9388464 C154.015134,45.2446064 153.839959,45.5981414 153.699819,45.9994514 C153.559679,46.4007614 153.457759,46.8179964 153.394059,47.2511564 Z M153.336729,47.8244564 C153.323989,47.9518564 153.314434,48.0792564 153.308064,48.2066564 C153.301694,48.3340564 153.298509,48.4678264 153.298509,48.6079664 C153.298509,48.9009864 153.323989,49.1876364 153.374949,49.4679164 C153.425909,49.7481964 153.515089,49.9966264 153.642489,50.2132064 C153.769889,50.4297864 153.945064,50.6049614 154.168014,50.7387314 C154.390964,50.8725014 154.674429,50.9393864 155.018409,50.9393864 C155.349649,50.9393864 155.693629,50.8788714 156.050349,50.7578414 C156.407069,50.6368114 156.770159,50.4488964 157.139619,50.1940964 C157.267019,50.1049164 157.356199,50.0603264 157.407159,50.0603264 C157.509079,50.0603264 157.575964,50.1112864 157.607814,50.2132064 C157.639664,50.3151264 157.655589,50.3915664 157.655589,50.4425264 C157.464489,50.6208864 157.247909,50.7992464 157.005849,50.9776064 C156.763789,51.1559664 156.502619,51.3152164 156.222339,51.4553564 C155.942059,51.5954964 155.642669,51.7101564 155.324169,51.7993364 C155.005669,51.8885164 154.674429,51.9331064 154.330449,51.9331064 C153.795369,51.9331064 153.359024,51.8343714 153.021414,51.6369014 C152.683804,51.4394314 152.416264,51.1846314 152.218794,50.8725014 C152.021324,50.5603714 151.887554,50.2195764 151.817484,49.8501164 C151.747414,49.4806564 151.712379,49.1239364 151.712379,48.7799564 C151.712379,48.1047364 151.817484,47.4358864 152.027694,46.7734064 C152.237904,46.1109264 152.534109,45.5185164 152.916309,44.9961764 C153.298509,44.4738364 153.763519,44.0534164 154.311339,43.7349164 C154.859159,43.4164164 155.470679,43.2571664 156.145899,43.2571664 C156.413439,43.2571664 156.674609,43.2922014 156.929409,43.3622714 C157.184209,43.4323414 157.410344,43.5374464 157.607814,43.6775864 C157.805284,43.8177264 157.964534,44.0024564 158.085564,44.2317764 C158.206594,44.4610964 158.267109,44.7350064 158.267109,45.0535064 C158.267109,45.5248864 158.142894,45.9293814 157.894464,46.2669914 C157.646034,46.6046014 157.302054,46.8848814 156.862524,47.1078314 C156.422994,47.3307814 155.903839,47.4995864 155.305059,47.6142464 C154.706279,47.7289064 154.050169,47.7989764 153.336729,47.8244564 Z" id="Shape" fill="#FFFFFF" fill-rule="nonzero"></path>
        <path d="M159.853239,42.5500964 C159.853239,42.0659764 159.936049,41.6105214 160.101669,41.1837314 C160.267289,40.7569414 160.502979,40.3842964 160.808739,40.0657964 C161.114499,39.7472964 161.483959,39.4956814 161.917119,39.3109514 C162.350279,39.1262214 162.834399,39.0338564 163.369479,39.0338564 C163.917299,39.0338564 164.410974,39.1262214 164.850504,39.3109514 C165.290034,39.4956814 165.662679,39.7472964 165.968439,40.0657964 C166.274199,40.3842964 166.506704,40.7569414 166.665954,41.1837314 C166.825204,41.6105214 166.904829,42.0659764 166.904829,42.5500964 C166.904829,43.0342164 166.818834,43.4928564 166.646844,43.9260164 C166.474854,44.3591764 166.235979,44.7350064 165.930219,45.0535064 C165.624459,45.3720064 165.254999,45.6236214 164.821839,45.8083514 C164.388679,45.9930814 163.904559,46.0854464 163.369479,46.0854464 C162.834399,46.0854464 162.350279,45.9930814 161.917119,45.8083514 C161.483959,45.6236214 161.114499,45.3720064 160.808739,45.0535064 C160.502979,44.7350064 160.267289,44.3591764 160.101669,43.9260164 C159.936049,43.4928564 159.853239,43.0342164 159.853239,42.5500964 Z M163.388589,45.5121464 C163.834489,45.5121464 164.235799,45.4357064 164.592519,45.2828264 C164.949239,45.1299464 165.251814,44.9229214 165.500244,44.6617514 C165.748674,44.4005814 165.939774,44.0916364 166.073544,43.7349164 C166.207314,43.3781964 166.274199,42.9959964 166.274199,42.5883164 C166.274199,42.1678964 166.204129,41.7761414 166.063989,41.4130514 C165.923849,41.0499614 165.723194,40.7346464 165.462024,40.4671064 C165.200854,40.1995664 164.891909,39.9893564 164.535189,39.8364764 C164.178469,39.6835964 163.783529,39.6071564 163.350369,39.6071564 C162.904469,39.6071564 162.506344,39.6835964 162.155994,39.8364764 C161.805644,39.9893564 161.506254,40.1963814 161.257824,40.4575514 C161.009394,40.7187214 160.818294,41.0276664 160.684524,41.3843864 C160.550754,41.7411064 160.483869,42.1233064 160.483869,42.5309864 C160.483869,42.9259264 160.544384,43.3017564 160.665414,43.6584764 C160.786444,44.0151964 160.967989,44.3305114 161.210049,44.6044214 C161.452109,44.8783314 161.754684,45.0980964 162.117774,45.2637164 C162.480864,45.4293364 162.904469,45.5121464 163.388589,45.5121464 Z M165.452469,44.2891064 C165.426989,44.3400664 165.379214,44.4101364 165.309144,44.4993164 C165.239074,44.5884964 165.184929,44.6521964 165.146709,44.6904164 L164.993829,44.6904164 C164.840949,44.6904164 164.707179,44.6521964 164.592519,44.5757564 C164.477859,44.4993164 164.375939,44.3973964 164.286759,44.2699964 L163.273929,42.7794164 L162.968169,42.7794164 L162.968169,44.0788964 C162.968169,44.1298564 162.990464,44.1776314 163.035054,44.2222214 C163.079644,44.2668114 163.184749,44.3018464 163.350369,44.3273264 C163.426809,44.3528064 163.465029,44.3910264 163.465029,44.4419864 C163.465029,44.4929464 163.452289,44.5566464 163.426809,44.6330864 C163.312149,44.6203464 163.175194,44.6139764 163.015944,44.6139764 C162.856694,44.6139764 162.706999,44.6139764 162.566859,44.6139764 C162.464939,44.6139764 162.334354,44.6139764 162.175104,44.6139764 C162.015854,44.6139764 161.872529,44.6203464 161.745129,44.6330864 C161.732389,44.6076064 161.726019,44.5757564 161.726019,44.5375364 C161.726019,44.4993164 161.726019,44.4674664 161.726019,44.4419864 C161.726019,44.3782864 161.757869,44.3400664 161.821569,44.3273264 C162.076369,44.2891064 162.203769,44.2062964 162.203769,44.0788964 L162.203769,40.9066364 C162.203769,40.8429364 162.178289,40.7951614 162.127329,40.7633114 C162.076369,40.7314614 161.980819,40.7091664 161.840679,40.6964264 C161.751499,40.6964264 161.706909,40.6582064 161.706909,40.5817664 C161.706909,40.5308064 161.719649,40.4671064 161.745129,40.3906664 C161.872529,40.4034064 162.022224,40.4129614 162.194214,40.4193314 C162.366204,40.4257014 162.515899,40.4288864 162.643299,40.4288864 L163.369479,40.4288864 C163.828119,40.4288864 164.219874,40.5148814 164.544744,40.6868714 C164.869614,40.8588614 165.032049,41.1486964 165.032049,41.5563764 C165.032049,41.8111764 164.933314,42.0404964 164.735844,42.2443364 C164.538374,42.4481764 164.312239,42.5819464 164.057439,42.6456464 L164.898279,43.8877964 C164.974719,44.0024564 165.067084,44.0916364 165.175374,44.1553364 C165.283664,44.2190364 165.376029,44.2636264 165.452469,44.2891064 Z M163.197489,42.3781064 C163.847229,42.3781064 164.172099,42.1233064 164.172099,41.6137064 C164.172099,41.3589064 164.098844,41.1646214 163.952334,41.0308514 C163.805824,40.8970814 163.547839,40.8301964 163.178379,40.8301964 L162.968169,40.8301964 L162.968169,42.3781064 L163.197489,42.3781064 Z" id="Shape" fill="#FFFFFF" fill-rule="nonzero"></path>
        <path d="M21.90643,21.544178 C21.9786233,21.4719847 22.0399877,21.4286687 22.090523,21.41423 C22.1410583,21.3997913 22.1807647,21.392572 22.209642,21.392572 C22.33959,21.392572 22.4550993,21.4864233 22.55617,21.674126 C22.1807647,22.0928473 21.776482,22.432156 21.343322,22.692052 C20.910162,22.951948 20.4481247,23.081896 19.95721,23.081896 C19.6684367,23.081896 19.394102,23.049409 19.134206,22.984435 C18.87431,22.919461 18.6505107,22.7931227 18.462808,22.60542 C18.2751053,22.4177173 18.127109,22.161431 18.018819,21.836561 C17.910529,21.511691 17.856384,21.08936 17.856384,20.569568 L17.856384,14.59196 L16.556904,14.59196 L16.556904,14.353722 C16.556904,14.2526513 16.5749523,14.1588 16.611049,14.072168 C16.6471457,13.985536 16.7229487,13.94222 16.838458,13.94222 C17.228302,13.94222 17.5459527,13.8411493 17.79141,13.639008 C18.0368673,13.4368667 18.2390087,13.1769707 18.397834,12.85932 C18.571098,12.512792 18.722704,12.187922 18.852652,11.88471 C18.9826,11.581498 19.1269867,11.429892 19.285812,11.429892 L19.675656,11.429892 L19.675656,13.682324 L22.209642,13.682324 C22.209642,13.985536 22.177155,14.212945 22.112181,14.364551 C22.047207,14.516157 21.928088,14.59196 21.754824,14.59196 L19.675656,14.59196 L19.675656,19.963144 C19.675656,20.4251813 19.697314,20.796977 19.74063,21.078531 C19.783946,21.360085 19.84892,21.576665 19.935552,21.728271 C20.022184,21.879877 20.1232547,21.977338 20.238764,22.020654 C20.3542733,22.06397 20.4842213,22.085628 20.628608,22.085628 C20.8740653,22.085628 21.1014743,22.031483 21.310835,21.923193 C21.5201957,21.814903 21.7187273,21.6885647 21.90643,21.544178 Z" id="Path" fill="#FFFFFF" fill-rule="nonzero"></path>
        <path d="M23.054304,18.252162 C23.054304,17.5879833 23.1806423,16.9599013 23.433319,16.367916 C23.6859957,15.7759307 24.028914,15.263358 24.462074,14.830198 C24.895234,14.397038 25.404197,14.0541197 25.988963,13.801443 C26.573729,13.5487663 27.2054207,13.422428 27.884038,13.422428 C28.5915327,13.422428 29.2412727,13.541547 29.833258,13.779785 C30.4252433,14.018023 30.9342063,14.3465027 31.360147,14.765224 C31.7860877,15.1839453 32.118177,15.6929083 32.356415,16.292113 C32.594653,16.8913177 32.713772,17.5446673 32.713772,18.252162 C32.713772,18.9307793 32.5874337,19.562471 32.334757,20.147237 C32.0820803,20.732003 31.739162,21.240966 31.306002,21.674126 C30.872842,22.107286 30.363879,22.4502043 29.779113,22.702881 C29.194347,22.9555577 28.5626553,23.081896 27.884038,23.081896 C27.1765433,23.081896 26.5268033,22.962777 25.934818,22.724539 C25.3428327,22.486301 24.8338697,22.1578213 24.407929,21.7391 C23.9819883,21.3203787 23.649899,20.8150253 23.411661,20.22304 C23.173423,19.6310547 23.054304,18.9740953 23.054304,18.252162 Z M25.090156,17.537448 C25.090156,18.0716787 25.1479107,18.620348 25.26342,19.183456 C25.3789293,19.746564 25.555803,20.255527 25.794041,20.710345 C26.032279,21.165163 26.3391007,21.5405683 26.714506,21.836561 C27.0899113,22.1325537 27.5447293,22.28055 28.07896,22.28055 C28.901964,22.28055 29.540875,21.9917767 29.995693,21.41423 C30.450511,20.8366833 30.67792,20.093092 30.67792,19.183456 C30.67792,18.6492253 30.623775,18.089727 30.515485,17.504961 C30.407195,16.920195 30.233931,16.3859643 29.995693,15.902269 C29.757455,15.4185737 29.4470237,15.0179007 29.064399,14.70025 C28.6817743,14.3825993 28.208908,14.223774 27.6458,14.223774 C26.8805507,14.223774 26.2632977,14.4872797 25.794041,15.014291 C25.3247843,15.5413023 25.090156,16.3823547 25.090156,17.537448 Z" id="Shape" fill="#FFFFFF" fill-rule="nonzero"></path>
        <path d="M43.737694,21.587494 C43.737694,21.804074 43.867642,21.966509 44.127538,22.074799 C44.387434,22.183089 44.6762073,22.2661113 44.993858,22.323866 C45.123806,22.3527433 45.18878,22.4393753 45.18878,22.583762 C45.18878,22.670394 45.1743413,22.7859033 45.145464,22.93029 C44.7700587,22.9014127 44.4018727,22.876145 44.040906,22.854487 C43.6799393,22.832829 43.2900953,22.822 42.871374,22.822 C42.48153,22.822 42.0952957,22.832829 41.712671,22.854487 C41.3300463,22.876145 40.9510313,22.9014127 40.575626,22.93029 C40.5467487,22.7859033 40.53231,22.670394 40.53231,22.583762 C40.53231,22.4393753 40.597284,22.3527433 40.727232,22.323866 C41.030444,22.2661113 41.3047787,22.183089 41.550236,22.074799 C41.7956933,21.966509 41.918422,21.804074 41.918422,21.587494 L41.918422,17.342526 C41.918422,16.9815593 41.896764,16.64947 41.853448,16.346258 C41.810132,16.043046 41.7271097,15.7795403 41.604381,15.555741 C41.4816523,15.3319417 41.3156077,15.1586777 41.106247,15.035949 C40.8968863,14.9132203 40.6261613,14.851856 40.294072,14.851856 C39.9331053,14.851856 39.579358,14.9132203 39.23283,15.035949 C38.886302,15.1586777 38.5794803,15.339161 38.312365,15.577399 C38.0452497,15.815637 37.8322793,16.10802 37.673454,16.454548 C37.5146287,16.801076 37.435216,17.1981393 37.435216,17.645738 L37.435216,21.587494 C37.435216,21.804074 37.5615543,21.966509 37.814231,22.074799 C38.0669077,22.183089 38.3376327,22.2661113 38.626406,22.323866 C38.756354,22.3527433 38.821328,22.4393753 38.821328,22.583762 C38.821328,22.670394 38.8068893,22.7859033 38.778012,22.93029 C38.4026067,22.9014127 38.0344207,22.876145 37.673454,22.854487 C37.3124873,22.832829 36.9298627,22.822 36.52558,22.822 C36.1068587,22.822 35.7097953,22.832829 35.33439,22.854487 C34.9589847,22.876145 34.5907987,22.9014127 34.229832,22.93029 C34.2009547,22.7859033 34.186516,22.670394 34.186516,22.583762 C34.186516,22.4393753 34.25149,22.3527433 34.381438,22.323866 C34.6990887,22.2661113 34.987862,22.183089 35.247758,22.074799 C35.507654,21.966509 35.637602,21.7968547 35.637602,21.565836 L35.637602,15.67486 C35.637602,15.2417 35.561799,14.9312687 35.410193,14.743566 C35.258587,14.5558633 34.9301073,14.440354 34.424754,14.397038 C34.2370513,14.3681607 34.1432,14.26709 34.1432,14.093826 C34.1432,14.0216327 34.1576387,13.9277813 34.186516,13.812272 C34.3742187,13.812272 34.6377243,13.801443 34.977033,13.779785 C35.3163417,13.758127 35.594286,13.7328593 35.810866,13.703982 C36.1429553,13.6462273 36.438948,13.584863 36.698844,13.519889 C36.95874,13.454915 37.1464427,13.422428 37.261952,13.422428 C37.4640933,13.422428 37.565164,13.530718 37.565164,13.747298 C37.565164,13.9494393 37.543506,14.191287 37.50019,14.472841 C37.456874,14.754395 37.435216,15.1261907 37.435216,15.588228 C38.0560787,14.895172 38.6516737,14.3609413 39.222001,13.985536 C39.7923283,13.6101307 40.4168007,13.422428 41.095418,13.422428 C41.9761767,13.422428 42.6367457,13.6787143 43.077125,14.191287 C43.5175043,14.7038597 43.737694,15.414964 43.737694,16.3246 L43.737694,21.587494 Z" id="Path" fill="#FFFFFF" fill-rule="nonzero"></path>
        <path d="M60.500986,12.144606 C60.3565993,12.1734833 60.2483093,12.187922 60.176116,12.187922 C59.9884133,12.187922 59.851246,12.1518253 59.764614,12.079632 C59.677982,12.0074387 59.613008,11.928026 59.569692,11.841394 C59.1942867,11.01839 58.746688,10.4191853 58.226896,10.04378 C57.707104,9.66837467 56.9996093,9.480672 56.104412,9.480672 C55.757884,9.480672 55.4294043,9.52759767 55.118973,9.621449 C54.8085417,9.71530033 54.5378167,9.85246767 54.306798,10.032951 C54.0757793,10.2134343 53.8916863,10.433624 53.754519,10.69352 C53.6173517,10.953416 53.548768,11.2421893 53.548768,11.55984 C53.548768,12.2384573 53.8339317,12.794346 54.404259,13.227506 C54.9745863,13.660666 55.8156387,14.1010453 56.927416,14.548644 C58.313528,15.0973133 59.3350637,15.707347 59.992023,16.378745 C60.6489823,17.050143 60.977462,17.8767567 60.977462,18.858586 C60.977462,19.4505713 60.8872203,20.0028503 60.706737,20.515423 C60.5262537,21.0279957 60.2446997,21.4755943 59.862075,21.858219 C59.4794503,22.2408437 58.984926,22.540446 58.378502,22.757026 C57.772078,22.973606 57.0429253,23.081896 56.191044,23.081896 C55.2958467,23.081896 54.4836717,22.9880447 53.754519,22.800342 C53.0253663,22.6126393 52.4081133,22.367182 51.90276,22.06397 C51.859444,21.457546 51.79447,20.87278 51.707838,20.309672 C51.621206,19.746564 51.5201353,19.183456 51.404626,18.620348 C51.5056967,18.577032 51.6284253,18.555374 51.772812,18.555374 C51.946076,18.555374 52.0796337,18.5950803 52.173485,18.674493 C52.2673363,18.7539057 52.3503587,18.880244 52.422552,19.053508 C52.7835187,20.093092 53.2491657,20.8583413 53.819493,21.349256 C54.3898203,21.8401707 55.1875567,22.085628 56.212702,22.085628 C56.6747393,22.085628 57.079022,22.020654 57.42555,21.890706 C57.772078,21.760758 58.0608513,21.5802747 58.29187,21.349256 C58.5228887,21.1182373 58.6961527,20.8583413 58.811662,20.569568 C58.9271713,20.2807947 58.984926,19.9703633 58.984926,19.638274 C58.984926,18.8874633 58.7286397,18.295478 58.216067,17.862318 C57.7034943,17.429158 56.970732,17.039314 56.01778,16.692786 C55.3969173,16.4617673 54.8338093,16.2199197 54.328456,15.967243 C53.8231027,15.7145663 53.3899427,15.4221833 53.028976,15.090094 C52.6680093,14.7580047 52.390065,14.3717703 52.195143,13.931391 C52.000221,13.4910117 51.90276,12.96761 51.90276,12.361186 C51.90276,11.8269553 52.000221,11.3252117 52.195143,10.855955 C52.390065,10.3866983 52.671619,9.978806 53.039805,9.632278 C53.407991,9.28575 53.85198,9.01141533 54.371772,8.809274 C54.891564,8.60713267 55.47633,8.506062 56.12607,8.506062 C56.8046873,8.506062 57.4544273,8.571036 58.07529,8.700984 C58.6961527,8.830932 59.396428,9.047512 60.176116,9.350724 C60.2049933,9.783884 60.2446997,10.249531 60.295235,10.747665 C60.3457703,11.245799 60.414354,11.711446 60.500986,12.144606 Z" id="Path" fill="#FFFFFF" fill-rule="nonzero"></path>
        <path d="M62.991656,18.252162 C62.991656,17.5879833 63.1179943,16.9599013 63.370671,16.367916 C63.6233477,15.7759307 63.966266,15.263358 64.399426,14.830198 C64.832586,14.397038 65.341549,14.0541197 65.926315,13.801443 C66.511081,13.5487663 67.1427727,13.422428 67.82139,13.422428 C68.5288847,13.422428 69.1786247,13.541547 69.77061,13.779785 C70.3625953,14.018023 70.8715583,14.3465027 71.297499,14.765224 C71.7234397,15.1839453 72.055529,15.6929083 72.293767,16.292113 C72.532005,16.8913177 72.651124,17.5446673 72.651124,18.252162 C72.651124,18.9307793 72.5247857,19.562471 72.272109,20.147237 C72.0194323,20.732003 71.676514,21.240966 71.243354,21.674126 C70.810194,22.107286 70.301231,22.4502043 69.716465,22.702881 C69.131699,22.9555577 68.5000073,23.081896 67.82139,23.081896 C67.1138953,23.081896 66.4641553,22.962777 65.87217,22.724539 C65.2801847,22.486301 64.7712217,22.1578213 64.345281,21.7391 C63.9193403,21.3203787 63.587251,20.8150253 63.349013,20.22304 C63.110775,19.6310547 62.991656,18.9740953 62.991656,18.252162 Z M65.027508,17.537448 C65.027508,18.0716787 65.0852627,18.620348 65.200772,19.183456 C65.3162813,19.746564 65.493155,20.255527 65.731393,20.710345 C65.969631,21.165163 66.2764527,21.5405683 66.651858,21.836561 C67.0272633,22.1325537 67.4820813,22.28055 68.016312,22.28055 C68.839316,22.28055 69.478227,21.9917767 69.933045,21.41423 C70.387863,20.8366833 70.615272,20.093092 70.615272,19.183456 C70.615272,18.6492253 70.561127,18.089727 70.452837,17.504961 C70.344547,16.920195 70.171283,16.3859643 69.933045,15.902269 C69.694807,15.4185737 69.3843757,15.0179007 69.001751,14.70025 C68.6191263,14.3825993 68.14626,14.223774 67.583152,14.223774 C66.8179027,14.223774 66.2006497,14.4872797 65.731393,15.014291 C65.2621363,15.5413023 65.027508,16.3823547 65.027508,17.537448 Z" id="Shape" fill="#FFFFFF" fill-rule="nonzero"></path>
        <path d="M78.888628,22.93029 C78.5132227,22.9014127 78.130598,22.876145 77.740754,22.854487 C77.35091,22.832829 76.961066,22.822 76.571222,22.822 C76.181378,22.822 75.780705,22.832829 75.369203,22.854487 C74.957701,22.876145 74.5714667,22.9014127 74.2105,22.93029 C74.1816227,22.7859033 74.167184,22.670394 74.167184,22.583762 C74.167184,22.4393753 74.232158,22.3527433 74.362106,22.323866 C74.6797567,22.2661113 74.9757493,22.183089 75.250084,22.074799 C75.5244187,21.966509 75.661586,21.7968547 75.661586,21.565836 L75.661586,9.913832 C75.661586,9.45179467 75.5713443,9.13775367 75.390861,8.971709 C75.2103777,8.80566433 74.8674593,8.700984 74.362106,8.657668 C74.1744033,8.62879067 74.080552,8.52772 74.080552,8.354456 C74.080552,8.267824 74.0949907,8.16675333 74.123868,8.051244 C74.3115707,8.051244 74.5714667,8.040415 74.903556,8.018757 C75.2356453,7.997099 75.5388573,7.97183133 75.813192,7.942954 C76.1452813,7.899638 76.441274,7.84188333 76.70117,7.76969 C76.961066,7.69749667 77.1487687,7.6614 77.264278,7.6614 C77.394226,7.6614 77.480858,7.69027733 77.524174,7.748032 C77.56749,7.80578667 77.589148,7.88519933 77.589148,7.98627 C77.589148,8.23172733 77.56749,8.516891 77.524174,8.841761 C77.480858,9.166631 77.4592,9.545646 77.4592,9.978806 L77.4592,21.565836 C77.4592,21.7968547 77.5927577,21.966509 77.859873,22.074799 C78.1269883,22.183089 78.4265907,22.2661113 78.75868,22.323866 C78.8741893,22.3527433 78.931944,22.4393753 78.931944,22.583762 C78.931944,22.670394 78.9175053,22.7859033 78.888628,22.93029 Z" id="Path" fill="#FFFFFF" fill-rule="nonzero"></path>
        <path d="M81.444272,15.67486 C81.444272,15.198384 81.3756883,14.8771237 81.238521,14.711079 C81.1013537,14.5450343 80.7873127,14.440354 80.296398,14.397038 C80.1086953,14.3681607 80.014844,14.2743093 80.014844,14.115484 C80.014844,14.028852 80.0292827,13.9277813 80.05816,13.812272 C80.2458627,13.812272 80.4949297,13.801443 80.805361,13.779785 C81.1157923,13.758127 81.379298,13.72564 81.595878,13.682324 C81.9135287,13.639008 82.191473,13.584863 82.429711,13.519889 C82.667949,13.454915 82.8448227,13.422428 82.960332,13.422428 C83.1624733,13.422428 83.263544,13.530718 83.263544,13.747298 L83.263544,19.161798 C83.263544,19.5227647 83.285202,19.854854 83.328518,20.158066 C83.371834,20.461278 83.4512467,20.7247837 83.566756,20.948583 C83.6822653,21.1723823 83.84831,21.3456463 84.06489,21.468375 C84.28147,21.5911037 84.5558047,21.652468 84.887894,21.652468 C85.2488607,21.652468 85.602608,21.5911037 85.949136,21.468375 C86.295664,21.3456463 86.6024857,21.165163 86.869601,20.926925 C87.1367163,20.688687 87.3496867,20.396304 87.508512,20.049776 C87.6673373,19.703248 87.74675,19.2989653 87.74675,18.836928 L87.74675,15.67486 C87.74675,15.2128227 87.6781663,14.895172 87.540999,14.721908 C87.4038317,14.548644 87.0825713,14.440354 86.577218,14.397038 C86.3895153,14.3681607 86.295664,14.2743093 86.295664,14.115484 C86.295664,14.028852 86.3101027,13.9277813 86.33898,13.812272 C86.5266827,13.812272 86.7757497,13.801443 87.086181,13.779785 C87.3966123,13.758127 87.6673373,13.72564 87.898356,13.682324 C88.2160067,13.639008 88.4903413,13.584863 88.72136,13.519889 C88.9523787,13.454915 89.1256427,13.422428 89.241152,13.422428 C89.4432933,13.422428 89.544364,13.530718 89.544364,13.747298 L89.544364,20.786148 C89.544364,21.0316053 89.5588027,21.230137 89.58768,21.381743 C89.6165573,21.533349 89.674312,21.6560777 89.760944,21.749929 C89.847576,21.8437803 89.966695,21.9159737 90.118301,21.966509 C90.269907,22.0170443 90.4684387,22.0495313 90.713896,22.06397 C90.9015987,22.0928473 90.99545,22.1866987 90.99545,22.345524 C90.99545,22.432156 90.9810113,22.5332267 90.952134,22.648736 C90.6777993,22.648736 90.389026,22.670394 90.085814,22.71371 C89.782602,22.757026 89.4938287,22.800342 89.219494,22.843658 C88.9451593,22.886974 88.7033117,22.93029 88.493951,22.973606 C88.2845903,23.016922 88.136594,23.03858 88.049962,23.03858 C87.8478207,23.03858 87.74675,22.93029 87.74675,22.71371 L87.74675,20.916096 C87.703434,20.959412 87.5807053,21.0965793 87.378564,21.327598 C87.1764227,21.5586167 86.912917,21.804074 86.588047,22.06397 C86.263177,22.323866 85.8877717,22.5584943 85.461831,22.767855 C85.0358903,22.9772157 84.5774627,23.081896 84.086548,23.081896 C83.2057893,23.081896 82.5452203,22.8292193 82.104841,22.323866 C81.6644617,21.8185127 81.444272,21.1037987 81.444272,20.179724 L81.444272,15.67486 Z" id="Path" fill="#FFFFFF" fill-rule="nonzero"></path>
        <path d="M97.232954,21.544178 C97.3051473,21.4719847 97.3665117,21.4286687 97.417047,21.41423 C97.4675823,21.3997913 97.5072887,21.392572 97.536166,21.392572 C97.666114,21.392572 97.7816233,21.4864233 97.882694,21.674126 C97.5072887,22.0928473 97.103006,22.432156 96.669846,22.692052 C96.236686,22.951948 95.7746487,23.081896 95.283734,23.081896 C94.9949607,23.081896 94.720626,23.049409 94.46073,22.984435 C94.200834,22.919461 93.9770347,22.7931227 93.789332,22.60542 C93.6016293,22.4177173 93.453633,22.161431 93.345343,21.836561 C93.237053,21.511691 93.182908,21.08936 93.182908,20.569568 L93.182908,14.59196 L91.883428,14.59196 L91.883428,14.353722 C91.883428,14.2526513 91.9014763,14.1588 91.937573,14.072168 C91.9736697,13.985536 92.0494727,13.94222 92.164982,13.94222 C92.554826,13.94222 92.8724767,13.8411493 93.117934,13.639008 C93.3633913,13.4368667 93.5655327,13.1769707 93.724358,12.85932 C93.897622,12.512792 94.049228,12.187922 94.179176,11.88471 C94.309124,11.581498 94.4535107,11.429892 94.612336,11.429892 L95.00218,11.429892 L95.00218,13.682324 L97.536166,13.682324 C97.536166,13.985536 97.503679,14.212945 97.438705,14.364551 C97.373731,14.516157 97.254612,14.59196 97.081348,14.59196 L95.00218,14.59196 L95.00218,19.963144 C95.00218,20.4251813 95.023838,20.796977 95.067154,21.078531 C95.11047,21.360085 95.175444,21.576665 95.262076,21.728271 C95.348708,21.879877 95.4497787,21.977338 95.565288,22.020654 C95.6807973,22.06397 95.8107453,22.085628 95.955132,22.085628 C96.2005893,22.085628 96.4279983,22.031483 96.637359,21.923193 C96.8467197,21.814903 97.0452513,21.6885647 97.232954,21.544178 Z" id="Path" fill="#FFFFFF" fill-rule="nonzero"></path>
        <path d="M101.109736,22.822 C100.864279,22.822 100.615212,22.8256097 100.362535,22.832829 C100.109858,22.8400483 99.87523,22.8508773 99.65865,22.865316 C99.44207,22.8797547 99.2543673,22.8941933 99.095542,22.908632 C98.9367167,22.9230707 98.835646,22.93029 98.79233,22.93029 C98.79233,22.9158513 98.7851107,22.865316 98.770672,22.778684 C98.7562333,22.692052 98.749014,22.627078 98.749014,22.583762 C98.749014,22.4393753 98.813988,22.3527433 98.943936,22.323866 C99.3193413,22.2516727 99.6225533,22.1650407 99.853572,22.06397 C100.084591,21.9628993 100.2001,21.7968547 100.2001,21.565836 L100.2001,15.67486 C100.2001,15.2417 100.124297,14.9312687 99.972691,14.743566 C99.821085,14.5558633 99.4926053,14.440354 98.987252,14.397038 C98.7995493,14.3681607 98.705698,14.26709 98.705698,14.093826 C98.705698,14.0216327 98.7201367,13.9277813 98.749014,13.812272 C98.9367167,13.812272 99.2002223,13.801443 99.539531,13.779785 C99.8788397,13.758127 100.156784,13.7328593 100.373364,13.703982 C100.705453,13.6462273 101.001446,13.584863 101.261342,13.519889 C101.521238,13.454915 101.708941,13.422428 101.82445,13.422428 C102.026591,13.422428 102.127662,13.530718 102.127662,13.747298 C102.127662,13.9494393 102.106004,14.191287 102.062688,14.472841 C102.019372,14.754395 101.997714,15.1261907 101.997714,15.588228 L101.997714,21.565836 C101.997714,21.7968547 102.109614,21.9628993 102.333413,22.06397 C102.557212,22.1650407 102.871253,22.2516727 103.275536,22.323866 C103.391045,22.3527433 103.4488,22.4393753 103.4488,22.583762 C103.4488,22.627078 103.44519,22.692052 103.437971,22.778684 C103.430752,22.865316 103.419923,22.9158513 103.405484,22.93029 C103.362168,22.93029 103.264707,22.9230707 103.113101,22.908632 C102.961495,22.8941933 102.777402,22.8797547 102.560822,22.865316 C102.344242,22.8508773 102.109614,22.8400483 101.856937,22.832829 C101.60426,22.8256097 101.355193,22.822 101.109736,22.822 Z M99.853572,9.805542 C99.853572,9.459014 99.972691,9.15941167 100.210929,8.906735 C100.449167,8.65405833 100.748769,8.52772 101.109736,8.52772 C101.456264,8.52772 101.745037,8.65405833 101.976056,8.906735 C102.207075,9.15941167 102.322584,9.459014 102.322584,9.805542 C102.322584,10.1809473 102.207075,10.4841593 101.976056,10.715178 C101.745037,10.9461967 101.456264,11.061706 101.109736,11.061706 C100.748769,11.061706 100.449167,10.9461967 100.210929,10.715178 C99.972691,10.4841593 99.853572,10.1809473 99.853572,9.805542 Z" id="Shape" fill="#FFFFFF" fill-rule="nonzero"></path>
        <path d="M104.726622,18.252162 C104.726622,17.5879833 104.85296,16.9599013 105.105637,16.367916 C105.358314,15.7759307 105.701232,15.263358 106.134392,14.830198 C106.567552,14.397038 107.076515,14.0541197 107.661281,13.801443 C108.246047,13.5487663 108.877739,13.422428 109.556356,13.422428 C110.263851,13.422428 110.913591,13.541547 111.505576,13.779785 C112.097561,14.018023 112.606524,14.3465027 113.032465,14.765224 C113.458406,15.1839453 113.790495,15.6929083 114.028733,16.292113 C114.266971,16.8913177 114.38609,17.5446673 114.38609,18.252162 C114.38609,18.9307793 114.259752,19.562471 114.007075,20.147237 C113.754398,20.732003 113.41148,21.240966 112.97832,21.674126 C112.54516,22.107286 112.036197,22.4502043 111.451431,22.702881 C110.866665,22.9555577 110.234973,23.081896 109.556356,23.081896 C108.848861,23.081896 108.199121,22.962777 107.607136,22.724539 C107.015151,22.486301 106.506188,22.1578213 106.080247,21.7391 C105.654306,21.3203787 105.322217,20.8150253 105.083979,20.22304 C104.845741,19.6310547 104.726622,18.9740953 104.726622,18.252162 Z M106.762474,17.537448 C106.762474,18.0716787 106.820229,18.620348 106.935738,19.183456 C107.051247,19.746564 107.228121,20.255527 107.466359,20.710345 C107.704597,21.165163 108.011419,21.5405683 108.386824,21.836561 C108.762229,22.1325537 109.217047,22.28055 109.751278,22.28055 C110.574282,22.28055 111.213193,21.9917767 111.668011,21.41423 C112.122829,20.8366833 112.350238,20.093092 112.350238,19.183456 C112.350238,18.6492253 112.296093,18.089727 112.187803,17.504961 C112.079513,16.920195 111.906249,16.3859643 111.668011,15.902269 C111.429773,15.4185737 111.119342,15.0179007 110.736717,14.70025 C110.354092,14.3825993 109.881226,14.223774 109.318118,14.223774 C108.552869,14.223774 107.935616,14.4872797 107.466359,15.014291 C106.997102,15.5413023 106.762474,16.3823547 106.762474,17.537448 Z" id="Shape" fill="#FFFFFF" fill-rule="nonzero"></path>
        <path d="M125.410012,21.587494 C125.410012,21.804074 125.53996,21.966509 125.799856,22.074799 C126.059752,22.183089 126.348525,22.2661113 126.666176,22.323866 C126.796124,22.3527433 126.861098,22.4393753 126.861098,22.583762 C126.861098,22.670394 126.846659,22.7859033 126.817782,22.93029 C126.442377,22.9014127 126.074191,22.876145 125.713224,22.854487 C125.352257,22.832829 124.962413,22.822 124.543692,22.822 C124.153848,22.822 123.767614,22.832829 123.384989,22.854487 C123.002364,22.876145 122.623349,22.9014127 122.247944,22.93029 C122.219067,22.7859033 122.204628,22.670394 122.204628,22.583762 C122.204628,22.4393753 122.269602,22.3527433 122.39955,22.323866 C122.702762,22.2661113 122.977097,22.183089 123.222554,22.074799 C123.468011,21.966509 123.59074,21.804074 123.59074,21.587494 L123.59074,17.342526 C123.59074,16.9815593 123.569082,16.64947 123.525766,16.346258 C123.48245,16.043046 123.399428,15.7795403 123.276699,15.555741 C123.15397,15.3319417 122.987926,15.1586777 122.778565,15.035949 C122.569204,14.9132203 122.298479,14.851856 121.96639,14.851856 C121.605423,14.851856 121.251676,14.9132203 120.905148,15.035949 C120.55862,15.1586777 120.251798,15.339161 119.984683,15.577399 C119.717568,15.815637 119.504597,16.10802 119.345772,16.454548 C119.186947,16.801076 119.107534,17.1981393 119.107534,17.645738 L119.107534,21.587494 C119.107534,21.804074 119.233872,21.966509 119.486549,22.074799 C119.739226,22.183089 120.009951,22.2661113 120.298724,22.323866 C120.428672,22.3527433 120.493646,22.4393753 120.493646,22.583762 C120.493646,22.670394 120.479207,22.7859033 120.45033,22.93029 C120.074925,22.9014127 119.706739,22.876145 119.345772,22.854487 C118.984805,22.832829 118.602181,22.822 118.197898,22.822 C117.779177,22.822 117.382113,22.832829 117.006708,22.854487 C116.631303,22.876145 116.263117,22.9014127 115.90215,22.93029 C115.873273,22.7859033 115.858834,22.670394 115.858834,22.583762 C115.858834,22.4393753 115.923808,22.3527433 116.053756,22.323866 C116.371407,22.2661113 116.66018,22.183089 116.920076,22.074799 C117.179972,21.966509 117.30992,21.7968547 117.30992,21.565836 L117.30992,15.67486 C117.30992,15.2417 117.234117,14.9312687 117.082511,14.743566 C116.930905,14.5558633 116.602425,14.440354 116.097072,14.397038 C115.909369,14.3681607 115.815518,14.26709 115.815518,14.093826 C115.815518,14.0216327 115.829957,13.9277813 115.858834,13.812272 C116.046537,13.812272 116.310042,13.801443 116.649351,13.779785 C116.98866,13.758127 117.266604,13.7328593 117.483184,13.703982 C117.815273,13.6462273 118.111266,13.584863 118.371162,13.519889 C118.631058,13.454915 118.818761,13.422428 118.93427,13.422428 C119.136411,13.422428 119.237482,13.530718 119.237482,13.747298 C119.237482,13.9494393 119.215824,14.191287 119.172508,14.472841 C119.129192,14.754395 119.107534,15.1261907 119.107534,15.588228 C119.728397,14.895172 120.323992,14.3609413 120.894319,13.985536 C121.464646,13.6101307 122.089119,13.422428 122.767736,13.422428 C123.648495,13.422428 124.309064,13.6787143 124.749443,14.191287 C125.189822,14.7038597 125.410012,15.414964 125.410012,16.3246 L125.410012,21.587494 Z" id="Path" fill="#FFFFFF" fill-rule="nonzero"></path>
        <path d="M134.008238,16.086362 C133.892729,16.086362 133.809706,16.0610943 133.759171,16.010559 C133.708636,15.9600237 133.676149,15.9058787 133.66171,15.848124 C133.560639,15.2561387 133.326011,14.8338077 132.957825,14.581131 C132.589639,14.3284543 132.131211,14.202116 131.582542,14.202116 C131.163821,14.202116 130.792025,14.321235 130.467155,14.559473 C130.142285,14.797711 129.97985,15.1261907 129.97985,15.544912 C129.97985,15.9203173 130.127846,16.2343583 130.423839,16.487035 C130.719832,16.7397117 131.257672,16.9887787 132.03736,17.234236 C132.456081,17.364184 132.842316,17.5085707 133.196063,17.667396 C133.54981,17.8262213 133.853022,18.0175337 134.105699,18.241333 C134.358376,18.4651323 134.556907,18.739467 134.701294,19.064337 C134.845681,19.389207 134.917874,19.7754413 134.917874,20.22304 C134.917874,20.5984453 134.84929,20.959412 134.712123,21.30594 C134.574956,21.652468 134.365595,21.95568 134.084041,22.215576 C133.802487,22.475472 133.44874,22.6848327 133.022799,22.843658 C132.596858,23.0024833 132.087895,23.081896 131.49591,23.081896 C131.033873,23.081896 130.51769,23.027751 129.947363,22.919461 C129.377036,22.811171 128.860853,22.627078 128.398816,22.367182 C128.369939,21.9917767 128.344671,21.598323 128.323013,21.186821 C128.301355,20.775319 128.290526,20.3602073 128.290526,19.941486 L128.507106,19.941486 C128.651493,19.941486 128.774221,19.9667537 128.875292,20.017289 C128.976363,20.0678243 129.034117,20.1508467 129.048556,20.266356 C129.106311,20.87278 129.340939,21.360085 129.752441,21.728271 C130.163943,22.096457 130.73788,22.28055 131.474252,22.28055 C132.066237,22.28055 132.521055,22.1469923 132.838706,21.879877 C133.156357,21.6127617 133.315182,21.2481853 133.315182,20.786148 C133.315182,20.309672 133.141918,19.9450957 132.79539,19.692419 C132.448862,19.4397423 131.936289,19.2123333 131.257672,19.010192 C130.405791,18.750296 129.738002,18.4109873 129.254307,17.992266 C128.770612,17.5735447 128.528764,16.9599013 128.528764,16.151336 C128.528764,15.7759307 128.600957,15.4221833 128.745344,15.090094 C128.889731,14.7580047 129.091872,14.4692313 129.351768,14.223774 C129.611664,13.9783167 129.929315,13.7833947 130.30472,13.639008 C130.680125,13.4946213 131.098847,13.422428 131.560884,13.422428 C132.138431,13.422428 132.68349,13.498231 133.196063,13.649837 C133.708636,13.801443 134.109309,13.963878 134.398082,14.137142 C134.412521,14.2526513 134.426959,14.3934283 134.441398,14.559473 C134.455837,14.7255177 134.466666,14.8987817 134.473885,15.079265 C134.481104,15.2597483 134.488324,15.4402317 134.495543,15.620715 C134.502762,15.8011983 134.506372,15.9636333 134.506372,16.10802 L134.008238,16.086362 Z" id="Path" fill="#FFFFFF" fill-rule="nonzero"></path>
        <path d="M143.602732,27.998262 C143.487223,28.0271393 143.389762,28.041578 143.310349,28.041578 C143.230936,28.041578 143.155133,28.041578 143.08294,28.041578 C142.837483,28.041578 142.675048,28.0054813 142.595635,27.933288 C142.516222,27.8610947 142.476516,27.7744627 142.476516,27.673392 L142.476516,7.704716 C142.664219,7.6614 142.837483,7.639742 142.996308,7.639742 C143.241765,7.639742 143.4042,7.67944833 143.483613,7.758861 C143.563026,7.83827367 143.602732,7.92851533 143.602732,8.029586 L143.602732,27.998262 Z" id="Path" fill="#FFFFFF" fill-rule="nonzero"></path>
        <path d="M159.607994,17.667396 L154.77826,17.667396 L153.392148,21.154334 C153.319955,21.327598 153.283858,21.4719847 153.283858,21.587494 C153.283858,21.890706 153.724237,22.107286 154.604996,22.237234 C154.706067,22.2516727 154.77465,22.291379 154.810747,22.356353 C154.846844,22.421327 154.864892,22.49713 154.864892,22.583762 C154.864892,22.670394 154.850453,22.7859033 154.821576,22.93029 C154.431732,22.9014127 154.02023,22.876145 153.58707,22.854487 C153.15391,22.832829 152.727969,22.822 152.309248,22.822 C152.020475,22.822 151.724482,22.8292193 151.42127,22.843658 C151.118058,22.8580967 150.800407,22.886974 150.468318,22.93029 C150.439441,22.8147807 150.425002,22.6992713 150.425002,22.583762 C150.425002,22.4826913 150.44305,22.3960593 150.479147,22.323866 C150.515244,22.2516727 150.591047,22.2083567 150.706556,22.193918 C151.154155,22.1217247 151.489854,22.031483 151.713653,21.923193 C151.937452,21.814903 152.099887,21.6452487 152.200958,21.41423 L157.420536,8.85259 C157.521607,8.60713267 157.658774,8.484404 157.832038,8.484404 C157.889793,8.484404 157.976425,8.49884267 158.091934,8.52772 L163.33317,21.479204 C163.419802,21.6813453 163.614724,21.8401707 163.917936,21.95568 C164.221148,22.0711893 164.517141,22.150602 164.805914,22.193918 C164.892546,22.2227953 164.96113,22.2625017 165.011665,22.313037 C165.0622,22.3635723 165.087468,22.453814 165.087468,22.583762 C165.087468,22.670394 165.073029,22.7859033 165.044152,22.93029 C164.582115,22.9014127 164.127297,22.876145 163.679698,22.854487 C163.232099,22.832829 162.813378,22.822 162.423534,22.822 C162.019251,22.822 161.557214,22.832829 161.037422,22.854487 C160.51763,22.876145 160.048373,22.9014127 159.629652,22.93029 C159.600775,22.7859033 159.586336,22.670394 159.586336,22.583762 C159.586336,22.453814 159.611604,22.3635723 159.662139,22.313037 C159.712674,22.2625017 159.7596,22.237234 159.802916,22.237234 C160.178321,22.1650407 160.481533,22.0820183 160.712552,21.988167 C160.943571,21.8943157 161.05908,21.7535387 161.05908,21.565836 C161.05908,21.479204 161.030203,21.370914 160.972448,21.240966 L159.607994,17.667396 Z M159.261466,16.779418 L157.247272,11.473208 L155.146446,16.779418 L159.261466,16.779418 Z" id="Shape" fill="#FFFFFF" fill-rule="nonzero"></path>
        <path d="M167.946324,10.282018 C167.946324,9.99324467 167.834424,9.79110333 167.610625,9.675594 C167.386826,9.56008467 166.986153,9.45179467 166.408606,9.350724 C166.307535,9.32184667 166.246171,9.28214033 166.224513,9.231605 C166.202855,9.18106967 166.192026,9.09804733 166.192026,8.982538 C166.192026,8.895906 166.206465,8.78039667 166.235342,8.63601 C166.711818,8.66488733 167.173855,8.690155 167.621454,8.711813 C168.069053,8.733471 168.494993,8.7443 168.899276,8.7443 L173.18756,8.7443 C173.750668,8.7443 174.284899,8.722642 174.790252,8.679326 C175.295605,8.63601 175.642133,8.614352 175.829836,8.614352 C176.0031,8.614352 176.125829,8.733471 176.198022,8.971709 C176.270215,9.209947 176.32797,9.49511067 176.371286,9.8272 C176.414602,10.1592893 176.465137,10.509427 176.522892,10.877613 C176.580647,11.245799 176.681717,11.5670593 176.826104,11.841394 C176.782788,11.8991487 176.725033,11.938855 176.65284,11.960513 C176.580647,11.982171 176.508453,11.993 176.43626,11.993 C176.262996,11.993 176.147487,11.928026 176.089732,11.798078 C175.916468,11.408234 175.746814,11.0761447 175.580769,10.80181 C175.414724,10.5274753 175.227022,10.303676 175.017661,10.130412 C174.8083,9.957148 174.559233,9.83080967 174.27046,9.751397 C173.981687,9.67198433 173.62072,9.632278 173.18756,9.632278 L169.982176,9.632278 L169.982176,15.393306 L173.209218,15.393306 C173.497991,15.393306 173.703742,15.252529 173.826471,14.970975 C173.9492,14.689421 174.046661,14.353722 174.118854,13.963878 C174.16217,13.7761753 174.292118,13.682324 174.508698,13.682324 C174.624207,13.682324 174.739717,13.6967627 174.855226,13.72564 C174.826349,14.0432907 174.801081,14.407867 174.779423,14.819369 C174.757765,15.230871 174.746936,15.588228 174.746936,15.89144 C174.746936,16.1368973 174.754155,16.43289 174.768594,16.779418 C174.783033,17.125946 174.81191,17.5230093 174.855226,17.970608 C174.739717,17.9994853 174.631427,18.013924 174.530356,18.013924 C174.414847,18.013924 174.320995,17.9958757 174.248802,17.959779 C174.176609,17.9236823 174.133293,17.8478793 174.118854,17.73237 C174.061099,17.3569647 173.967248,17.0248753 173.8373,16.736102 C173.707352,16.4473287 173.497991,16.302942 173.209218,16.302942 L169.982176,16.302942 L169.982176,21.327598 C169.982176,21.6163713 170.166269,21.814903 170.534455,21.923193 C170.902641,22.031483 171.353849,22.1217247 171.88808,22.193918 C172.061344,22.2083567 172.147976,22.3310853 172.147976,22.562104 C172.147976,22.6631747 172.133537,22.7859033 172.10466,22.93029 C171.801448,22.9158513 171.476578,22.9014127 171.13005,22.886974 C170.841277,22.8725353 170.505578,22.8580967 170.122953,22.843658 C169.740328,22.8292193 169.339655,22.822 168.920934,22.822 C168.53109,22.822 168.090711,22.832829 167.599796,22.854487 C167.108881,22.876145 166.654063,22.9014127 166.235342,22.93029 C166.206465,22.7859033 166.192026,22.670394 166.192026,22.583762 C166.192026,22.367182 166.264219,22.2516727 166.408606,22.237234 C166.885082,22.1217247 167.260487,22.009825 167.534822,21.901535 C167.809157,21.793245 167.946324,21.5947133 167.946324,21.30594 L167.946324,10.282018 Z" id="Path" fill="#FFFFFF" fill-rule="nonzero"></path>
        <path d="M177.581968,15.78315 C177.581968,14.786882 177.762452,13.8483687 178.123418,12.96761 C178.484385,12.0868513 178.9753,11.3143827 179.596162,10.650204 C180.217025,9.98602533 180.938958,9.459014 181.761962,9.06917 C182.584966,8.679326 183.451286,8.484404 184.360922,8.484404 C185.617086,8.484404 186.714425,8.68293567 187.652938,9.079999 C188.591452,9.47706233 189.36753,10.011293 189.981173,10.682691 C190.594817,11.354089 191.053244,12.1301673 191.356456,13.010926 C191.659668,13.8916847 191.811274,14.8157593 191.811274,15.78315 C191.811274,16.9238047 191.623572,17.9453403 191.248166,18.847757 C190.872761,19.7501737 190.356579,20.515423 189.699619,21.143505 C189.04266,21.771587 188.270191,22.2516727 187.382213,22.583762 C186.494235,22.9158513 185.544893,23.081896 184.534186,23.081896 C183.509041,23.081896 182.570528,22.908632 181.718646,22.562104 C180.866765,22.215576 180.134003,21.7210517 179.520359,21.078531 C178.906716,20.4360103 178.43024,19.6671513 178.090931,18.771954 C177.751623,17.8767567 177.581968,16.8804887 177.581968,15.78315 Z M185.03232,22.042312 C185.710938,22.042312 186.3318,21.912364 186.894908,21.652468 C187.458016,21.392572 187.941712,21.0316053 188.345994,20.569568 C188.750277,20.1075307 189.064318,19.5588613 189.288117,18.92356 C189.511917,18.2882587 189.623816,17.5952027 189.623816,16.844392 C189.623816,15.804808 189.515526,14.841027 189.298946,13.953049 C189.082366,13.065071 188.753887,12.2926023 188.313507,11.635643 C187.873128,10.9786837 187.317239,10.4625013 186.645841,10.087096 C185.974443,9.71169067 185.191146,9.523988 184.295948,9.523988 C183.703963,9.523988 183.137245,9.63588767 182.595795,9.859687 C182.054345,10.0834863 181.577869,10.4083563 181.166367,10.834297 C180.754865,11.2602377 180.426386,11.7836393 180.180928,12.404502 C179.935471,13.0253647 179.812742,13.7400787 179.812742,14.548644 C179.812742,15.6171053 179.928252,16.6097637 180.15927,17.526619 C180.390289,18.4434743 180.725988,19.237601 181.166367,19.908999 C181.606747,20.580397 182.151806,21.1037987 182.801546,21.479204 C183.451286,21.8546093 184.194878,22.042312 185.03232,22.042312 Z" id="Shape" fill="#FFFFFF" fill-rule="nonzero"></path>
    </g>
</svg>