<?xml version="1.0" encoding="UTF-8"?>
<svg width="280px" height="26px" viewBox="0 0 280 26" version="1.1" xmlns="http://www.w3.org/2000/svg" xmlns:xlink="http://www.w3.org/1999/xlink">
    <title>afo-tagline</title>
    <defs>
        <polygon id="path-1" points="0 0 16.1757493 0 16.1757493 18.228448 0 18.228448"></polygon>
    </defs>
    <g id="Page-1" stroke="none" stroke-width="1" fill="none" fill-rule="evenodd">
        <g id="afo-tagline">
            <g id="Group-3" transform="translate(0.000000, 1.244480)">
                <mask id="mask-2" fill="white">
                    <use xlink:href="#path-1"></use>
                </mask>
                <g id="Clip-2"></g>
                <path d="M6.73054152,10.1518093 L2.10488256,1.85389284 C1.9199947,1.57729562 1.68940421,1.36984771 1.41241865,1.2315491 C1.13543308,1.092559 0.75665532,0.986760568 0.276777827,0.913462306 C0.183987662,0.894791994 0.114741271,0.83947255 0.0690386523,0.746812483 C0.0219511061,0.655535402 -0.000207739175,0.544205022 -0.000207739175,0.415587317 L-0.000207739175,0.290427077 C-0.000207739175,0.244788536 0.00879429172,0.203298954 0.0274908174,0.166649823 C0.0274908174,0.110638886 0.0364928483,0.0553194432 0.0544969101,0 C0.460973228,0.0373406242 0.978243773,0.069840797 1.60630854,0.0975005186 C2.23368085,0.12516024 2.8430491,0.138990101 3.43441328,0.138990101 C3.65600173,0.138990101 3.91429077,0.134841143 4.2092804,0.12516024 C4.50496249,0.115479338 4.81033908,0.107181421 5.12402523,0.0975005186 C5.43771139,0.0878196161 5.73754826,0.0746812483 6.02353586,0.0553194432 C6.31021592,0.0373406242 6.55465568,0.0193618051 6.75824007,0 C6.75824007,0.0746812483 6.7672421,0.138990101 6.78593863,0.194309544 C6.78593863,0.249628987 6.79009341,0.295267528 6.79978791,0.332608152 C6.80878994,0.369948776 6.81363719,0.405906414 6.81363719,0.443247039 C6.81363719,0.553194432 6.79009341,0.655535402 6.74439079,0.746812483 C6.69799571,0.83947255 6.62874932,0.894791994 6.53665162,0.913462306 C6.00068455,0.986760568 5.62675404,1.07458018 5.41486008,1.17622966 C5.20227366,1.27718764 5.09632668,1.4203267 5.09632668,1.60495535 C5.09632668,1.75293486 5.16072582,1.9271911 5.29021657,2.12979856 L8.72483759,8.3255762 L11.9655687,2.57235411 C12.1497641,2.24112894 12.2425543,1.98320204 12.2425543,1.7985734 C12.2425543,1.55862531 12.1179108,1.37468816 11.8686238,1.24468747 C11.6193368,1.11676126 11.2267097,1.00543088 10.6914351,0.913462306 C10.4878507,0.894791994 10.386751,0.738514567 10.386751,0.443247039 C10.386751,0.350586971 10.395753,0.267607806 10.4144495,0.194309544 C10.4144495,0.138990101 10.4234516,0.0746812483 10.4414556,0 C10.847932,0.0373406242 11.3236547,0.069840797 11.8686238,0.0975005186 C12.4129004,0.12516024 12.9163217,0.138990101 13.3781951,0.138990101 C13.8026755,0.138990101 14.2500072,0.12516024 14.7215751,0.0975005186 C15.1924506,0.069840797 15.6584788,0.0373406242 16.1203522,0 C16.1203522,0.0746812483 16.1293542,0.138990101 16.1480508,0.194309544 C16.1480508,0.249628987 16.1522055,0.295267528 16.1619,0.332608152 C16.1709021,0.369948776 16.1757493,0.405906414 16.1757493,0.443247039 C16.1757493,0.701173942 16.0739571,0.858142862 15.8710652,0.913462306 C15.2243039,1.00543088 14.7672777,1.12021872 14.4999866,1.25920883 C14.2320031,1.39750743 14.0055674,1.63261507 13.821372,1.96384023 L9.33420584,9.90287182 L9.33420584,16.0986495 C9.33420584,16.5045559 9.48585544,16.7859935 9.79123202,16.9415795 C10.0952237,17.0992399 10.6083394,17.2320066 11.3285019,17.3426454 C11.5313938,17.3799861 11.633186,17.5272741 11.633186,17.785201 C11.633186,17.8232331 11.6283388,17.8681801 11.6193368,17.9234996 C11.6096423,17.978819 11.6054875,18.0258406 11.6054875,18.0617982 C11.586791,18.135788 11.5777889,18.1911074 11.5777889,18.228448 C11.1339196,18.2090862 10.7004371,18.1911074 10.2759568,18.1731286 C9.90618103,18.1537668 9.51424646,18.135788 9.09876811,18.1178091 C8.68328976,18.0991388 8.31836127,18.0894579 8.00467512,18.0894579 C7.6902965,18.0894579 7.33021527,18.0991388 6.92443141,18.1178091 C6.51795509,18.135788 6.1301753,18.1537668 5.76109204,18.1731286 C5.33591919,18.1911074 4.91143881,18.2090862 4.48695843,18.228448 C4.46826191,18.1911074 4.45925987,18.135788 4.45925987,18.0617982 C4.44056335,18.0258406 4.43156132,17.978819 4.43156132,17.9234996 L4.43156132,17.785201 C4.43156132,17.5272741 4.52296655,17.3799861 4.70854688,17.3426454 C5.42870936,17.1960489 5.94528744,17.0522184 6.25966605,16.9139198 C6.57335221,16.7756211 6.73054152,16.5045559 6.73054152,16.0986495 L6.73054152,10.1518093 Z" id="Fill-1" fill="#FFFFFF" mask="url(#mask-2)"></path>
            </g>
            <path d="M16.5914354,12.6131096 C16.5914354,13.2949218 16.6641441,13.9960957 16.8123314,14.7152485 C16.9598262,15.4344012 17.1862619,16.0844047 17.4916385,16.6645674 C17.7956302,17.246113 18.1882572,17.7260092 18.6688272,18.1028729 C19.1480122,18.4811196 19.7296819,18.6705887 20.4138362,18.6705887 C21.4663814,18.6705887 22.2834888,18.3020229 22.8651585,17.5641998 C23.4461357,16.8270682 23.7369705,15.8769568 23.7369705,14.7152485 C23.7369705,14.0334363 23.6684166,13.3184325 23.5299238,12.5709286 C23.3907386,11.8241161 23.1698426,11.1423039 22.8651585,10.5241092 C22.5597819,9.90729738 22.1630001,9.39559253 21.6741205,8.98968612 C21.1845486,8.58447119 20.5800276,8.38117224 19.8598651,8.38117224 C18.8807211,8.38117224 18.0913122,8.71723786 17.4916385,9.39075208 C16.8912723,10.0635748 16.5914354,11.1374635 16.5914354,12.6131096 M13.9870786,13.525189 C13.9870786,12.67811 14.1491152,11.8759781 14.4718034,11.1194847 C14.795184,10.3636828 15.2342061,9.70883888 15.7881773,9.15564444 C16.3421484,8.60245001 16.992372,8.16404343 17.740233,7.84180767 C18.4880941,7.51957191 19.2961995,7.35707105 20.1638567,7.35707105 C21.0689071,7.35707105 21.8998638,7.50989101 22.6574193,7.81414795 C23.4142824,8.11840489 24.0651984,8.53744967 24.6094751,9.07266528 C25.1544442,9.6071894 25.5789246,10.2578844 25.8843012,11.0226757 C26.1882928,11.7881584 26.3406349,12.6227905 26.3406349,13.525189 C26.3406349,14.3923212 26.1792908,15.1992936 25.8566026,15.9454146 C25.5332219,16.6922271 25.0941998,17.342922 24.5402287,17.8961165 C23.98695,18.4486194 23.3353415,18.887026 22.5874805,19.2099532 C21.8396194,19.532189 21.0322065,19.6939984 20.1638567,19.6939984 C19.2594989,19.6939984 18.4278497,19.5418699 17.6716791,19.237613 C16.9141236,18.933356 16.262515,18.5136198 15.7182384,17.9790956 C15.1739618,17.44388 14.7494814,16.7994085 14.4441048,16.0429151 C14.1401131,15.2864217 13.9870786,14.4476407 13.9870786,13.525189" id="Fill-4" fill="#FFFFFF"></path>
            <path d="M29.8030237,10.234097 C29.8030237,9.62558311 29.7150808,9.21552774 29.5398874,9.00323938 C29.3640016,8.79164251 28.9623725,8.65749286 28.3350002,8.60286491 C28.0947152,8.56552428 27.974919,8.44589599 27.974919,8.24259704 C27.974919,8.13195815 27.9936155,8.00334044 28.0303161,7.85605243 C28.2699086,7.85605243 28.588442,7.84153107 28.9859163,7.81387135 C29.3833906,7.78621163 29.719928,7.74472205 29.9969136,7.6894026 C30.4026974,7.63408316 30.7586239,7.56562535 31.063308,7.48264618 C31.3679921,7.39897553 31.5937354,7.35748594 31.7419227,7.35748594 C32.0002117,7.35748594 32.1297024,7.49578455 32.1297024,7.77238177 L32.1297024,14.6873122 C32.1297024,15.148538 32.157401,15.5724233 32.2127981,15.9596594 C32.2688877,16.3468955 32.369295,16.6836526 32.5174822,16.9692392 C32.6649771,17.2555173 32.8775635,17.4767951 33.154549,17.6330725 C33.4315346,17.7900414 33.7819213,17.8681801 34.2070942,17.8681801 C34.6682752,17.8681801 35.1211466,17.7900414 35.5643235,17.6330725 C36.0075004,17.4767951 36.3994349,17.2465279 36.7422046,16.9415795 C37.0835893,16.6373225 37.3550352,16.2639163 37.5586195,15.8213608 C37.7615115,15.3788052 37.8639961,14.8629514 37.8639961,14.2724163 L37.8639961,10.234097 C37.8639961,9.64425343 37.7760532,9.23903851 37.6001674,9.01706924 C37.424974,8.79579147 37.0136504,8.65749286 36.3675816,8.60286491 C36.1272966,8.56552428 36.0075004,8.44589599 36.0075004,8.24259704 C36.0075004,8.13195815 36.0255044,8.00334044 36.0628975,7.85605243 C36.3031825,7.85605243 36.6217159,7.84153107 37.0184977,7.81387135 C37.4152795,7.78621163 37.7615115,7.74472205 38.0571936,7.6894026 C38.4692096,7.63408316 38.8237511,7.56562535 39.123588,7.48264618 C39.4227324,7.39897553 39.6477832,7.35748594 39.7973554,7.35748594 C40.0591067,7.35748594 40.1899824,7.49578455 40.1899824,7.77238177 L40.1899824,16.7617913 C40.1899824,17.0757291 40.2079865,17.3288156 40.2453795,17.5224336 C40.2820801,17.7160517 40.3561738,17.8730206 40.466968,17.9926489 C40.5784547,18.1129687 40.7301043,18.2049373 40.9246866,18.2692461 C41.1178841,18.3342465 41.3713259,18.375736 41.6857045,18.3937149 C41.9259895,18.4310555 42.0457857,18.5506838 42.0457857,18.7532912 C42.0457857,18.8639301 42.0270892,18.9932393 41.9910811,19.1405273 C41.6400019,19.1405273 41.2709186,19.1681871 40.8824463,19.2235065 C40.4946665,19.278826 40.1235059,19.3341454 39.7689644,19.3894648 C39.4144228,19.4447843 39.1014291,19.5001037 38.8299833,19.5554232 C38.5599224,19.6114341 38.3674174,19.6390938 38.2559307,19.6390938 C37.9941793,19.6390938 37.8639961,19.5001037 37.8639961,19.2235065 L37.8639961,16.9284411 C37.808599,16.9830691 37.6507172,17.1587083 37.3924282,17.4532843 C37.1334467,17.7485519 36.7976017,18.0617982 36.3814309,18.3937149 C35.9659525,18.7256315 35.4853826,19.0257395 34.9411059,19.2933473 C34.3961368,19.5595721 33.8096199,19.6944133 33.1822476,19.6944133 C32.0556088,19.6944133 31.2108028,19.3707945 30.6478297,18.7256315 C30.084164,18.0804685 29.8030237,17.1676977 29.8030237,15.9873191 L29.8030237,10.234097 Z" id="Fill-6" fill="#FFFFFF"></path>
            <path d="M51.712305,7.38507652 C52.2475796,7.38507652 52.6443614,7.51438571 52.9033429,7.77300411 C53.161632,8.03093102 53.2911227,8.31720913 53.2911227,8.63045548 C53.2911227,8.74040287 53.2724262,8.84205235 53.2357256,8.93402093 C53.1983325,9.02668099 53.1110821,9.12349002 52.9725893,9.224448 C52.8340965,9.32678897 52.6402066,9.44572578 52.3902272,9.58471588 C52.1416326,9.72232299 51.7954007,9.89312177 51.3515313,10.0957292 C51.1860324,9.89312177 50.9872953,9.71817403 50.7567048,9.57019452 C50.5254218,9.4229065 50.27198,9.34891675 49.9949945,9.34891675 C49.6806159,9.34891675 49.3946283,9.43673637 49.1363392,9.6123756 C48.8773577,9.78732334 48.6557693,10.0265799 48.4715739,10.3315284 C48.286686,10.6350938 48.143346,10.9856808 48.0422462,11.3819063 C47.940454,11.7788233 47.8892117,12.1888787 47.8892117,12.6134554 L47.8892117,17.370236 C47.8892117,17.7761424 48.1017981,18.0755589 48.5262785,18.269177 C48.9514514,18.4634865 49.5608196,18.6149235 50.3550757,18.7255624 C50.5392711,18.762903 50.6313688,18.8735419 50.6313688,19.057479 C50.6313688,19.1681179 50.6133648,19.3160974 50.5766642,19.5007261 C50.3730798,19.4813643 50.119638,19.4682259 49.8149539,19.458545 C49.5102697,19.4488641 49.1917363,19.4357257 48.8593537,19.4170554 C48.5262785,19.3983851 48.1842013,19.3852467 47.8310447,19.3755658 C47.4778881,19.3658849 47.1517376,19.361736 46.8519008,19.361736 C46.347787,19.361736 45.8270542,19.3755658 45.2897022,19.4032255 C44.7516577,19.4308853 44.2426967,19.4633854 43.7628192,19.5007261 C43.7254262,19.3160974 43.7067297,19.1681179 43.7067297,19.057479 C43.7067297,18.8735419 43.7905178,18.762903 43.9567091,18.7255624 C44.3811895,18.6522641 44.75512,18.5416252 45.0785007,18.3936457 C45.4011889,18.2463577 45.5632254,18.0340693 45.5632254,17.7574721 L45.5632254,10.7319028 C45.5632254,10.3446667 45.5396816,10.022431 45.493979,9.76381257 C45.4475839,9.50588567 45.3693355,9.29912925 45.2585413,9.14146884 C45.1477471,8.98519141 44.9857105,8.86971207 44.7731241,8.79572232 C44.5612301,8.72242406 44.2890918,8.66710461 43.9567091,8.63045548 C43.7164242,8.59311486 43.5966279,8.47348656 43.5966279,8.27018761 C43.5966279,8.15954872 43.614632,8.03093102 43.652025,7.883643 C43.8916175,7.883643 44.2288475,7.86912164 44.6630223,7.84146192 C45.0965047,7.8138022 45.4531237,7.78199352 45.7314941,7.74534439 C46.1428177,7.67135463 46.502899,7.59321592 46.8103529,7.51023676 C47.1184994,7.42725759 47.3470125,7.38507652 47.4972771,7.38507652 C47.758336,7.38507652 47.8892117,7.52337512 47.8892117,7.80066383 L47.8892117,9.65317369 C48.4805759,9.00870217 49.0760949,8.46864611 49.6764611,8.03507997 C50.2761348,7.60220533 50.9547495,7.38507652 51.712305,7.38507652" id="Fill-8" fill="#FFFFFF"></path>
            <path d="M69.3282408,9.90252608 C68.8663673,9.4233214 68.3587913,9.04507471 67.8048201,8.767786 C67.250849,8.49188028 66.6227842,8.35358167 65.9213183,8.35358167 C64.8500766,8.35358167 64.0419712,8.79544572 63.4976946,9.6812483 C62.9527255,10.5663594 62.6805872,11.700408 62.6805872,13.0833941 C62.6805872,13.7838765 62.7588356,14.4525503 62.9160249,15.0887239 C63.0725217,15.7248975 63.3038047,16.2829324 63.6084888,16.762137 C63.9131729,17.2413417 64.2822562,17.6195884 64.7164311,17.8961856 C65.1499135,18.1727828 65.6346382,18.3110814 66.1706053,18.3110814 C66.5396886,18.3110814 66.9087718,18.2004426 67.2785476,17.9791648 C67.6476308,17.7571955 67.9848608,17.4764493 68.2895449,17.1355433 C68.594229,16.7946372 68.843516,16.4067096 69.0374059,15.9731435 C69.2312958,15.5402688 69.3282408,15.1115431 69.3282408,14.6876579 L69.3282408,9.90252608 Z M71.6549195,16.9004356 C71.6549195,17.1210219 71.673616,17.3111825 71.7103166,17.4667684 C71.7470172,17.6244289 71.8211109,17.7571955 71.9319051,17.8685259 C72.0426993,17.9791648 72.1950414,18.0669844 72.3889313,18.1306018 C72.5828212,18.1956021 72.836263,18.2460811 73.1506416,18.2834217 C73.3902341,18.3207623 73.5107228,18.4403906 73.5107228,18.6429981 C73.5107228,18.753637 73.4920263,18.8822547 73.4553257,19.0295427 C73.2150407,19.0295427 72.8965073,19.0440641 72.4997255,19.0717238 C72.1022512,19.0993835 71.7657137,19.1318837 71.4887282,19.1678413 C71.0767121,19.2425226 70.7173234,19.3206613 70.4084845,19.402949 C70.0989531,19.4859281 69.87044,19.5281092 69.7208678,19.5281092 C69.458424,19.5281092 69.3282408,19.3898106 69.3282408,19.1125219 L69.3282408,17.010383 C69.0692593,17.36097 68.8109702,17.6977271 68.5526812,18.0199629 C68.2936997,18.3435816 67.9938628,18.6291682 67.6524781,18.8774142 C67.3104009,19.1270432 66.9184663,19.3255017 66.4752894,19.4727897 C66.0321125,19.6200778 65.4961454,19.6940675 64.8687731,19.6940675 C64.2407084,19.6940675 63.6403422,19.5647583 63.068367,19.3068314 C62.4956993,19.0489045 61.9881233,18.6665089 61.5449463,18.1582615 C61.1017694,17.6520886 60.745843,17.0297448 60.4785519,16.2912303 C60.2105684,15.5547902 60.0769228,14.7153176 60.0769228,13.7748871 C60.0769228,12.7611583 60.2708127,11.851845 60.6585925,11.0504045 C61.0463723,10.2482726 61.5262498,9.57475838 62.0989175,9.03055335 C62.6715851,8.48703982 63.2941102,8.07283549 63.9685701,7.78586588 C64.6423374,7.50027926 65.265555,7.3571402 65.8382226,7.3571402 C66.5396886,7.3571402 67.1629061,7.42698099 67.7078752,7.5652796 C68.2521518,7.70288672 68.7929661,7.8833664 69.3282408,8.10395268 L69.3282408,2.87695679 C69.3282408,2.32376236 69.2312958,1.9323773 69.0374059,1.70141862 C68.843516,1.47115144 68.4231904,1.32801238 67.7771216,1.27269294 C67.5368366,1.23604381 67.4170403,1.10604312 67.4170403,0.885456838 C67.4170403,0.774817951 67.4357369,0.645508753 67.4724375,0.497529242 C67.71203,0.497529242 68.0492599,0.484390874 68.4834348,0.456731153 C68.9169172,0.429071431 69.2735361,0.397262751 69.5525991,0.359230634 C69.9812342,0.304602684 70.3641668,0.231304422 70.7000118,0.138644354 C71.0365492,0.0459842872 71.2789116,0.00034574652 71.4291763,0.00034574652 C71.6902352,0.00034574652 71.8211109,0.138644354 71.8211109,0.414550077 C71.8211109,0.728487917 71.7934123,1.08875579 71.7380152,1.49397071 C71.6826181,1.89987713 71.6549195,2.39706062 71.6549195,2.98759568 L71.6549195,16.9004356 Z" id="Fill-10" fill="#FFFFFF"></path>
            <path d="M76.5571486,2.73845074 C76.5571486,2.29589519 76.7101831,1.91349954 77.0141747,1.59057229 C77.3195513,1.26833653 77.7017914,1.10652716 78.1636648,1.10652716 C78.6068417,1.10652716 78.975925,1.26833653 79.2716071,1.59057229 C79.5672892,1.91349954 79.7154765,2.29589519 79.7154765,2.73845074 C79.7154765,3.21765541 79.5672892,3.60558301 79.2716071,3.90015904 C78.975925,4.19473508 78.6068417,4.34271459 78.1636648,4.34271459 C77.7017914,4.34271459 77.3195513,4.19473508 77.0141747,3.90015904 C76.7101831,3.60558301 76.5571486,3.21765541 76.5571486,2.73845074 M78.1782066,19.3619434 C77.8603656,19.3619434 77.5383699,19.3660924 77.2122194,19.3757733 C76.8867614,19.3847627 76.5848471,19.3985925 76.308554,19.4172629 C76.030876,19.4352417 75.7912835,19.453912 75.5883915,19.4725823 C75.3848071,19.4912526 75.2553164,19.500242 75.1999193,19.500242 C75.1999193,19.4815717 75.1902248,19.4172629 75.1722207,19.306624 C75.1542167,19.1959851 75.1445222,19.1130059 75.1445222,19.0576865 C75.1445222,18.8737493 75.2276178,18.7631104 75.3938092,18.7257698 C75.8743791,18.6338012 76.2614665,18.5231624 76.5571486,18.3938532 C76.8528306,18.2652355 77.0010179,18.0522556 77.0010179,17.7576796 L77.0010179,10.2342353 C77.0010179,9.68104086 76.9033805,9.28481534 76.7101831,9.04486726 C76.5156007,8.80491918 76.0959676,8.65763116 75.4492063,8.60231171 C75.2096138,8.56566258 75.0898175,8.43635338 75.0898175,8.21507561 C75.0898175,8.12310704 75.1071291,8.00347874 75.1445222,7.85549923 C75.3848071,7.85549923 75.7220371,7.84166937 76.1555195,7.81400965 C76.5896944,7.78634993 76.9463133,7.75454125 77.2246838,7.71720062 C77.6540114,7.64390236 78.0369439,7.56507215 78.3727889,7.48209299 C78.7086339,7.39911383 78.9516888,7.35762424 79.101261,7.35762424 C79.3630123,7.35762424 79.4931956,7.49592285 79.4931956,7.77252007 C79.4931956,8.03044697 79.465497,8.33954436 79.4100999,8.69912074 C79.3547028,9.05869712 79.3270042,9.53375284 79.3270042,10.1235964 L79.3270042,17.7576796 C79.3270042,18.0522556 79.4703442,18.2652355 79.7563318,18.3938532 C80.0423194,18.5231624 80.4439485,18.6338012 80.9612191,18.7257698 C81.1087139,18.7631104 81.1835,18.8737493 81.1835,19.0576865 C81.1835,19.1130059 81.1786527,19.1959851 81.1689582,19.306624 C81.1592637,19.4172629 81.1461069,19.4815717 81.1281029,19.500242 C81.0727057,19.500242 80.9480622,19.4912526 80.7541723,19.4725823 C80.55959,19.453912 80.3241523,19.4352417 80.0471667,19.4172629 C79.7708736,19.3985925 79.4689593,19.3847627 79.1428088,19.3757733 C78.8173508,19.3660924 78.4953551,19.3619434 78.1782066,19.3619434" id="Fill-12" fill="#FFFFFF"></path>
            <path d="M88.1910963,14.2169586 C88.8731733,14.2169586 89.4181424,13.9963723 89.8246187,13.5531253 C90.2304025,13.1105697 90.4339869,12.5027474 90.4339869,11.7275837 C90.4339869,11.3223687 90.3931315,10.9213028 90.3100359,10.5243858 C90.2262477,10.1281603 90.0829077,9.76858388 89.8800158,9.44634812 C89.6771239,9.12342087 89.4049855,8.86065351 89.0636008,8.65735456 C88.7215237,8.4547471 88.292196,8.35378912 87.7749255,8.35378912 C87.1288567,8.35378912 86.6164334,8.56538599 86.2383481,8.98927122 C85.8595703,9.41384795 85.6698352,9.99539359 85.6698352,10.7318337 C85.6698352,11.1564104 85.7120755,11.5761467 85.7944787,11.990351 C85.8775744,12.4059383 86.0160671,12.7793446 86.2106495,13.1105697 C86.4045394,13.4431779 86.6628284,13.7107857 86.9862091,13.9133932 C87.3088973,14.1160006 87.7105263,14.2169586 88.1910963,14.2169586 M85.0604669,19.1127293 C84.6179825,19.5366146 84.368003,20.0718302 84.3126059,20.7169932 C84.2946018,20.8642812 84.2849074,21.0122607 84.2849074,21.1595487 L84.2849074,21.6304555 C84.3036039,22.0170001 84.4047036,22.4049277 84.5902839,22.7914723 C84.7737869,23.1787084 85.0424629,23.5196145 85.3935421,23.8155735 C85.7439288,24.1101495 86.1781037,24.3494061 86.6953742,24.5347262 C87.2119523,24.7186634 87.8123185,24.810632 88.495088,24.810632 C89.7692216,24.810632 90.6971232,24.5291943 91.2794854,23.967702 C91.861155,23.4048266 92.1519899,22.7084931 92.1519899,21.8787015 C92.1519899,21.5281145 92.0772038,21.2051873 91.929709,20.9113027 C91.7822142,20.6160352 91.5329272,20.3622572 91.1818479,20.1499689 C90.8314612,19.9376805 90.3695878,19.7717222 89.7969201,19.6520939 C89.2242525,19.5324656 88.5137845,19.4729972 87.6641313,19.4729972 C87.1842538,19.4729972 86.7182256,19.4453375 86.2660466,19.3893265 C85.8124828,19.3340071 85.4108537,19.24273 85.0604669,19.1127293 M84.396394,18.7815042 C83.6021379,18.3209698 83.2053561,17.6571365 83.2053561,16.7900042 C83.2053561,15.868244 83.8147244,15.1117506 85.0327684,14.5212155 C84.5154978,14.2079692 84.1055592,13.7889244 83.8001826,13.2626982 C83.496191,12.7371635 83.3438489,12.0878515 83.3438489,11.3133793 C83.3438489,10.796834 83.4684924,10.298959 83.7170869,9.81975436 C83.966374,9.33985819 84.3036039,8.91597296 84.7287767,8.54740717 C85.1525646,8.17884138 85.6372894,7.8884143 86.1829509,7.67543444 C86.7272276,7.46383757 87.3047425,7.35734765 87.9141107,7.35734765 C88.8371651,7.35734765 89.5760241,7.46798653 90.1299953,7.6899558 C90.6839664,7.91123357 91.1638439,8.18713929 91.5703202,8.51974745 L94.3124773,7.32968792 C94.5153692,7.45968862 94.6628641,7.6304874 94.7549618,7.84139277 C94.8470595,8.05368114 94.894147,8.25213964 94.894147,8.43676828 C94.894147,8.8426747 94.7549618,9.04528216 94.4779762,9.04528216 L93.4815206,9.01693094 C93.1304414,9.01693094 92.705961,9.07294188 92.207387,9.18358076 C92.6498714,9.75475401 92.8721524,10.455928 92.8721524,11.2857196 C92.8721524,11.8568929 92.7419691,12.3831191 92.4836801,12.8616322 C92.2253911,13.3415284 91.8743119,13.7515838 91.4318274,14.0924899 C90.9879581,14.4340874 90.4616855,14.7010037 89.8523172,14.8946218 C89.2436415,15.0889313 88.5968802,15.1850489 87.9141107,15.1850489 C87.5256385,15.1850489 87.1565552,15.1622296 86.8061685,15.116591 C86.4543968,15.070261 86.1227066,14.9914308 85.8090204,14.8807919 C85.3284505,15.1020697 84.9960678,15.324039 84.8111799,15.5453167 C84.6269845,15.765903 84.5348868,15.9781914 84.5348868,16.1814903 C84.5348868,16.3287783 84.5805894,16.4719174 84.6733796,16.6095245 C84.7654773,16.7478231 84.9365159,16.8681429 85.1851104,16.9691009 C85.4350899,17.0707504 85.7847842,17.1537295 86.2383481,17.2187299 C86.690527,17.2837302 87.2673494,17.3148474 87.9695078,17.3148474 C88.8004645,17.3148474 89.5850262,17.3798478 90.3231927,17.509157 C91.0620517,17.6377747 91.7129678,17.850063 92.2759409,18.1453306 C92.8396066,18.4399066 93.2827835,18.8271427 93.6054717,19.3063474 C93.9288523,19.7862435 94.0908889,20.3670977 94.0908889,21.0496013 C94.0908889,21.8054032 93.9385468,22.4872154 93.6331702,23.0964207 C93.3291785,23.7049346 92.9040057,24.2256289 92.3597291,24.659195 C91.8140675,25.0920696 91.1589966,25.4239863 90.3931315,25.6542535 C89.6258815,25.8852122 88.79077,26 87.8864122,26 C86.1504051,26 84.7931759,25.6867537 83.8147244,25.060261 C82.8355804,24.4323853 82.3467009,23.4276459 82.3467009,22.0446598 C82.3467009,21.6387534 82.4104075,21.2653472 82.5405908,20.9244411 C82.6686966,20.583535 82.8314256,20.2751291 83.024623,19.9978404 C83.2185129,19.7212432 83.4407938,19.4812951 83.6900809,19.2786877 C83.9386754,19.0760802 84.1741131,18.9101219 84.396394,18.7815042" id="Fill-14" fill="#FFFFFF"></path>
            <path d="M97.5251636,2.73845074 C97.5251636,2.29589519 97.6775057,1.91349954 97.9821898,1.59057229 C98.286874,1.26833653 98.6698065,1.10652716 99.1316799,1.10652716 C99.5748568,1.10652716 99.9439401,1.26833653 100.239622,1.59057229 C100.534612,1.91349954 100.682799,2.29589519 100.682799,2.73845074 C100.682799,3.21765541 100.534612,3.60558301 100.239622,3.90015904 C99.9439401,4.19473508 99.5748568,4.34271459 99.1316799,4.34271459 C98.6698065,4.34271459 98.286874,4.19473508 97.9821898,3.90015904 C97.6775057,3.60558301 97.5251636,3.21765541 97.5251636,2.73845074 M99.1455292,19.3619434 C98.8276883,19.3619434 98.5056925,19.3660924 98.179542,19.3757733 C97.854084,19.3847627 97.5528622,19.3985925 97.2758766,19.4172629 C96.9988911,19.4352417 96.7586061,19.453912 96.5557142,19.4725823 C96.3521298,19.4912526 96.2233315,19.500242 96.1679344,19.500242 C96.1679344,19.4815717 96.1582399,19.4172629 96.1402358,19.306624 C96.1215393,19.1959851 96.1125373,19.1130059 96.1125373,19.0576865 C96.1125373,18.8737493 96.1956329,18.7631104 96.3618243,18.7257698 C96.8417018,18.6338012 97.2294816,18.5231624 97.5251636,18.3938532 C97.8201533,18.2652355 97.9683405,18.0522556 97.9683405,17.7576796 L97.9683405,10.2342353 C97.9683405,9.68104086 97.8713956,9.28481534 97.6775057,9.04486726 C97.4829233,8.80491918 97.0632902,8.65763116 96.4165289,8.60231171 C96.1769364,8.56566258 96.0571401,8.43635338 96.0571401,8.21507561 C96.0571401,8.12310704 96.0751442,8.00347874 96.1125373,7.85549923 C96.3521298,7.85549923 96.6893597,7.84166937 97.1235346,7.81400965 C97.557017,7.78634993 97.9143284,7.75454125 98.1926989,7.71720062 C98.6220265,7.64390236 99.0042666,7.56507215 99.340804,7.48209299 C99.6759566,7.39911383 99.9190114,7.35762424 100.069276,7.35762424 C100.330335,7.35762424 100.461211,7.49592285 100.461211,7.77252007 C100.461211,8.03044697 100.433512,8.33954436 100.378115,8.69912074 C100.322718,9.05869712 100.295019,9.53375284 100.295019,10.1235964 L100.295019,17.7576796 C100.295019,18.0522556 100.437667,18.2652355 100.724347,18.3938532 C101.010335,18.5231624 101.411964,18.6338012 101.929234,18.7257698 C102.076729,18.7631104 102.150823,18.8737493 102.150823,19.0576865 C102.150823,19.1130059 102.145975,19.1959851 102.136973,19.306624 C102.127279,19.4172629 102.11343,19.4815717 102.095425,19.500242 C102.040028,19.500242 101.915385,19.4912526 101.721495,19.4725823 C101.527605,19.453912 101.291475,19.4352417 101.015182,19.4172629 C100.738196,19.3985925 100.436282,19.3847627 100.110131,19.3757733 C99.7846734,19.3660924 99.4633701,19.3619434 99.1455292,19.3619434" id="Fill-16" fill="#FFFFFF"></path>
            <path d="M110.238386,17.7297432 C110.331176,17.6377747 110.409424,17.5824552 110.474516,17.5644764 C110.538915,17.5458061 110.589465,17.5368167 110.626858,17.5368167 C110.793049,17.5368167 110.940544,17.6571365 111.069342,17.8957016 C110.589465,18.4309172 110.072887,18.8644833 109.518223,19.1957085 C108.964252,19.5283166 108.37358,19.694275 107.745516,19.694275 C107.37574,19.694275 107.025353,19.6520939 106.693663,19.5691147 C106.360588,19.4861356 106.073908,19.3257092 105.835008,19.0850696 C105.594723,18.845813 105.40568,18.5187368 105.266495,18.1031495 C105.128002,17.6882537 105.059448,17.1488891 105.059448,16.4850558 L105.059448,8.85097261 L103.396842,8.85097261 L103.396842,8.54740717 C103.396842,8.41809797 103.419693,8.29777818 103.466781,8.18713929 C103.512484,8.07650041 103.609429,8.02118096 103.757616,8.02118096 C104.255497,8.02118096 104.661281,7.89256326 104.97566,7.63394486 C105.290039,7.37601796 105.548328,7.0441013 105.751912,6.63819488 C105.9735,6.19563934 106.166698,5.78143501 106.332889,5.39350741 C106.499773,5.0069628 106.683276,4.81265326 106.88686,4.81265326 L107.386127,4.81265326 L107.386127,7.6892643 L110.626858,7.6892643 C110.626858,8.07650041 110.584618,8.36692748 110.502214,8.56054553 C110.419119,8.75485508 110.266084,8.85097261 110.045188,8.85097261 L107.386127,8.85097261 L107.386127,15.7105836 C107.386127,16.3018101 107.413825,16.7754828 107.46853,17.1357507 C107.523927,17.4946356 107.607023,17.7719243 107.717817,17.9655424 C107.829304,18.1584689 107.958102,18.2836292 108.106289,18.3382571 C108.253784,18.3935766 108.419975,18.4212363 108.604863,18.4212363 C108.918549,18.4212363 109.209384,18.352087 109.476675,18.2137884 C109.744659,18.0754898 109.998101,17.9150634 110.238386,17.7297432" id="Fill-18" fill="#FFFFFF"></path>
            <path d="M119.600844,13.2215544 L118.70895,13.359853 C118.226303,13.452513 117.756813,13.5624604 117.301864,13.6917696 C116.846223,13.8210788 116.442516,14.000867 116.090052,14.2311342 C115.736895,14.4620929 115.453678,14.75252 115.239706,15.1024154 C115.026427,15.4530024 114.919095,15.8865685 114.919095,16.4024224 C114.919095,17.1029048 115.100521,17.6381204 115.46268,18.0066862 C115.824838,18.3759435 116.275632,18.5598806 116.814369,18.5598806 C117.166833,18.5598806 117.515143,18.4810504 117.858605,18.324773 C118.202759,18.1678041 118.499826,17.9472178 118.750498,17.6609397 C119.001863,17.3753531 119.20614,17.0385959 119.364021,16.6513598 C119.521903,16.2634323 119.600844,15.8402385 119.600844,15.3790127 L119.600844,13.2215544 Z M123.811025,18.6152001 C124.013917,18.6152001 124.124711,18.8088181 124.143407,19.1960542 C123.662837,19.5279709 123.053469,19.6939292 122.315303,19.6939292 C121.906749,19.6939292 121.5529,19.6337693 121.253755,19.514141 C120.953919,19.3938212 120.701862,19.2327034 120.4962,19.0294044 C120.289846,18.826797 120.131271,18.5965298 120.019092,18.3379114 C119.906221,18.0799845 119.831434,17.8130682 119.794041,17.5364709 C119.33286,18.3655711 118.783044,18.9332869 118.145977,19.2375438 C117.508911,19.5418008 116.775591,19.6939292 115.944635,19.6939292 C115.574859,19.6939292 115.182924,19.6614291 114.767446,19.5971202 C114.351968,19.5321199 113.95934,19.3986617 113.589565,19.1960542 C113.220481,18.9934468 112.915797,18.7078601 112.676205,18.3379114 C112.43592,17.9700371 112.315431,17.4811515 112.315431,16.8726376 C112.315431,16.1908255 112.477468,15.6141203 112.800848,15.143905 C113.123537,14.6736898 113.539015,14.2864537 114.046591,13.9821967 C114.554859,13.6779398 115.108831,13.4338427 115.709197,13.2492141 C116.308871,13.0645854 116.886385,12.908308 117.440357,12.7789988 C117.754043,12.7236794 118.044878,12.6635195 118.312861,12.5992106 C118.580152,12.5349018 118.81559,12.4657525 119.019174,12.3917627 C119.277463,12.317773 119.438807,12.216815 119.503207,12.0875058 C119.568298,11.9588881 119.600844,11.7092591 119.600844,11.3406933 C119.600844,10.473561 119.434653,9.75924872 119.101578,9.19706488 C118.769887,8.63488104 118.178523,8.35344337 117.329562,8.35344337 C117.015184,8.35344337 116.747893,8.39078399 116.526304,8.46408226 C116.304023,8.53807201 116.119828,8.65355135 115.972333,8.80982878 C115.824146,8.9667977 115.694655,9.17355411 115.584553,9.43217251 C115.473759,9.69079091 115.362965,9.99504785 115.252171,10.3449433 C115.196774,10.5482423 115.07213,10.6955303 114.87824,10.7868074 C114.683658,10.8794674 114.356122,10.9901063 113.894941,11.1194155 C113.784147,11.1567562 113.644962,11.1927138 113.479463,11.2300544 C113.313272,11.267395 113.174779,11.2853739 113.063985,11.2853739 C112.879097,11.2853739 112.786999,11.0917558 112.786999,10.7045197 C112.786999,10.2986133 112.943496,9.89339837 113.257875,9.48749195 C113.571561,9.08227703 113.97319,8.72200916 114.462762,8.40876281 C114.951641,8.09551647 115.482761,7.84173852 116.055429,7.64742898 C116.627404,7.45450242 117.172373,7.35769339 117.688951,7.35769339 C118.335712,7.35769339 118.918767,7.41301284 119.438115,7.52365172 C119.957463,7.63429061 120.404102,7.83758956 120.778033,8.1321656 C121.151271,8.42674163 121.436566,8.82365864 121.633226,9.32153363 C121.829193,9.81940861 121.92683,10.4652631 121.92683,11.2577141 L121.92683,16.0151863 C121.92683,16.6610408 121.950374,17.1257241 121.996769,17.4120022 C122.042472,17.6982803 122.111718,17.923707 122.204508,18.0896654 C122.333307,18.3482838 122.476647,18.5183911 122.633836,18.6013702 C122.790333,18.6836579 122.952369,18.725839 123.118561,18.725839 C123.321453,18.725839 123.464793,18.7078601 123.547888,18.6705195 C123.630292,18.6338704 123.718234,18.6152001 123.811025,18.6152001 L123.811025,18.6152001 Z" id="Fill-20" fill="#FFFFFF"></path>
            <path d="M131.400429,19.5003803 C130.919859,19.4630397 130.430287,19.4305395 129.929636,19.4028798 C129.428984,19.3752201 128.92764,19.3620817 128.422142,19.3620817 C127.918028,19.3620817 127.402142,19.3752201 126.873793,19.4028798 C126.346135,19.4305395 125.851023,19.4630397 125.38915,19.5003803 C125.352449,19.3157517 125.333753,19.1684637 125.333753,19.0571333 C125.333753,18.8738876 125.416848,18.7632487 125.583732,18.7259081 C125.989516,18.6519184 126.367601,18.5461199 126.718681,18.4078213 C127.06976,18.2695227 127.245646,18.0523939 127.245646,17.7571264 L127.245646,2.87688764 C127.245646,2.28635259 127.130004,1.88528662 126.899414,1.67368975 C126.668131,1.46140139 126.229801,1.32794323 125.583732,1.27262379 C125.343447,1.23597466 125.223651,1.10597397 125.223651,0.885387688 C125.223651,0.774748802 125.240963,0.645439603 125.278356,0.498151586 C125.518641,0.498151586 125.851023,0.484321725 126.276196,0.456662004 C126.700677,0.429002282 127.089149,0.397193602 127.441613,0.359161485 C127.870248,0.304533535 128.253873,0.231235273 128.589026,0.138575205 C128.925563,0.0459151378 129.167925,0.000276597216 129.31819,0.000276597216 C129.485766,0.000276597216 129.597946,0.0376172214 129.654728,0.110915484 C129.710125,0.184213746 129.738516,0.286554716 129.738516,0.414480928 C129.738516,0.729110261 129.710817,1.0928356 129.654728,1.50703993 C129.59933,1.92262725 129.571632,2.40667238 129.571632,2.95986681 L129.571632,17.7571264 C129.571632,18.0523939 129.741978,18.2695227 130.084748,18.4078213 C130.426132,18.5461199 130.809065,18.6519184 131.234238,18.7259081 C131.381733,18.7632487 131.455826,18.8738876 131.455826,19.0571333 C131.455826,19.1684637 131.43713,19.3157517 131.400429,19.5003803" id="Fill-22" fill="#FFFFFF"></path>
            <path d="M140.651332,8.85111091 L138.989418,8.85111091 L138.989418,8.35323592 C138.989418,8.15062846 139.077361,8.02615971 139.251862,7.97982968 C139.427748,7.93419114 139.61679,7.89685052 139.820375,7.86919079 C140.023267,7.84153107 140.212309,7.77722222 140.388195,7.67557274 C140.563389,7.57461476 140.651332,7.35748594 140.651332,7.02556928 L140.651332,5.75391358 C140.651332,4.7394933 140.793979,3.87236102 141.080659,3.15320826 C141.366647,2.4340555 141.731575,1.83937149 142.174752,1.36984771 C142.617929,0.898940952 143.111656,0.553194432 143.656625,0.332608152 C144.200902,0.110638886 144.732021,0 145.249292,0 C145.85866,0 146.407784,0.0601598945 146.897356,0.17978819 C147.386928,0.300107979 147.806561,0.461225858 148.15764,0.663833318 C148.508027,0.867132272 148.780858,1.092559 148.974748,1.34218799 C149.168638,1.59043399 149.26489,1.84421194 149.26489,2.10213884 C149.26489,2.21277773 149.186642,2.31926766 149.030145,2.42022564 C148.872956,2.52187512 148.697762,2.60969473 148.503872,2.68299299 C148.309982,2.75698275 148.120247,2.81230219 147.936052,2.84895132 C147.751164,2.88629195 147.621673,2.90427077 147.548272,2.90427077 C147.289291,2.90427077 147.095401,2.79363188 146.966602,2.57235411 C146.763018,2.16713919 146.518578,1.80687131 146.232591,1.49362497 C145.945911,1.18037862 145.516583,1.02410119 144.944608,1.02410119 C144.279842,1.02410119 143.785423,1.29585796 143.462735,1.83937149 C143.139354,2.38357651 142.97801,3.16288916 142.97801,4.17661796 L142.97801,7.6894026 L146.24644,7.6894026 C146.24644,8.05865989 146.218741,8.34424651 146.163344,8.54754547 C146.107947,8.75015293 145.950758,8.85111091 145.692469,8.85111091 L142.97801,8.85111091 L142.97801,17.3149857 C142.97801,17.7948819 143.189904,18.1219581 143.615077,18.2969058 C144.039557,18.4725451 144.732021,18.6060032 145.692469,18.6979718 C145.895361,18.7353124 145.997153,18.8549407 145.997153,19.0575482 C145.997153,19.1128676 145.987458,19.1958468 145.969454,19.3064857 C145.950758,19.4171246 145.941756,19.4814334 145.941756,19.5001037 C145.886359,19.5001037 145.724322,19.4911143 145.456339,19.472444 C145.189048,19.4537737 144.870514,19.4357949 144.501431,19.4171246 C144.131655,19.3984542 143.734873,19.3846244 143.310393,19.375635 C142.885913,19.3659541 142.488438,19.3618051 142.119355,19.3618051 C141.804976,19.3618051 141.486443,19.3659541 141.163755,19.375635 C140.840374,19.3846244 140.530843,19.3984542 140.235161,19.4171246 C139.940171,19.4357949 139.686037,19.4537737 139.474143,19.472444 C139.261556,19.4911143 139.127911,19.5001037 139.072514,19.5001037 C139.072514,19.4814334 139.062819,19.4171246 139.044815,19.3064857 C139.026119,19.1958468 139.017117,19.1128676 139.017117,19.0575482 C139.017117,18.873611 139.100212,18.7629721 139.266404,18.7256315 C139.672188,18.6523333 140.00457,18.5465348 140.262859,18.4075447 C140.521841,18.2692461 140.651332,18.0528088 140.651332,17.7575413 L140.651332,8.85111091 Z" id="Fill-24" fill="#FFFFFF"></path>
            <path d="M154.860345,13.2215544 L153.968451,13.359853 C153.485804,13.452513 153.016313,13.5624604 152.561365,13.6917696 C152.105723,13.8210788 151.702017,14.000867 151.349553,14.2311342 C150.996396,14.4620929 150.713178,14.75252 150.499207,15.1024154 C150.285928,15.4530024 150.178596,15.8865685 150.178596,16.4024224 C150.178596,17.1029048 150.360022,17.6381204 150.722181,18.0066862 C151.084339,18.3759435 151.535133,18.5598806 152.07387,18.5598806 C152.426334,18.5598806 152.774644,18.4810504 153.118106,18.324773 C153.46226,18.1678041 153.759327,17.9472178 154.009999,17.6609397 C154.261364,17.3753531 154.46564,17.0385959 154.623522,16.6513598 C154.781404,16.2634323 154.860345,15.8402385 154.860345,15.3790127 L154.860345,13.2215544 Z M159.070525,18.6152001 C159.273417,18.6152001 159.384212,18.8088181 159.402908,19.1960542 C158.922338,19.5279709 158.31297,19.6939292 157.574803,19.6939292 C157.16625,19.6939292 156.812401,19.6337693 156.513256,19.514141 C156.213419,19.3938212 155.961362,19.2327034 155.755701,19.0294044 C155.549346,18.826797 155.390772,18.5965298 155.278593,18.3379114 C155.165721,18.0799845 155.090935,17.8130682 155.053542,17.5364709 C154.592361,18.3655711 154.042545,18.9332869 153.405478,19.2375438 C152.768411,19.5418008 152.035092,19.6939292 151.204135,19.6939292 C150.83436,19.6939292 150.442425,19.6614291 150.026947,19.5971202 C149.611468,19.5321199 149.218841,19.3986617 148.849066,19.1960542 C148.479982,18.9934468 148.175298,18.7078601 147.935706,18.3379114 C147.695421,17.9700371 147.574932,17.4811515 147.574932,16.8726376 C147.574932,16.1908255 147.736969,15.6141203 148.060349,15.143905 C148.383037,14.6736898 148.798516,14.2864537 149.306092,13.9821967 C149.81436,13.6779398 150.368331,13.4338427 150.968698,13.2492141 C151.568371,13.0645854 152.145886,12.908308 152.699857,12.7789988 C153.013544,12.7236794 153.304378,12.6635195 153.572362,12.5992106 C153.839653,12.5349018 154.075091,12.4657525 154.278675,12.3917627 C154.536964,12.317773 154.698308,12.216815 154.762707,12.0875058 C154.827799,11.9588881 154.860345,11.7092591 154.860345,11.3406933 C154.860345,10.473561 154.694154,9.75924872 154.361078,9.19706488 C154.029388,8.63488104 153.438024,8.35344337 152.589063,8.35344337 C152.274685,8.35344337 152.007394,8.39078399 151.785805,8.46408226 C151.563524,8.53807201 151.379329,8.65355135 151.231834,8.80982878 C151.083647,8.9667977 150.954156,9.17355411 150.844054,9.43217251 C150.73326,9.69079091 150.622466,9.99504785 150.511671,10.3449433 C150.456274,10.5482423 150.331631,10.6955303 150.137741,10.7868074 C149.943159,10.8794674 149.615623,10.9901063 149.154442,11.1194155 C149.043648,11.1567562 148.904463,11.1927138 148.738964,11.2300544 C148.572773,11.267395 148.43428,11.2853739 148.323486,11.2853739 C148.138598,11.2853739 148.0465,11.0917558 148.0465,10.7045197 C148.0465,10.2986133 148.202997,9.89339837 148.517375,9.48749195 C148.831062,9.08227703 149.232691,8.72200916 149.722263,8.40876281 C150.211142,8.09551647 150.742262,7.84173852 151.31493,7.64742898 C151.886905,7.45450242 152.431874,7.35769339 152.948452,7.35769339 C153.595213,7.35769339 154.178268,7.41301284 154.697616,7.52365172 C155.216964,7.63429061 155.663603,7.83758956 156.037534,8.1321656 C156.410772,8.42674163 156.696067,8.82365864 156.892726,9.32153363 C157.088694,9.81940861 157.186331,10.4652631 157.186331,11.2577141 L157.186331,16.0151863 C157.186331,16.6610408 157.209875,17.1257241 157.25627,17.4120022 C157.301973,17.6982803 157.371219,17.923707 157.464009,18.0896654 C157.592807,18.3482838 157.736148,18.5183911 157.893337,18.6013702 C158.049834,18.6836579 158.21187,18.725839 158.378062,18.725839 C158.580953,18.725839 158.724294,18.7078601 158.807389,18.6705195 C158.889792,18.6338704 158.977735,18.6152001 159.070525,18.6152001 L159.070525,18.6152001 Z" id="Fill-26" fill="#FFFFFF"></path>
            <path d="M172.365348,10.1510487 C172.439442,10.0957292 172.606325,9.92078149 172.865999,9.62551397 C173.125673,9.33093793 173.462903,9.01700009 173.880459,8.68508343 C174.297322,8.35316677 174.779277,8.04890983 175.325631,7.77300411 C175.871985,7.4957154 176.461272,7.35741679 177.091414,7.35741679 C178.203511,7.35741679 178.99015,7.6851845 179.453409,8.33933691 C179.916667,8.99418082 180.148642,9.90280267 180.148642,11.0638195 L180.148642,17.7851318 C180.148642,18.0617291 180.314834,18.269177 180.647216,18.4074756 C180.979599,18.5464657 181.349375,18.6522641 181.755851,18.7255624 C181.922042,18.762903 182.004446,18.8735419 182.004446,19.057479 C182.004446,19.1681179 181.986442,19.3160974 181.949741,19.5007261 C181.468479,19.4633854 180.997603,19.4308853 180.535037,19.4032255 C180.071779,19.3755658 179.56905,19.361736 179.027543,19.361736 C178.541434,19.361736 178.048399,19.3755658 177.547748,19.4032255 C177.047789,19.4308853 176.565834,19.4633854 176.104653,19.5007261 C176.067952,19.3160974 176.049256,19.1681179 176.049256,19.057479 C176.049256,18.8735419 176.132352,18.762903 176.299235,18.7255624 C176.464734,18.7075836 176.635773,18.6702429 176.810966,18.6149235 C176.986852,18.559604 177.147504,18.4952952 177.295691,18.4213054 C177.443186,18.3480072 177.568522,18.260879 177.669622,18.1585381 C177.771414,18.0575801 177.821964,17.9331113 177.821964,17.7851318 L177.821964,12.0879207 C177.821964,10.9441912 177.684163,10.1745594 177.406485,9.77764243 C177.1295,9.38141692 176.677321,9.18364991 176.049256,9.18364991 C175.569378,9.18364991 175.112352,9.26178863 174.67887,9.41806605 C174.244695,9.57503497 173.86107,9.80530216 173.52938,10.1095591 C173.196305,10.413816 172.928321,10.7872223 172.726122,11.2304693 C172.522537,11.6723334 172.420745,12.1798893 172.420745,12.751754 L172.420745,17.7851318 C172.420745,18.0617291 172.577934,18.269177 172.892313,18.4074756 C173.205999,18.5464657 173.557078,18.6522641 173.944166,18.7255624 C174.111049,18.762903 174.194145,18.8735419 174.194145,19.057479 C174.194145,19.1681179 174.174756,19.3160974 174.138748,19.5007261 C173.657486,19.4633854 173.191457,19.4308853 172.739278,19.4032255 C172.287099,19.3755658 171.811377,19.361736 171.312803,19.361736 C170.814921,19.361736 170.320502,19.3755658 169.831622,19.4032255 C169.34205,19.4308853 168.857326,19.4633854 168.376756,19.5007261 C168.340055,19.3160974 168.321359,19.1681179 168.321359,19.057479 C168.321359,18.8735419 168.404454,18.762903 168.571338,18.7255624 C168.903028,18.6702429 169.239566,18.5741254 169.581643,18.4351353 C169.92372,18.2968367 170.094759,18.0803994 170.094759,17.7851318 L170.094759,12.0879207 C170.094759,10.9441912 169.961113,10.1745594 169.695207,9.77764243 C169.428608,9.38141692 168.982662,9.18364991 168.358752,9.18364991 C167.880259,9.18364991 167.42531,9.26178863 166.993905,9.41806605 C166.5625,9.57503497 166.176105,9.80530216 165.836798,10.1095591 C165.496798,10.413816 165.225352,10.7872223 165.023153,11.2304693 C164.821646,11.6723334 164.720546,12.1798893 164.720546,12.751754 L164.720546,17.7851318 C164.720546,18.0617291 164.88189,18.269177 165.205271,18.4074756 C165.528652,18.5464657 165.874884,18.6522641 166.243967,18.7255624 C166.410158,18.762903 166.493946,18.8735419 166.493946,19.057479 C166.493946,19.1681179 166.474557,19.3160974 166.437857,19.5007261 C165.957979,19.4633854 165.485719,19.4308853 165.022461,19.4032255 C164.559895,19.3755658 164.06686,19.361736 163.54405,19.361736 C163.001851,19.361736 162.489428,19.3755658 162.008165,19.4032255 C161.526903,19.4308853 161.055335,19.4633854 160.593461,19.5007261 C160.556068,19.3160974 160.538064,19.1681179 160.538064,19.057479 C160.538064,18.8735419 160.62116,18.762903 160.787351,18.7255624 C161.193135,18.6522641 161.562911,18.5464657 161.895294,18.4074756 C162.227676,18.269177 162.39456,18.0527396 162.39456,17.7574721 L162.39456,10.2340278 C162.39456,9.68083341 162.296923,9.2846079 162.103725,9.04465981 C161.909143,8.80540322 161.48951,8.65742371 160.842748,8.60279576 C160.603156,8.56545514 160.48336,8.43683743 160.48336,8.21486816 C160.48336,8.12289959 160.500671,8.00396279 160.538064,7.85598328 C160.778349,7.85598328 161.115579,7.84146192 161.549062,7.8138022 C161.983236,7.78614248 162.339163,7.7543338 162.618226,7.71699318 C163.047553,7.64369491 163.430486,7.5655562 163.766331,7.48257703 C164.102176,7.39959787 164.345231,7.35741679 164.494803,7.35741679 C164.756554,7.35741679 164.886738,7.4957154 164.886738,7.77300411 C164.886738,8.03093102 164.859039,8.33933691 164.803642,8.69891329 C164.748245,9.05848967 164.720546,9.53354539 164.720546,10.123389 C164.775943,10.0680695 164.93244,9.89312177 165.190037,9.59785424 C165.447633,9.30327821 165.783478,8.98934037 166.196879,8.65742371 C166.61028,8.32550705 167.084618,8.02609056 167.618508,7.75848276 C168.151705,7.49156644 168.740992,7.35741679 169.384983,7.35741679 C170.341276,7.35741679 171.054514,7.60220533 171.524004,8.09109091 C171.992802,8.57997649 172.27325,9.26662908 172.365348,10.1510487" id="Fill-28" fill="#FFFFFF"></path>
            <path d="M184.995405,2.73845074 C184.995405,2.29589519 185.14844,1.91349954 185.452431,1.59057229 C185.757808,1.26833653 186.140048,1.10652716 186.601921,1.10652716 C187.045098,1.10652716 187.414181,1.26833653 187.709864,1.59057229 C188.005546,1.91349954 188.153733,2.29589519 188.153733,2.73845074 C188.153733,3.21765541 188.005546,3.60558301 187.709864,3.90015904 C187.414181,4.19473508 187.045098,4.34271459 186.601921,4.34271459 C186.140048,4.34271459 185.757808,4.19473508 185.452431,3.90015904 C185.14844,3.60558301 184.995405,3.21765541 184.995405,2.73845074 M186.616463,19.3619434 C186.298622,19.3619434 185.976626,19.3660924 185.650476,19.3757733 C185.325018,19.3847627 185.023104,19.3985925 184.74681,19.4172629 C184.469132,19.4352417 184.22954,19.453912 184.026648,19.4725823 C183.823064,19.4912526 183.693573,19.500242 183.638176,19.500242 C183.638176,19.4815717 183.628481,19.4172629 183.610477,19.306624 C183.592473,19.1959851 183.582779,19.1130059 183.582779,19.0576865 C183.582779,18.8737493 183.665874,18.7631104 183.832066,18.7257698 C184.312636,18.6338012 184.699723,18.5231624 184.995405,18.3938532 C185.291087,18.2652355 185.439274,18.0522556 185.439274,17.7576796 L185.439274,10.2342353 C185.439274,9.68104086 185.341637,9.28481534 185.14844,9.04486726 C184.953857,8.80491918 184.534224,8.65763116 183.887463,8.60231171 C183.64787,8.56566258 183.528074,8.43635338 183.528074,8.21507561 C183.528074,8.12310704 183.545386,8.00347874 183.582779,7.85549923 C183.823064,7.85549923 184.160294,7.84166937 184.593776,7.81400965 C185.027951,7.78634993 185.38457,7.75454125 185.66294,7.71720062 C186.092268,7.64390236 186.4752,7.56507215 186.811045,7.48209299 C187.14689,7.39911383 187.389945,7.35762424 187.539517,7.35762424 C187.801269,7.35762424 187.931452,7.49592285 187.931452,7.77252007 C187.931452,8.03044697 187.903753,8.33954436 187.848356,8.69912074 C187.792959,9.05869712 187.765261,9.53375284 187.765261,10.1235964 L187.765261,17.7576796 C187.765261,18.0522556 187.908601,18.2652355 188.194588,18.3938532 C188.480576,18.5231624 188.882205,18.6338012 189.399476,18.7257698 C189.54697,18.7631104 189.621756,18.8737493 189.621756,19.0576865 C189.621756,19.1130059 189.616909,19.1959851 189.607215,19.306624 C189.59752,19.4172629 189.584363,19.4815717 189.566359,19.500242 C189.510962,19.500242 189.386319,19.4912526 189.192429,19.4725823 C188.997846,19.453912 188.762409,19.4352417 188.485423,19.4172629 C188.20913,19.3985925 187.907216,19.3847627 187.581065,19.3757733 C187.255607,19.3660924 186.933612,19.3619434 186.616463,19.3619434" id="Fill-30" fill="#FFFFFF"></path>
            <path d="M197.26635,19.5003803 C196.78578,19.4630397 196.296208,19.4305395 195.795557,19.4028798 C195.294906,19.3752201 194.793562,19.3620817 194.288063,19.3620817 C193.783949,19.3620817 193.268064,19.3752201 192.739714,19.4028798 C192.212056,19.4305395 191.716944,19.4630397 191.255071,19.5003803 C191.21837,19.3157517 191.199674,19.1684637 191.199674,19.0571333 C191.199674,18.8738876 191.28277,18.7632487 191.449653,18.7259081 C191.855437,18.6519184 192.233523,18.5461199 192.584602,18.4078213 C192.935681,18.2695227 193.111567,18.0523939 193.111567,17.7571264 L193.111567,2.87688764 C193.111567,2.28635259 192.995925,1.88528662 192.765335,1.67368975 C192.534052,1.46140139 192.095722,1.32794323 191.449653,1.27262379 C191.209368,1.23597466 191.089572,1.10597397 191.089572,0.885387688 C191.089572,0.774748802 191.106884,0.645439603 191.144277,0.498151586 C191.384562,0.498151586 191.716944,0.484321725 192.142117,0.456662004 C192.566598,0.429002282 192.95507,0.397193602 193.307534,0.359161485 C193.736169,0.304533535 194.119794,0.231235273 194.454947,0.138575205 C194.791484,0.0459151378 195.033847,0.000276597216 195.184111,0.000276597216 C195.351688,0.000276597216 195.463867,0.0376172214 195.520649,0.110915484 C195.576046,0.184213746 195.604437,0.286554716 195.604437,0.414480928 C195.604437,0.729110261 195.576738,1.0928356 195.520649,1.50703993 C195.465252,1.92262725 195.437553,2.40667238 195.437553,2.95986681 L195.437553,17.7571264 C195.437553,18.0523939 195.607899,18.2695227 195.950669,18.4078213 C196.292054,18.5461199 196.674986,18.6519184 197.100159,18.7259081 C197.247654,18.7632487 197.321747,18.8738876 197.321747,19.0571333 C197.321747,19.1684637 197.303051,19.3157517 197.26635,19.5003803" id="Fill-32" fill="#FFFFFF"></path>
            <path d="M205.547526,16.3467572 C205.824512,15.6462747 206.129888,14.9222815 206.461579,14.175469 C206.794654,13.4286565 207.103493,12.7240251 207.38948,12.0601918 C207.675468,11.3963585 207.910906,10.796834 208.096486,10.2616184 C208.279989,9.72709429 208.372779,9.33086878 208.372779,9.07225038 C208.372779,8.90629205 208.299378,8.7825148 208.151883,8.69884414 C208.003696,8.61586498 207.841659,8.54256672 207.667158,8.47756637 C207.491272,8.41325752 207.329236,8.34964016 207.181741,8.28463981 C207.033554,8.21963947 206.960153,8.11384103 206.960153,7.96586152 C206.960153,7.92921239 206.969847,7.87389295 206.987851,7.80059468 C207.005855,7.72660493 207.025244,7.66160458 207.043248,7.60628514 C207.763411,7.66160458 208.529968,7.6892643 209.342229,7.6892643 C209.767401,7.6892643 210.136485,7.68511535 210.450171,7.67543444 C210.763857,7.66644503 211.059539,7.64362576 211.336525,7.60628514 C211.373225,7.66160458 211.396076,7.72660493 211.405771,7.80059468 C211.415465,7.87389295 211.41962,7.92921239 211.41962,7.96586152 C211.41962,8.16916047 211.299824,8.29777818 211.059539,8.35309762 C210.783246,8.40910856 210.565812,8.464428 210.409315,8.51974745 C210.252126,8.57506689 210.121943,8.64836515 210.020843,8.74033373 C209.919051,8.83299379 209.827646,8.95331358 209.74455,9.1006016 C209.660762,9.24788962 209.564509,9.45948649 209.453715,9.7360837 L203.774819,23.1240804 C203.405043,24.0085 202.851072,24.709674 202.112905,25.2262193 C201.374739,25.7420731 200.57979,26 199.731522,26 C199.583335,26 199.476695,25.9585104 199.412988,25.8755313 C199.347897,25.7925521 199.315351,25.6964346 199.315351,25.5851042 C199.315351,25.3818052 199.34305,25.1660594 199.398447,24.9351007 C199.453844,24.7048335 199.527937,24.4925452 199.620035,24.2989271 C199.712133,24.1060006 199.818772,23.9483402 199.938569,23.8287119 C200.058365,23.7083921 200.183701,23.6496152 200.312499,23.6496152 C200.459994,23.6496152 200.594332,23.6627535 200.714821,23.6904132 C200.833924,23.718073 200.968262,23.7325943 201.11645,23.7325943 C201.614331,23.7325943 201.984107,23.6350938 202.223699,23.4421672 C202.463984,23.2478577 202.676571,22.9387603 202.860766,22.5148751 L204.273393,19.2233682 L200.007815,9.7360837 C199.878324,9.4781568 199.76753,9.27140038 199.676125,9.11373997 C199.583335,8.95746254 199.481542,8.82815334 199.370748,8.72650386 C199.259954,8.62554588 199.130463,8.55224762 198.983661,8.50522609 C198.835474,8.45958755 198.640891,8.41809797 198.401991,8.38075734 C198.161014,8.3254379 198.041217,8.18713929 198.041217,7.96586152 C198.041217,7.92921239 198.046065,7.87389295 198.055759,7.80059468 C198.064069,7.72660493 198.087613,7.66160458 198.124313,7.60628514 C198.493396,7.64362576 198.868019,7.66644503 199.246105,7.67543444 C199.62419,7.68511535 200.053518,7.6892643 200.53478,7.6892643 L201.337346,7.6892643 C201.781215,7.6892643 202.196001,7.68511535 202.584473,7.67543444 C202.971561,7.66644503 203.360033,7.64362576 203.74712,7.60628514 C203.783821,7.66160458 203.806672,7.72660493 203.816366,7.80059468 C203.826061,7.87389295 203.830908,7.92921239 203.830908,7.96586152 C203.830908,8.18713929 203.71042,8.30745908 203.470135,8.3254379 C203.045654,8.39942766 202.759667,8.47756637 202.612172,8.56054553 C202.463984,8.6435247 202.389891,8.75900404 202.389891,8.90629205 C202.389891,8.99895212 202.44598,9.2292193 202.556775,9.59778509 C202.667569,9.96704238 202.851072,10.4275767 203.110053,10.9807712 L205.547526,16.3467572 Z" id="Fill-34" fill="#FFFFFF"></path>
            <path d="M220.892596,12.6131096 C220.892596,13.2949218 220.965305,13.9960957 221.113492,14.7152485 C221.260987,15.4344012 221.487422,16.0844047 221.792799,16.6645674 C222.096791,17.246113 222.489418,17.7260092 222.969988,18.1028729 C223.449173,18.4811196 224.030842,18.6705887 224.714997,18.6705887 C225.767542,18.6705887 226.584649,18.3020229 227.166319,17.5641998 C227.747296,16.8270682 228.038131,15.8769568 228.038131,14.7152485 C228.038131,14.0334363 227.969577,13.3184325 227.831084,12.5709286 C227.691899,11.8241161 227.471003,11.1423039 227.166319,10.5241092 C226.860942,9.90729738 226.464161,9.39559253 225.975281,8.98968612 C225.485709,8.58447119 224.881188,8.38117224 224.161026,8.38117224 C223.181882,8.38117224 222.392473,8.71723786 221.792799,9.39075208 C221.192433,10.0635748 220.892596,11.1374635 220.892596,12.6131096 M218.288239,13.525189 C218.288239,12.67811 218.450276,11.8759781 218.772964,11.1194847 C219.096344,10.3636828 219.535367,9.70883888 220.089338,9.15564444 C220.643309,8.60245001 221.293532,8.16404343 222.041394,7.84180767 C222.789255,7.51957191 223.59736,7.35707105 224.465017,7.35707105 C225.370068,7.35707105 226.201024,7.50989101 226.95858,7.81414795 C227.715443,8.11840489 228.366359,8.53744967 228.910636,9.07266528 C229.455605,9.6071894 229.880085,10.2578844 230.185462,11.0226757 C230.489453,11.7881584 230.641795,12.6227905 230.641795,13.525189 C230.641795,14.3923212 230.480451,15.1992936 230.157763,15.9454146 C229.834382,16.6922271 229.39536,17.342922 228.841389,17.8961165 C228.28811,18.4486194 227.636502,18.887026 226.888641,19.2099532 C226.14078,19.532189 225.333367,19.6939984 224.465017,19.6939984 C223.560659,19.6939984 222.72901,19.5418699 221.97284,19.237613 C221.215284,18.933356 220.563676,18.5136198 220.019399,17.9790956 C219.475122,17.44388 219.050642,16.7994085 218.745265,16.0429151 C218.441274,15.2864217 218.288239,14.4476407 218.288239,13.525189" id="Fill-36" fill="#FFFFFF"></path>
            <path d="M234.298282,8.85111091 L232.636368,8.85111091 L232.636368,8.35323592 C232.636368,8.15062846 232.724311,8.02615971 232.898812,7.97982968 C233.074698,7.93419114 233.263741,7.89685052 233.467325,7.86919079 C233.670217,7.84153107 233.85926,7.77722222 234.035146,7.67557274 C234.210339,7.57461476 234.298282,7.35748594 234.298282,7.02556928 L234.298282,5.75391358 C234.298282,4.7394933 234.440929,3.87236102 234.727609,3.15320826 C235.013597,2.4340555 235.378526,1.83937149 235.821702,1.36984771 C236.264879,0.898940952 236.758606,0.553194432 237.303575,0.332608152 C237.847852,0.110638886 238.378972,0 238.896242,0 C239.50561,0 240.054734,0.0601598945 240.544306,0.17978819 C241.033878,0.300107979 241.453511,0.461225858 241.804591,0.663833318 C242.154977,0.867132272 242.427808,1.092559 242.621698,1.34218799 C242.815588,1.59043399 242.91184,1.84421194 242.91184,2.10213884 C242.91184,2.21277773 242.833592,2.31926766 242.677095,2.42022564 C242.519906,2.52187512 242.344712,2.60969473 242.150823,2.68299299 C241.956933,2.75698275 241.767198,2.81230219 241.583002,2.84895132 C241.398114,2.88629195 241.268624,2.90427077 241.195222,2.90427077 C240.936241,2.90427077 240.742351,2.79363188 240.613553,2.57235411 C240.409968,2.16713919 240.165529,1.80687131 239.879541,1.49362497 C239.592861,1.18037862 239.163533,1.02410119 238.591558,1.02410119 C237.926793,1.02410119 237.432373,1.29585796 237.109685,1.83937149 C236.786305,2.38357651 236.624961,3.16288916 236.624961,4.17661796 L236.624961,7.6894026 L239.89339,7.6894026 C239.89339,8.05865989 239.865692,8.34424651 239.810295,8.54754547 C239.754897,8.75015293 239.597708,8.85111091 239.339419,8.85111091 L236.624961,8.85111091 L236.624961,17.3149857 C236.624961,17.7948819 236.836855,18.1219581 237.262027,18.2969058 C237.686508,18.4725451 238.378972,18.6060032 239.339419,18.6979718 C239.542311,18.7353124 239.644103,18.8549407 239.644103,19.0575482 C239.644103,19.1128676 239.634409,19.1958468 239.616405,19.3064857 C239.597708,19.4171246 239.588706,19.4814334 239.588706,19.5001037 C239.533309,19.5001037 239.371272,19.4911143 239.103289,19.472444 C238.835998,19.4537737 238.517464,19.4357949 238.148381,19.4171246 C237.778605,19.3984542 237.381824,19.3846244 236.957343,19.375635 C236.532863,19.3659541 236.135389,19.3618051 235.766305,19.3618051 C235.451927,19.3618051 235.133393,19.3659541 234.810705,19.375635 C234.487324,19.3846244 234.177793,19.3984542 233.882111,19.4171246 C233.587121,19.4357949 233.332987,19.4537737 233.121093,19.472444 C232.908507,19.4911143 232.774861,19.5001037 232.719464,19.5001037 C232.719464,19.4814334 232.70977,19.4171246 232.691766,19.3064857 C232.673069,19.1958468 232.664067,19.1128676 232.664067,19.0575482 C232.664067,18.873611 232.747163,18.7629721 232.913354,18.7256315 C233.319138,18.6523333 233.651521,18.5465348 233.90981,18.4075447 C234.168791,18.2692461 234.298282,18.0528088 234.298282,17.7575413 L234.298282,8.85111091 Z" id="Fill-38" fill="#FFFFFF"></path>
            <path d="M242.85672,8.85111091 L241.194807,8.85111091 L241.194807,8.35323592 C241.194807,8.15062846 241.28275,8.02615971 241.457251,7.97982968 C241.633137,7.93419114 241.822179,7.89685052 242.025764,7.86919079 C242.228656,7.84153107 242.417698,7.77722222 242.593584,7.67557274 C242.768777,7.57461476 242.85672,7.35748594 242.85672,7.02556928 L242.85672,5.75391358 C242.85672,4.7394933 242.999368,3.87236102 243.286048,3.15320826 C243.572036,2.4340555 243.936964,1.83937149 244.380141,1.36984771 C244.823318,0.898940952 245.317045,0.553194432 245.862014,0.332608152 C246.40629,0.110638886 246.93741,0 247.454681,0 C248.064049,0 248.613173,0.0601598945 249.102745,0.17978819 C249.592317,0.300107979 250.01195,0.461225858 250.363029,0.663833318 C250.713416,0.867132272 250.986247,1.092559 251.180137,1.34218799 C251.374026,1.59043399 251.470279,1.84421194 251.470279,2.10213884 C251.470279,2.21277773 251.392031,2.31926766 251.235534,2.42022564 C251.078344,2.52187512 250.903151,2.60969473 250.709261,2.68299299 C250.515371,2.75698275 250.325636,2.81230219 250.141441,2.84895132 C249.956553,2.88629195 249.827062,2.90427077 249.753661,2.90427077 C249.494679,2.90427077 249.30079,2.79363188 249.171991,2.57235411 C248.968407,2.16713919 248.723967,1.80687131 248.437979,1.49362497 C248.151299,1.18037862 247.721972,1.02410119 247.149997,1.02410119 C246.485231,1.02410119 245.990812,1.29585796 245.668124,1.83937149 C245.344743,2.38357651 245.183399,3.16288916 245.183399,4.17661796 L245.183399,7.6894026 L248.451829,7.6894026 C248.451829,8.05865989 248.42413,8.34424651 248.368733,8.54754547 C248.313336,8.75015293 248.156147,8.85111091 247.897858,8.85111091 L245.183399,8.85111091 L245.183399,17.3149857 C245.183399,17.7948819 245.395293,18.1219581 245.820466,18.2969058 C246.244946,18.4725451 246.93741,18.6060032 247.897858,18.6979718 C248.10075,18.7353124 248.202542,18.8549407 248.202542,19.0575482 C248.202542,19.1128676 248.192847,19.1958468 248.174843,19.3064857 C248.156147,19.4171246 248.147145,19.4814334 248.147145,19.5001037 C248.091748,19.5001037 247.929711,19.4911143 247.661727,19.472444 C247.394436,19.4537737 247.075903,19.4357949 246.70682,19.4171246 C246.337044,19.3984542 245.940262,19.3846244 245.515782,19.375635 C245.091301,19.3659541 244.693827,19.3618051 244.324744,19.3618051 C244.010365,19.3618051 243.691832,19.3659541 243.369144,19.375635 C243.045763,19.3846244 242.736232,19.3984542 242.440549,19.4171246 C242.14556,19.4357949 241.891426,19.4537737 241.679532,19.472444 C241.466945,19.4911143 241.3333,19.5001037 241.277903,19.5001037 C241.277903,19.4814334 241.268208,19.4171246 241.250204,19.3064857 C241.231508,19.1958468 241.222505,19.1128676 241.222505,19.0575482 C241.222505,18.873611 241.305601,18.7629721 241.471792,18.7256315 C241.877576,18.6523333 242.209959,18.5465348 242.468248,18.4075447 C242.72723,18.2692461 242.85672,18.0528088 242.85672,17.7575413 L242.85672,8.85111091 Z" id="Fill-40" fill="#FFFFFF"></path>
            <path d="M251.054662,2.73845074 C251.054662,2.29589519 251.207697,1.91349954 251.511688,1.59057229 C251.817065,1.26833653 252.199305,1.10652716 252.661178,1.10652716 C253.104355,1.10652716 253.473439,1.26833653 253.769121,1.59057229 C254.064803,1.91349954 254.21299,2.29589519 254.21299,2.73845074 C254.21299,3.21765541 254.064803,3.60558301 253.769121,3.90015904 C253.473439,4.19473508 253.104355,4.34271459 252.661178,4.34271459 C252.199305,4.34271459 251.817065,4.19473508 251.511688,3.90015904 C251.207697,3.60558301 251.054662,3.21765541 251.054662,2.73845074 M252.67572,19.3619434 C252.357879,19.3619434 252.035883,19.3660924 251.709733,19.3757733 C251.384275,19.3847627 251.082361,19.3985925 250.806068,19.4172629 C250.52839,19.4352417 250.288797,19.453912 250.085905,19.4725823 C249.882321,19.4912526 249.75283,19.500242 249.697433,19.500242 C249.697433,19.4815717 249.687738,19.4172629 249.669734,19.306624 C249.65173,19.1959851 249.642036,19.1130059 249.642036,19.0576865 C249.642036,18.8737493 249.725131,18.7631104 249.891323,18.7257698 C250.371893,18.6338012 250.75898,18.5231624 251.054662,18.3938532 C251.350344,18.2652355 251.498531,18.0522556 251.498531,17.7576796 L251.498531,10.2342353 C251.498531,9.68104086 251.400894,9.28481534 251.207697,9.04486726 C251.013114,8.80491918 250.593481,8.65763116 249.94672,8.60231171 C249.707127,8.56566258 249.587331,8.43635338 249.587331,8.21507561 C249.587331,8.12310704 249.604643,8.00347874 249.642036,7.85549923 C249.882321,7.85549923 250.219551,7.84166937 250.653033,7.81400965 C251.087208,7.78634993 251.443827,7.75454125 251.722197,7.71720062 C252.151525,7.64390236 252.534457,7.56507215 252.870302,7.48209299 C253.206147,7.39911383 253.449202,7.35762424 253.598775,7.35762424 C253.860526,7.35762424 253.990709,7.49592285 253.990709,7.77252007 C253.990709,8.03044697 253.963011,8.33954436 253.907613,8.69912074 C253.852216,9.05869712 253.824518,9.53375284 253.824518,10.1235964 L253.824518,17.7576796 C253.824518,18.0522556 253.967858,18.2652355 254.253845,18.3938532 C254.539833,18.5231624 254.941462,18.6338012 255.458733,18.7257698 C255.606227,18.7631104 255.681014,18.8737493 255.681014,19.0576865 C255.681014,19.1130059 255.676166,19.1959851 255.666472,19.306624 C255.656777,19.4172629 255.64362,19.4815717 255.625616,19.500242 C255.570219,19.500242 255.445576,19.4912526 255.251686,19.4725823 C255.057104,19.453912 254.821666,19.4352417 254.54468,19.4172629 C254.268387,19.3985925 253.966473,19.3847627 253.640322,19.3757733 C253.314864,19.3660924 252.992869,19.3619434 252.67572,19.3619434" id="Fill-42" fill="#FFFFFF"></path>
            <path d="M262.79885,8.40876281 C261.931193,8.40876281 261.22488,8.78700951 260.679911,9.5428114 C260.134941,10.2986133 259.863496,11.3227145 259.863496,12.6130405 C259.863496,14.401933 260.265125,15.7939085 261.06769,16.7896585 C261.870948,17.7854084 262.937343,18.2832834 264.266874,18.2832834 C264.858238,18.2832834 265.351965,18.1906234 265.749439,18.0066862 C266.145528,17.8220576 266.49176,17.6381204 266.788135,17.4534918 C266.843532,17.4161511 266.907931,17.3753531 266.981332,17.3283315 C267.054733,17.2833845 267.129519,17.2598737 267.202921,17.2598737 C267.295018,17.2598737 267.397503,17.3248741 267.508297,17.4534918 C267.618399,17.582801 267.6918,17.6844504 267.729193,17.7577487 C267.544998,17.9790265 267.314407,18.2003043 267.036729,18.4208905 C266.760436,18.6428598 266.427361,18.8503077 266.040274,19.0439258 C265.651801,19.2375438 265.194775,19.3938212 264.668503,19.514141 C264.14223,19.6337693 263.546711,19.6939292 262.881946,19.6939292 C262.12439,19.6939292 261.409075,19.5694605 260.736,19.320523 C260.06154,19.0715855 259.470176,18.6981792 258.9626,18.2003043 C258.455024,17.7017378 258.052702,17.0800855 257.758405,16.333273 C257.462723,15.5864606 257.314536,14.7151793 257.314536,13.7194294 C257.314536,12.7789988 257.495269,11.916707 257.854658,11.1325539 C258.214739,10.3497838 258.676612,9.68111001 259.239586,9.12791557 C259.803251,8.57472114 260.430624,8.14115501 261.123087,7.82790866 C261.815551,7.51466231 262.494858,7.3570019 263.159624,7.3570019 C263.842393,7.3570019 264.460764,7.43168315 265.014735,7.57897116 C265.568706,7.72695068 266.040274,7.92056873 266.427361,8.15982532 C266.815833,8.39908191 267.114978,8.68121107 267.327564,9.00275533 C267.540151,9.32637408 267.646098,9.66243969 267.646098,10.0130267 C267.646098,10.1229741 267.553307,10.2156341 267.369804,10.2896239 C267.184224,10.3636136 266.976485,10.4237735 266.745894,10.4687206 C266.514611,10.5157421 266.293715,10.5482423 266.081129,10.5662211 C265.869235,10.5841999 265.744592,10.5938808 265.707199,10.5938808 C265.467606,10.5938808 265.277871,10.4784015 265.139378,10.2481343 C265.001578,10.0178671 264.848543,9.76892962 264.683044,9.50132182 C264.516161,9.23371401 264.289725,8.98546801 264.003737,8.75450933 C263.717057,8.52424215 263.316121,8.40876281 262.79885,8.40876281" id="Fill-44" fill="#FFFFFF"></path>
            <path d="M274.58424,8.35344337 C273.66534,8.35344337 272.94864,8.71301975 272.434832,9.43217251 C271.919639,10.1513253 271.662734,11.0917558 271.662734,12.2534641 L276.87214,12.0045266 C277.147049,12.0045266 277.284849,11.8842068 277.284849,11.6449502 C277.284849,11.2950548 277.230144,10.9257975 277.120043,10.5385614 C277.009941,10.1513253 276.844442,9.79658934 276.623546,9.47366209 C276.40265,9.15073484 276.122895,8.88381853 275.782895,8.67153017 C275.442895,8.4592418 275.043343,8.35344337 274.58424,8.35344337 M279.061019,16.7896585 C279.189817,16.6610408 279.32831,16.5960404 279.475112,16.5960404 C279.659308,16.5960404 279.833809,16.7523178 280,17.0662557 C279.759715,17.3981723 279.482729,17.7210996 279.169043,18.0343459 C278.854665,18.3482838 278.480734,18.6290299 278.047252,18.8779674 C277.613077,19.1269049 277.11935,19.3253634 276.564687,19.4726515 C276.011408,19.6199395 275.374341,19.6939292 274.654179,19.6939292 C273.91532,19.6939292 273.213854,19.5743009 272.549088,19.3343528 C271.884323,19.0944048 271.297806,18.725839 270.79023,18.227964 C270.281961,17.730089 269.876178,17.1125857 269.571493,16.3747626 C269.266809,15.6369396 269.114467,14.7704988 269.114467,13.7747488 C269.114467,12.8336268 269.293815,11.9678775 269.654589,11.174735 C270.013978,10.3822839 270.480699,9.70462077 271.052674,9.14174543 C271.626034,8.57956159 272.258253,8.14115501 272.950717,7.82790866 C273.643181,7.51466231 274.312101,7.35769339 274.958863,7.35769339 C276.676173,7.35769339 277.926763,7.85556838 278.712017,8.85131836 C279.496579,9.84706834 279.889206,11.1470753 279.889206,12.7513391 C279.889206,12.861978 279.833809,12.9172974 279.723014,12.9172974 L271.717439,13.2768738 C271.717439,13.9960266 271.819231,14.6598599 272.021431,15.2683738 C272.224323,15.8768876 272.508925,16.4024224 272.877316,16.8449779 C273.245015,17.2875334 273.692346,17.63328 274.216541,17.8822175 C274.741429,18.131155 275.334178,18.2556237 275.996866,18.2556237 C276.586153,18.2556237 277.151896,18.1173251 277.694788,17.8407279 C278.236987,17.5641307 278.693321,17.2135437 279.061019,16.7896585" id="Fill-46" fill="#FFFFFF"></path>
        </g>
    </g>
</svg>