<?xml version="1.0" encoding="UTF-8"?>
<svg width="40px" height="25px" viewBox="0 0 40 25" version="1.1" xmlns="http://www.w3.org/2000/svg" xmlns:xlink="http://www.w3.org/1999/xlink">
    <title>atlasfive-logo-footer</title>
    <g id="atlasfive-logo-footer" stroke="none" stroke-width="1" fill="none" fill-rule="evenodd">
        <path d="M21.7357236,8.12351376 L26.5409428,22 L23.7011997,22 L23.2415865,20.5841619 L16.7563551,20.5841619 L16.296742,22 L13.4569988,22 L18.262218,8.12351376 L21.7357236,8.12351376 Z M21.1507934,20.8752967 L21.0787503,21.062028 C21.0354161,21.1751733 20.8756213,21.6028571 20.8756213,21.6028571 L20.8756213,21.6028571 L20.842579,21.6908283 L19.1723171,21.6908283 L18.85354,20.8752967 L21.1507934,20.8752967 Z M19.9988354,10.6802109 L17.352471,18.7719001 L22.6451998,18.7719001 L19.9988354,10.6802109 Z M21.4288363,15.9591183 L22.2240186,18.4837253 L20.0123232,18.487045 L20.0050376,18.487045 L17.7933421,18.4837253 L18.5885244,15.9591183 L20.008,18.481 L21.4288363,15.9591183 Z M28.8368149,5.97892564 L28.8731073,6.11171234 L28.9339783,6.32645332 L28.9339783,6.32645332 L28.9976931,6.5382896 L29.0272145,6.63428331 L28.9465046,6.69182421 C28.1277594,7.27470247 27.6042283,8.11347176 27.0522591,9.06953597 C26.9669449,9.21698452 26.8531927,9.43608257 26.7429614,9.647988 C26.6443761,9.83776232 26.5452492,10.0283666 26.4621017,10.177475 C26.4168717,10.2590834 26.367579,10.3630997 26.3245157,10.4549438 C26.3044736,10.4972696 26.2855149,10.5376589 26.2681812,10.5733453 C25.9903008,11.141285 25.7156704,11.7061818 25.44104,12.2702486 L24.9624681,13.2537 L24.9624681,13.2537 L24.4814587,14.2379814 L24.3111012,14.5854399 L23.4880226,12.2741215 L25.7202747,8.30324608 C25.8161515,8.09493695 25.8887363,7.87583891 25.7839217,7.68163837 C25.7349541,7.59090079 25.6724662,7.55398609 25.5645641,7.51707139 L25.474624,7.48854438 L25.3714345,7.45728418 L25.3597884,7.36958963 L25.3433011,7.23988055 L25.3433011,7.23988055 L25.3278295,7.11369861 L25.2885579,6.79943676 L25.4193729,6.78007204 C26.2906308,6.65146566 27.1884241,6.45138398 28.2858519,6.13960847 L28.7070832,6.01737846 L28.8368149,5.97892564 Z M11.1611267,5.97892564 L11.2908584,6.01737846 C12.5846546,6.40024676 13.5984036,6.63538987 14.5785687,6.78007204 L14.7093838,6.79943676 L14.6701122,7.11369861 C14.6598203,7.19779685 14.6497993,7.28078853 14.6381532,7.36958963 L14.6265071,7.45728418 L14.5233176,7.48854438 C14.3575644,7.53889267 14.2752294,7.5682164 14.2140199,7.68163837 C14.1092053,7.87583891 14.1817901,8.09493695 14.2773961,8.30324608 L16.5099191,12.2741215 L15.6868404,14.5854399 L15.5164829,14.2379814 C15.1944558,13.5809639 14.8756787,12.9261595 14.5569016,12.2702486 C14.2822712,11.7061818 14.0076408,11.141285 13.7300312,10.5733453 C13.7124267,10.5376589 13.693468,10.4972696 13.6734259,10.4549438 C13.6300918,10.3630997 13.58107,10.2590834 13.5358399,10.177475 C13.4526925,10.0283666 13.3535655,9.83776232 13.2549802,9.647988 C13.1447489,9.43608257 13.0309967,9.21698452 12.9456825,9.06953597 C12.3937134,8.11347176 11.8701823,7.27470247 11.051437,6.69182421 L10.9707271,6.63428331 L11.0002485,6.5382896 C11.043041,6.39969348 11.0858335,6.2541814 11.1248343,6.11171234 L11.1611267,5.97892564 Z M37,2 C32.0561114,5.11191152 26.2336222,6.90785157 20,6.90785157 C13.7663778,6.90785157 7.94388861,5.11191152 3,2 C8.1085585,4.26954592 13.8841926,5.54844778 20,5.54844778 C26.1158074,5.54844778 31.8914415,4.26954592 37,2 Z" id="Combined-Shape-Copy" fill="#FFFFFF"></path>
    </g>
</svg>