<?xml version="1.0" encoding="UTF-8"?>
<svg width="125px" height="90px" viewBox="0 0 125 90" version="1.1" xmlns="http://www.w3.org/2000/svg" xmlns:xlink="http://www.w3.org/1999/xlink">
    <title>atlasfive-logo-full</title>
    <g id="atlasfive-logo-full" stroke="none" stroke-width="1" fill="none" fill-rule="evenodd">
        <path d="M69.1260834,25.1742195 L86.0856806,73.1570898 L76.0630576,73.1570898 L74.4408934,68.2613276 L51.5518417,68.2613276 L49.9296775,73.1570898 L39.9070546,73.1570898 L56.8666518,25.1742195 L69.1260834,25.1742195 Z M67.0616238,69.2680294 L66.8073541,69.9137191 C66.6544099,70.3049592 66.0904282,71.7838275 66.0904282,71.7838275 L66.0904282,71.7838275 L65.9738083,72.0880191 L60.0787663,72.0880191 L58.9536707,69.2680294 L67.0616238,69.2680294 Z M62.9958896,34.0149063 L53.65578,61.9947902 L72.3359992,61.9947902 L62.9958896,34.0149063 Z M68.0429518,52.2685999 L70.8494774,60.9983237 L63.0434935,61.0098026 L63.0177798,61.0098026 L55.2117958,60.9983237 L58.0183214,52.2685999 L63.03,60.986 L68.0429518,52.2685999 Z M94.1887586,17.7585459 L94.3168493,18.217703 C94.4086159,18.5461278 94.5063302,18.8792293 94.6060271,19.2068038 L94.7565639,19.6927451 L94.8607571,20.0246774 L94.5758985,20.2236454 C91.6862095,22.2391536 89.8384527,25.1394958 87.8903263,28.4454267 C87.5892174,28.9552823 87.187739,29.7128915 86.7986872,30.4456297 C86.4507392,31.1018416 86.1008794,31.7609234 85.8074178,32.2765185 C85.6477823,32.5587088 85.4738083,32.9183818 85.32182,33.2359654 C85.2510834,33.3823218 85.1841703,33.521982 85.1229926,33.6453805 C84.1422381,35.6092335 83.1729544,37.5625642 82.2036707,39.5130252 L80.5145934,42.9136572 L80.5145934,42.9136572 L78.8169131,46.317159 L78.2156513,47.51862 L75.3106679,39.5264173 L83.1892047,25.7957078 C83.5275937,25.0754051 83.7837752,24.317796 83.4138414,23.6462787 C83.2194112,23.2933017 82.9645871,23.1758723 82.4890932,23.0289995 L82.3222024,22.9785878 L81.9580041,22.8704946 L81.9169003,22.5672596 C81.8894978,22.3625521 81.8646444,22.1667726 81.8403574,21.9728355 L81.804104,21.6824257 L81.6654983,20.595754 L82.1271986,20.5287936 C85.4136343,20.0535182 88.807045,19.2959401 93.0532353,18.0862892 L93.730882,17.8915101 L94.1887586,17.7585459 Z M31.8039765,17.7585459 L32.2618532,17.8915101 C36.8281927,19.215413 40.4061305,20.0285037 43.8655366,20.5287936 L44.3272368,20.595754 L44.1886311,21.6824257 C44.1523069,21.9732252 44.1169386,22.2601983 44.0758348,22.5672596 L44.0347311,22.8704946 L43.6705328,22.9785878 C43.0855213,23.1526849 42.7949274,23.2540821 42.5788937,23.6462787 C42.20896,24.317796 42.4651415,25.0754051 42.8025746,25.7957078 L50.6820673,39.5264173 L47.7770839,47.51862 L47.1758221,46.317159 C46.0392557,44.0452881 44.9141601,41.7810698 43.7890645,39.5130252 C42.8197808,37.5625642 41.8504971,35.6092335 40.8706984,33.6453805 C40.8085649,33.521982 40.7416518,33.3823218 40.6709151,33.2359654 C40.5179709,32.9183818 40.3449528,32.5587088 40.1853174,32.2765185 C39.8918557,31.7609234 39.5419959,31.1018416 39.1940479,30.4456297 C38.8049962,29.7128915 38.4035177,28.9552823 38.1024089,28.4454267 C36.1542824,25.1394958 34.3065256,22.2391536 31.4168366,20.2236454 L31.1319781,20.0246774 L31.2361713,19.6927451 C31.3872037,19.2134999 31.538236,18.7103402 31.6758858,18.217703 L31.8039765,17.7585459 Z M123,4 C105.550981,14.7605372 85.0010196,20.9706366 63,20.9706366 C40.9989804,20.9706366 20.4490186,14.7605372 3,4 C21.0302065,11.8477596 41.4147973,16.2700161 63,16.2700161 C84.5852027,16.2700161 104.969794,11.8477596 123,4 Z M28.7211955,79.6432574 L31.0727122,85.8648356 L29.3903263,85.8648356 L29.0997323,85.0364398 L26.783584,85.0364398 L26.5015932,85.8648356 L24.9348713,85.8648356 L27.1716798,79.6432574 L28.7211955,79.6432574 Z M27.1974892,83.881851 L28.6944303,83.881851 L27.9459597,81.6874629 L27.1974892,83.881851 Z M37.1314045,80.9562553 L37.1314045,85.8654096 L35.5283584,85.8654096 L35.5283584,80.9562553 L33.8727377,80.9562553 L33.8727377,79.6428747 L38.7784221,79.6428747 L38.7784221,80.9562553 L37.1314045,80.9562553 Z M47.0896954,84.4726331 L47.0896954,85.8654096 L42.889466,85.8654096 L42.889466,79.6342655 L44.5011152,79.6342655 L44.5011152,84.4726331 L47.0896954,84.4726331 Z M54.5295692,79.6432574 L56.8810859,85.8648356 L55.1987,85.8648356 L54.908106,85.0364398 L52.5919577,85.0364398 L52.3099669,85.8648356 L50.7422891,85.8648356 L52.9800535,79.6432574 L54.5295692,79.6432574 Z M53.0058629,83.881851 L54.502804,83.881851 L53.7543334,81.6874629 L53.0058629,83.881851 Z M62.8673209,83.4150414 C62.3215014,83.3184271 61.6963421,83.2036378 61.2470686,82.816224 C60.8685317,82.4900312 60.6744838,81.9964373 60.6744838,81.4942343 C60.6744838,80.110067 61.8282564,79.5370773 63.1311496,79.5370773 C64.0736681,79.5370773 65.1127326,79.8460517 65.756054,80.7184502 L64.6730181,81.5822394 C64.4349987,81.3086583 63.9771221,80.7710619 63.1311496,80.7710619 C62.682832,80.7710619 62.2593678,80.9480287 62.2593678,81.3086583 C62.2593678,81.4320568 62.3215014,81.5554552 62.4094443,81.6348511 C62.5595208,81.7668588 62.8501147,81.8204271 63.475274,81.9170414 C64.4082335,82.0576583 64.4961764,82.0758332 64.7523579,82.1552292 C65.0333928,82.2432343 65.9759113,82.5340337 65.9759113,83.8732419 C65.9759113,85.4152443 64.5841193,85.9710157 63.272623,85.9710157 C62.4008412,85.9710157 61.1409635,85.7060438 60.4632297,84.7370311 L61.6428116,83.8034117 C61.8894341,84.128648 62.3215014,84.6758101 63.3338007,84.6758101 C63.5278486,84.6758101 63.9149885,84.6576352 64.1530079,84.4902342 C64.3030844,84.3840541 64.3910273,84.234828 64.3910273,84.067427 C64.3910273,83.9698562 64.364262,83.881851 64.3202906,83.8206301 C64.17117,83.6006173 63.968519,83.5738332 63.2812261,83.4762623 L62.8673209,83.4150414 Z M70.4541167,80.6711952 C70.4541167,79.9461097 70.2447744,79.9116729 69.7209406,79.9461097 L69.7209406,79.6227866 C70.4541167,79.65818 71.1433214,79.6753984 72.0514275,79.6753984 C72.7406322,79.6753984 73.2912312,79.6753984 74.356105,79.6227866 C74.3819144,80.2522144 74.3905175,80.4444864 74.443092,81.2040088 L74.0588198,81.2040088 C74.0416136,80.9505158 74.0158042,80.5143166 73.6755034,80.2694328 C73.4566021,80.1029884 73.1421106,80.0685516 72.7406322,80.0685516 C72.4089345,80.0685516 71.9376752,80.0685516 71.6671552,80.0771608 C71.4320036,80.08577 71.4320036,80.1211633 71.4320036,80.3650905 L71.4320036,82.5145196 L72.5666582,82.5145196 C73.0723298,82.5145196 73.2826281,82.4446894 73.3782182,82.3662501 C73.534986,82.235199 73.5703543,81.9989244 73.5875605,81.6583829 L73.9460235,81.6583829 C73.9278613,82.0257086 73.9106551,82.3834685 73.9106551,82.7412284 C73.9106551,83.0999448 73.9278613,83.4577047 73.9460235,83.8164212 L73.5789574,83.8164212 C73.5789574,83.6499767 73.5703543,83.2042117 73.3438058,83.0559423 C73.1860821,82.9602845 73.0379174,82.9430662 72.6976166,82.9430662 L71.4320036,82.9430662 L71.4320036,84.6983854 C71.4320036,85.4674735 71.5103875,85.5717404 72.0428244,85.5717404 L72.3573158,85.5717404 L72.3573158,85.8950635 C71.8506882,85.8596701 71.4406067,85.8424517 70.9865537,85.8424517 C70.5411037,85.8424517 70.0870507,85.8692359 69.6597629,85.8950635 L69.6597629,85.5717404 C70.3403645,85.5717404 70.4541167,85.5717404 70.4541167,84.724213 L70.4541167,80.6711952 Z M79.5916709,80.6363758 C79.5916709,79.9811204 79.3383571,79.9026811 78.8670979,79.9457271 L78.8670979,79.6233605 C79.2685763,79.6491881 79.6786579,79.6750157 80.0801364,79.6750157 C80.4816148,79.6750157 80.8840492,79.6491881 81.2855277,79.6233605 L81.2855277,79.9457271 C80.7961063,79.9026811 80.5695577,80.0165138 80.5695577,80.6363758 L80.5695577,84.9514957 C80.5695577,85.6067511 80.8926523,85.5981419 81.3553084,85.5723143 L81.3553084,85.8956374 C80.770297,85.8602441 80.4558055,85.8430257 80.0275618,85.8430257 C79.6260834,85.8430257 79.1987956,85.8688533 78.8059202,85.8956374 L78.8059202,85.5723143 C79.2685763,85.5981419 79.5916709,85.6067511 79.5916709,84.9514957 L79.5916709,80.6363758 Z M88.7824688,86 L88.3809903,86 L86.1632998,80.6450807 C85.9807227,80.1993157 85.8583673,79.9199951 85.2991652,79.9458227 L85.2991652,79.6224996 C85.7618213,79.6492838 86.1374904,79.6751114 86.547572,79.6751114 C86.9576536,79.6751114 87.3858973,79.6492838 87.7701695,79.6224996 L87.7701695,79.9458227 C87.1583928,79.9458227 87.0714058,79.9544319 87.0714058,80.1476605 C87.0714058,80.3571509 87.3419258,80.8459619 88.8522496,84.7248826 C89.5768226,83.0126093 90.6502995,80.4355903 90.6502995,80.1476605 C90.6502995,80.0070437 90.6063281,79.9372135 89.9171234,79.9458227 L89.9171234,79.6224996 C90.3013956,79.657893 90.5805187,79.6751114 90.9122164,79.6751114 C91.2095017,79.6751114 91.5498024,79.6492838 91.8461318,79.6224996 L91.8461318,79.9458227 C91.3576663,79.9458227 91.2964887,79.9812161 91.1043525,80.4441995 L88.7824688,86 Z M96.5669449,80.7150065 C96.5669449,79.9899209 96.4273834,79.9200908 95.8079595,79.9459184 L95.8337688,79.6225953 C96.5669449,79.6579886 97.2561496,79.675207 98.1642557,79.675207 C98.8544163,79.675207 99.4040594,79.675207 100.468933,79.6225953 C100.468933,80.2778507 100.477536,80.4529043 100.538714,81.1081597 L100.145839,81.1081597 C100.023483,80.1123628 99.6047986,80.0511419 98.4003632,80.0511419 L98.1116811,80.0511419 L97.9902817,80.0511419 C97.562038,80.0425327 97.5276255,80.0769695 97.5276255,80.2960257 L97.5276255,82.4272797 L98.4089664,82.4272797 C98.8018417,82.4272797 99.098171,82.4272797 99.3256755,82.2263985 C99.4652371,82.1039566 99.5350178,81.867682 99.5264147,81.5625339 L99.8581124,81.5625339 C99.8399503,81.885857 99.814141,82.2082235 99.814141,82.5583308 C99.814141,82.9687024 99.8313472,83.1963678 99.8581124,83.6679604 L99.5264147,83.6679604 C99.4996495,83.0385326 99.3954563,82.8376513 98.6880895,82.8376513 L97.5276255,82.8376513 L97.5276255,85.1697866 C97.5276255,85.397452 97.5276255,85.440498 97.9109419,85.440498 L98.4261726,85.440498 C99.1163332,85.440498 99.7711254,85.4318888 100.023483,85.2836193 C100.434521,85.0387355 100.582685,84.5939271 100.643863,84.1481621 L101.053945,84.1481621 C100.897177,84.9344686 100.861809,85.1353498 100.757615,85.8948722 C99.6917856,85.8422604 99.1421425,85.8422604 98.4529378,85.8422604 C97.5448318,85.8422604 96.8546712,85.8604354 95.7725911,85.8948722 L95.7725911,85.5725056 C96.2524535,85.589724 96.5669449,85.6069424 96.5669449,84.951687 L96.5669449,80.7150065 Z" id="Combined-Shape-Copy-2" fill="#FFFFFF"></path>
    </g>
</svg>