<svg height="150" viewBox="0 0 250 150" width="250" xmlns="http://www.w3.org/2000/svg" xmlns:xlink="http://www.w3.org/1999/xlink"><defs><path id="a" d="m4.79999971 16h96.40000029c2.650967 0 4.8 2.1490331 4.8 4.7999997v83.4000003c0 2.650967-2.149033 4.8-4.8 4.8h-96.40000029c-2.65096664 0-4.79999971-2.149033-4.79999971-4.8v-83.4000003c0-2.6509666 2.14903307-4.7999997 4.79999971-4.7999997z"/><filter id="b" height="138.7%" width="134%" x="-17%" y="-19.4%"><feOffset dx="0" dy="0" in="SourceAlpha" result="shadowOffsetOuter1"/><feGaussianBlur in="shadowOffsetOuter1" result="shadowBlurOuter1" stdDeviation="6"/><feColorMatrix in="shadowBlurOuter1" type="matrix" values="0 0 0 0 0   0 0 0 0 0   0 0 0 0 0  0 0 0 0.15 0"/></filter></defs><g fill="none" fill-rule="evenodd"><g transform="translate(66 18)"><path d="m30.7999997 0h86.4000003c2.650967 0 4.8 2.14903307 4.8 4.79999971v70.40000059c0 2.6509666-2.149033 4.7999997-4.8 4.7999997h-86.4000003c-2.6509666 0-4.7999997-2.1490331-4.7999997-4.7999997v-70.40000059c0-2.65096664 2.1490331-4.79999971 4.7999997-4.79999971z" fill="#c9ced7"/><use fill="#000" filter="url(#b)" xlink:href="#a"/><use fill="#fff" fill-rule="evenodd" xlink:href="#a"/><g fill="#c9ced7"><path d="m86.7081475 79c1.1045695 0 2 .8954305 2 2 0 1.0543618-.8158778 1.9181651-1.8507376 1.9945143l-.1492624.0054857h-66.7081475c-1.1045695 0-2-.8954305-2-2 0-1.0543618.8158778-1.9181651 1.8507377-1.9945143l.1492623-.0054857z" transform="matrix(1 0 0 -1 0 162)"/><path d="m67.5 88c1.1045695 0 2 .8954305 2 2 0 1.0543618-.8158778 1.9181651-1.8507377 1.9945143l-.1492623.0054857h-29.5c-1.1045695 0-2-.8954305-2-2 0-1.0543618.8158778-1.9181651 1.8507377-1.9945143l.1492623-.0054857z" transform="matrix(1 0 0 -1 0 180)"/></g></g><path d="m216 105c-3.865993 0-7 3.134007-7 7s3.134007 7 7 7 7-3.134007 7-7-3.134007-7-7-7zm0 2c2.761424 0 5 2.238576 5 5s-2.238576 5-5 5-5-2.238576-5-5 2.238576-5 5-5z" fill="#8fa2b3"/><path d="m47 26c-3.3137085 0-6 2.6862915-6 6s2.6862915 6 6 6 6-2.6862915 6-6-2.6862915-6-6-6zm0 2c2.209139 0 4 1.790861 4 4s-1.790861 4-4 4-4-1.790861-4-4 1.790861-4 4-4z" fill="#e2e7f1"/><circle cx="228" cy="46" fill="#c9ced7" r="5"/><circle cx="30" cy="117" fill="#8fa2b3" r="5"/><path d="m199 59c.744255 0 1.353999.5759137 1.407892 1.3064031l.003873.1053616-.000765 3.1762353 3.177235.0002353c.779696 0 1.411765.6320686 1.411765 1.4117647 0 .7442554-.575914 1.3539989-1.306403 1.4078924l-.105362.0038723-3.177235-.0007647.000765 3.1772353c0 .7796961-.632069 1.4117647-1.411765 1.4117647-.744255 0-1.353999-.5759137-1.407892-1.3064031l-.003873-.1053616-.000235-3.1772353-3.176235.0007647c-.779696 0-1.411765-.6320686-1.411765-1.4117647 0-.7442554.575914-1.3539989 1.306403-1.4078924l.105362-.0038723 3.176235-.0002353.000235-3.1762353c0-.7796961.632069-1.4117647 1.411765-1.4117647z" fill="#e2e7f1"/><path d="m44 80c.7442554 0 1.3539989.5759137 1.4078924 1.3064031l.0038723.1053616-.0007647 3.1762353 3.1772353.0002353c.7796961 0 1.4117647.6320686 1.4117647 1.4117647 0 .7442554-.5759137 1.3539989-1.3064031 1.4078924l-.1053616.0038723-3.1772353-.0007647.0007647 3.1772353c0 .7796961-.6320686 1.4117647-1.4117647 1.4117647-.7442554 0-1.3539989-.5759137-1.4078924-1.3064031l-.0038723-.1053616-.0002353-3.1772353-3.1762353.0007647c-.7796961 0-1.4117647-.6320686-1.4117647-1.4117647 0-.7442554.5759137-1.3539989 1.3064031-1.4078924l.1053616-.0038723 3.1762353-.0002353.0002353-3.1762353c0-.7796961.6320686-1.4117647 1.4117647-1.4117647z" fill="#c9ced7"/><g transform="translate(98 45)"><circle cx="21" cy="21" fill="#e2e7f1" r="21"/><path d="m29.4423564 26.7609602-5.0300975-1.3628278v-1.9652509c1.7333527-1.2695617 2.3913776-3.5355484 2.3913776-5.6483121v-3.3385474c0-1.5702973-1.3000146-2.8550861-2.9027856-2.8550861h-.3617599l-.7612438-1.4989202c-.1837817-.36259593-.6258253-.5243842-.9962908-.37877481l-4.56456 1.79584921c-1.1162328.4396832-2.0206327 1.7549263-2.0206327 2.9378836v3.3375957c0 2.1127637.7167108 4.3787504 2.4500636 5.6483121v1.9652509l-5.0887837 1.3628278c-1.2913091.3178663-2.1976436 1.4599008-2.1976436 2.7694335v1.1296063c0 .7731987.6268013 1.4 1.4 1.4h18.48c.7731987 0 1.4-.6268013 1.4-1.4v-1.1296063c0-1.3095327-.9063345-2.4515672-2.1976436-2.7694335z" fill="#fff"/></g></g></svg>