<svg height="150" viewBox="0 0 250 150" width="250" xmlns="http://www.w3.org/2000/svg" xmlns:xlink="http://www.w3.org/1999/xlink"><defs><rect id="a" height="48" rx="4.8" width="57" x="66" y="57"/><mask id="b" fill="#fff" height="48" width="57" x="0" y="0"><use xlink:href="#a"/></mask><rect id="c" height="48" rx="4.8" width="57" x="47" y="42"/><filter id="d" height="193.8%" width="178.9%" x="-39.5%" y="-46.9%"><feOffset dx="0" dy="0" in="SourceAlpha" result="shadowOffsetOuter1"/><feGaussianBlur in="shadowOffsetOuter1" result="shadowBlurOuter1" stdDeviation="7.5"/><feColorMatrix in="shadowBlurOuter1" type="matrix" values="0 0 0 0 0   0 0 0 0 0   0 0 0 0 0  0 0 0 0.0608063811 0"/></filter></defs><g fill="none" fill-rule="evenodd"><g transform="translate(64 29)"><rect fill="#c9ced7" height="48" rx="4.8" width="57" y="57"/><use mask="url(#b)" stroke="#c9ced7" stroke-dasharray="2" stroke-width="3" xlink:href="#a"/><rect fill="#c9ced7" height="48" rx="4.8" width="123"/><use fill="#000" filter="url(#d)" xlink:href="#c"/><use fill="#fff" fill-rule="evenodd" xlink:href="#c"/><path d="m82.7081475 17c1.1045695 0 2 .8954305 2 2 0 1.0543618-.8158778 1.9181651-1.8507376 1.9945143l-.1492624.0054857h-66.7081475c-1.1045695 0-2-.8954305-2-2 0-1.0543618.8158778-1.9181651 1.8507377-1.9945143l.1492623-.0054857z" fill="#8fa2b3"/><path d="m45.5 28c1.1045695 0 2 .8954305 2 2 0 1.0543618-.8158778 1.9181651-1.8507377 1.9945143l-.1492623.0054857h-29.5c-1.1045695 0-2-.8954305-2-2 0-1.0543618.8158778-1.9181651 1.8507377-1.9945143l.1492623-.0054857z" fill="#8fa2b3"/><path d="m88.7105595 56.7382127c.6344262-.8451889 1.7952767-.9853293 2.5928322-.3130124.7576777.638701.9149103 1.7808749.3847982 2.6181393l-.0894266.1295479-10.4847596 12.881186c-.6704879.8932305-1.9067887.9835093-2.6864941.2287152l-.1081699-.113581-8.4945464-5.9768877-9.5271172 10.058417c-.5972386.8075035-1.6738824.9823393-2.4677533.4266045l-.122887-.0938331c-.761994-.6329082-.9269763-1.7738538-.4025618-2.615138l.0885448-.1302263 10.8595035-11.8586628c.6689451-.9044552 1.9158406-.9986004 2.69906-.2355456l.1038307.1093705 8.5042465 5.9876528z" fill="#c9ced7"/></g><g fill="#c9ced7"><path d="m211 16c-3.865993 0-7 3.1340068-7 7s3.134007 7 7 7 7-3.1340068 7-7-3.134007-7-7-7zm0 2c2.761424 0 5 2.2385763 5 5s-2.238576 5-5 5-5-2.2385763-5-5 2.238576-5 5-5z"/><path d="m6 117c-3.3137085 0-6 2.686292-6 6s2.6862915 6 6 6 6-2.686292 6-6-2.6862915-6-6-6zm0 2c2.209139 0 4 1.790861 4 4s-1.790861 4-4 4-4-1.790861-4-4 1.790861-4 4-4z"/><circle cx="245" cy="104" r="5"/><circle cx="19" cy="59" r="5"/></g><path d="m223 70c.744255 0 1.353999.5759137 1.407892 1.3064031l.003873.1053616-.000765 3.1762353 3.177235.0002353c.779696 0 1.411765.6320686 1.411765 1.4117647 0 .7442554-.575914 1.3539989-1.306403 1.4078924l-.105362.0038723-3.177235-.0007647.000765 3.1772353c0 .7796961-.632069 1.4117647-1.411765 1.4117647-.744255 0-1.353999-.5759137-1.407892-1.3064031l-.003873-.1053616-.000235-3.1772353-3.176235.0007647c-.779696 0-1.411765-.6320686-1.411765-1.4117647 0-.7442554.575914-1.3539989 1.306403-1.4078924l.105362-.0038723 3.176235-.0002353.000235-3.1762353c0-.7796961.632069-1.4117647 1.411765-1.4117647z" fill="#8fa2b3"/><path d="m59 5c.7442554 0 1.3539989.57591373 1.4078924 1.30640305l.0038723.10536166-.0007647 3.17623529 3.1772353.00023529c.7796961 0 1.4117647.63206861 1.4117647 1.41176471 0 .7442554-.5759137 1.3539989-1.3064031 1.4078924l-.1053616.0038723-3.1772353-.0007647.0007647 3.1772353c0 .7796961-.6320686 1.4117647-1.4117647 1.4117647-.7442554 0-1.3539989-.5759137-1.4078924-1.3064031l-.0038723-.1053616-.0002353-3.1772353-3.1762353.0007647c-.7796961 0-1.4117647-.6320686-1.4117647-1.4117647 0-.7442554.5759137-1.35399891 1.3064031-1.40789242l.1053616-.00387229 3.1762353-.00023529.0002353-3.17623529c0-.77969612.6320686-1.41176471 1.4117647-1.41176471z" fill="#8fa2b3"/><path d="m33 100c.7442554 0 1.3539989.575914 1.4078924 1.306403l.0038723.105362-.0007647 3.176235 3.1772353.000235c.7796961 0 1.4117647.632069 1.4117647 1.411765 0 .744255-.5759137 1.353999-1.3064031 1.407892l-.1053616.003873-3.1772353-.000765.0007647 3.177235c0 .779696-.6320686 1.411765-1.4117647 1.411765-.7442554 0-1.3539989-.575914-1.4078924-1.306403l-.0038723-.105362-.0002353-3.177235-3.1762353.000765c-.7796961 0-1.4117647-.632069-1.4117647-1.411765 0-.744255.5759137-1.353999 1.3064031-1.407892l.1053616-.003873 3.1762353-.000235.0002353-3.176235c0-.779696.6320686-1.411765 1.4117647-1.411765z" fill="#c9ced7"/></g></svg>