<svg height="150" viewBox="0 0 250 150" width="250" xmlns="http://www.w3.org/2000/svg"><g fill="none" fill-rule="evenodd"><path d="m193 96c-3.865993 0-7 3.1340068-7 7 0 3.865993 3.134007 7 7 7s7-3.134007 7-7c0-3.8659932-3.134007-7-7-7zm0 2c2.761424 0 5 2.238576 5 5s-2.238576 5-5 5-5-2.238576-5-5 2.238576-5 5-5z" fill="#8fa2b3"/><path d="m53 82c-3.3137085 0-6 2.6862915-6 6s2.6862915 6 6 6 6-2.6862915 6-6-2.6862915-6-6-6zm0 2c2.209139 0 4 1.790861 4 4s-1.790861 4-4 4-4-1.790861-4-4 1.790861-4 4-4z" fill="#c9ced7"/><circle cx="203" cy="45" fill="#c9ced7" r="5"/><path d="m226 63c.744255 0 1.353999.5759137 1.407892 1.3064031l.003873.1053616-.000765 3.1762353 3.177235.0002353c.779696 0 1.411765.6320686 1.411765 1.4117647 0 .7442554-.575914 1.3539989-1.306403 1.4078924l-.105362.0038723-3.177235-.0007647.000765 3.1772353c0 .7796961-.632069 1.4117647-1.411765 1.4117647-.744255 0-1.353999-.5759137-1.407892-1.3064031l-.003873-.1053616-.000235-3.1772353-3.176235.0007647c-.779696 0-1.411765-.6320686-1.411765-1.4117647 0-.7442554.575914-1.3539989 1.306403-1.4078924l.105362-.0038723 3.176235-.0002353.000235-3.1762353c0-.7796961.632069-1.4117647 1.411765-1.4117647z" fill="#e2e7f1"/><path d="m44 45c.7442554 0 1.3539989.5759137 1.4078924 1.3064031l.0038723.1053616-.0007647 3.1762353 3.1772353.0002353c.7796961 0 1.4117647.6320686 1.4117647 1.4117647 0 .7442554-.5759137 1.3539989-1.3064031 1.4078924l-.1053616.0038723-3.1772353-.0007647.0007647 3.1772353c0 .7796961-.6320686 1.4117647-1.4117647 1.4117647-.7442554 0-1.3539989-.5759137-1.4078924-1.3064031l-.0038723-.1053616-.0002353-3.1772353-3.1762353.0007647c-.7796961 0-1.4117647-.6320686-1.4117647-1.4117647 0-.7442554.5759137-1.3539989 1.3064031-1.4078924l.1053616-.0038723 3.1762353-.0002353.0002353-3.1762353c0-.7796961.6320686-1.4117647 1.4117647-1.4117647z" fill="#e2e7f1"/><circle cx="125.5" cy="75.5" fill="#c9ced7" r="48.5"/><path d="m125.000462 100c-3.31304 0-6.000461-2.7953726-6.000461-6.2472172h12c.000615 3.4518446-2.686498 6.2472172-5.999539 6.2472172zm19.999538-11.121655c-.001516 2.3414884-1.775146 2.4957688-3.962207 2.4957688h-32.077709c-2.187972 0-3.960084-.1542804-3.960084-2.4960936v-.4034025c0-1.6840918.924303-3.126207 2.252324-3.8102373l1.257295-11.6126004c0-8.5013342 5.618668-15.5969309 13.098691-17.2709539v-2.1518276c0-2.0040205 1.518649-3.6289985 3.39245-3.6289985 1.872889 0 3.391538 1.624978 3.391538 3.6289985v2.1521524c7.480023 1.6736982 13.098692 8.7686453 13.098692 17.2709539l1.257294 11.6142244c1.328022.6850047 2.251716 2.1245215 2.251716 3.8086133z" fill="#fff"/></g></svg>