<svg height="150" viewBox="0 0 250 150" width="250" xmlns="http://www.w3.org/2000/svg" xmlns:xlink="http://www.w3.org/1999/xlink"><defs><path id="a" d="m4.79999971 34h113.40000029c2.650967 0 4.8 2.1490331 4.8 4.7999997v42.4000006c0 2.6509666-2.149033 4.7999997-4.8 4.7999997h-113.40000029c-2.65096664 0-4.79999971-2.1490331-4.79999971-4.7999997v-42.4000006c0-2.6509666 2.14903307-4.7999997 4.79999971-4.7999997z"/><filter id="b" height="150%" width="121.1%" x="-10.6%" y="-21.2%"><feOffset dx="0" dy="2" in="SourceAlpha" result="shadowOffsetOuter1"/><feGaussianBlur in="shadowOffsetOuter1" result="shadowBlurOuter1" stdDeviation="4"/><feColorMatrix in="shadowBlurOuter1" type="matrix" values="0 0 0 0 0   0 0 0 0 0   0 0 0 0 0  0 0 0 0.07 0"/></filter></defs><g fill="none" fill-rule="evenodd"><g transform="translate(46 32)"><rect fill="#e2e7f1" height="48" rx="4.8" width="57" x="85"/><path d="m23.7999997 0h113.4000003c2.650967 0 4.8 2.14903307 4.8 4.79999971v42.40000059c0 2.6509666-2.149033 4.7999997-4.8 4.7999997h-113.4000003c-2.6509666 0-4.7999997-2.1490331-4.7999997-4.7999997v-42.40000059c0-2.65096664 2.1490331-4.79999971 4.7999997-4.79999971z" fill="#c9ced7"/><use fill="#000" filter="url(#b)" xlink:href="#a"/><use fill="#fff" fill-rule="evenodd" xlink:href="#a"/><g fill="#8fa2b3"><path d="m83.7081475 64c1.1045695 0 2 .8954305 2 2 0 1.0543618-.8158778 1.9181651-1.8507376 1.9945143l-.1492624.0054857h-66.7081475c-1.1045695 0-2-.8954305-2-2 0-1.0543618.8158778-1.9181651 1.8507377-1.9945143l.1492623-.0054857z" transform="matrix(1 0 0 -1 0 132)"/><path d="m46.5 53c1.1045695 0 2 .8954305 2 2 0 1.0543618-.8158778 1.9181651-1.8507377 1.9945143l-.1492623.0054857h-29.5c-1.1045695 0-2-.8954305-2-2 0-1.0543618.8158778-1.9181651 1.8507377-1.9945143l.1492623-.0054857z" transform="matrix(1 0 0 -1 0 110)"/></g></g><path d="m147.708148 51c1.104569 0 2 .8954305 2 2 0 1.0543618-.815878 1.9181651-1.850738 1.9945143l-.149262.0054857h-66.708148c-1.1045695 0-2-.8954305-2-2 0-1.0543618.8158778-1.9181651 1.8507377-1.9945143l.1492623-.0054857z" fill="#fff" fill-rule="nonzero" opacity=".6"/><path d="m204 19c-3.865993 0-7 3.1340068-7 7s3.134007 7 7 7 7-3.1340068 7-7-3.134007-7-7-7zm0 2c2.761424 0 5 2.2385763 5 5s-2.238576 5-5 5-5-2.2385763-5-5 2.238576-5 5-5z" fill="#c9ced7"/><path d="m79 130c-3.3137085 0-6 2.686292-6 6s2.6862915 6 6 6 6-2.686292 6-6-2.6862915-6-6-6zm0 2c2.209139 0 4 1.790861 4 4s-1.790861 4-4 4-4-1.790861-4-4 1.790861-4 4-4z" fill="#8fa2b3"/><circle cx="238" cy="107" fill="#c9ced7" r="5"/><circle cx="12" cy="62" fill="#c9ced7" r="5"/><path d="m216 73c.744255 0 1.353999.5759137 1.407892 1.3064031l.003873.1053616-.000765 3.1762353 3.177235.0002353c.779696 0 1.411765.6320686 1.411765 1.4117647 0 .7442554-.575914 1.3539989-1.306403 1.4078924l-.105362.0038723-3.177235-.0007647.000765 3.1772353c0 .7796961-.632069 1.4117647-1.411765 1.4117647-.744255 0-1.353999-.5759137-1.407892-1.3064031l-.003873-.1053616-.000235-3.1772353-3.176235.0007647c-.779696 0-1.411765-.6320686-1.411765-1.4117647 0-.7442554.575914-1.3539989 1.306403-1.4078924l.105362-.0038723 3.176235-.0002353.000235-3.1762353c0-.7796961.632069-1.4117647 1.411765-1.4117647z" fill="#8fa2b3"/><path d="m52 8c.7442554 0 1.3539989.57591373 1.4078924 1.30640305l.0038723.10536166-.0007647 3.17623529 3.1772353.0002353c.7796961 0 1.4117647.6320686 1.4117647 1.4117647 0 .7442554-.5759137 1.3539989-1.3064031 1.4078924l-.1053616.0038723-3.1772353-.0007647.0007647 3.1772353c0 .7796961-.6320686 1.4117647-1.4117647 1.4117647-.7442554 0-1.3539989-.5759137-1.4078924-1.3064031l-.0038723-.1053616-.0002353-3.1772353-3.1762353.0007647c-.7796961 0-1.4117647-.6320686-1.4117647-1.4117647 0-.7442554.5759137-1.3539989 1.3064031-1.4078924l.1053616-.0038723 3.1762353-.0002353.0002353-3.17623529c0-.77969612.6320686-1.41176471 1.4117647-1.41176471z" fill="#8fa2b3"/><path d="m26 103c.7442554 0 1.3539989.575914 1.4078924 1.306403l.0038723.105362-.0007647 3.176235 3.1772353.000235c.7796961 0 1.4117647.632069 1.4117647 1.411765 0 .744255-.5759137 1.353999-1.3064031 1.407892l-.1053616.003873-3.1772353-.000765.0007647 3.177235c0 .779696-.6320686 1.411765-1.4117647 1.411765-.7442554 0-1.3539989-.575914-1.4078924-1.306403l-.0038723-.105362-.0002353-3.177235-3.1762353.000765c-.7796961 0-1.4117647-.632069-1.4117647-1.411765 0-.744255.5759137-1.353999 1.3064031-1.407892l.1053616-.003873 3.1762353-.000235.0002353-3.176235c0-.779696.6320686-1.411765 1.4117647-1.411765z" fill="#c9ced7"/></g></svg>