<svg height="150" viewBox="0 0 250 150" width="250" xmlns="http://www.w3.org/2000/svg" xmlns:xlink="http://www.w3.org/1999/xlink"><defs><path id="a" d="m15.7999997 10h69.4000006c2.6509666 0 4.7999997 2.1490331 4.7999997 4.7999997v83.4000006c0 2.6509667-2.1490331 4.7999997-4.7999997 4.7999997h-69.4000006c-2.6509666 0-4.7999997-2.149033-4.7999997-4.7999997v-83.4000006c0-2.6509666 2.1490331-4.7999997 4.7999997-4.7999997z"/><filter id="b" height="138.7%" width="145.6%" x="-22.8%" y="-19.4%"><feOffset dx="0" dy="0" in="SourceAlpha" result="shadowOffsetOuter1"/><feGaussianBlur in="shadowOffsetOuter1" result="shadowBlurOuter1" stdDeviation="6"/><feColorMatrix in="shadowBlurOuter1" type="matrix" values="0 0 0 0 0   0 0 0 0 0   0 0 0 0 0  0 0 0 0.15 0"/></filter></defs><g fill="none" fill-rule="evenodd"><g transform="translate(80 29)"><path d="m4.79999971 0h69.40000059c2.6509666 0 4.7999997 2.14903307 4.7999997 4.79999971v83.40000059c0 2.6509666-2.1490331 4.7999997-4.7999997 4.7999997h-69.40000059c-2.65096664 0-4.79999971-2.1490331-4.79999971-4.7999997v-83.40000059c0-2.65096664 2.14903307-4.79999971 4.79999971-4.79999971z" fill="#c9ced7"/><use fill="#000" filter="url(#b)" xlink:href="#a"/><use fill="#fff" fill-rule="evenodd" xlink:href="#a"/><g fill="#8fa2b3"><path d="m77.7081475 25c1.1045695 0 2 .8954305 2 2 0 1.0543618-.8158778 1.9181651-1.8507376 1.9945143l-.1492624.0054857h-33.7081475c-1.1045695 0-2-.8954305-2-2 0-1.0543618.8158778-1.9181651 1.8507377-1.9945143l.1492623-.0054857z"/><path d="m77.7081475 51c1.1045695 0 2 .8954305 2 2 0 1.0543618-.8158778 1.9181651-1.8507376 1.9945143l-.1492624.0054857h-33.7081475c-1.1045695 0-2-.8954305-2-2 0-1.0543618.8158778-1.9181651 1.8507377-1.9945143l.1492623-.0054857z"/><path d="m70.7081475 80c1.1045695 0 2 .8954305 2 2 0 1.0543618-.8158778 1.9181651-1.8507376 1.9945143l-.1492624.0054857h-26.7081475c-1.1045695 0-2-.8954305-2-2 0-1.0543618.8158778-1.9181651 1.8507377-1.9945143l.1492623-.0054857z"/><path d="m68.3074561 34c1.1045695 0 2 .8954305 2 2 0 1.0543618-.8158778 1.9181651-1.8507377 1.9945143l-.1492623.0054857h-24.3074561c-1.1045695 0-2-.8954305-2-2 0-1.0543618.8158778-1.9181651 1.8507377-1.9945143l.1492623-.0054857z"/><path d="m60.5 60c1.1045695 0 2 .8954305 2 2 0 1.0543618-.8158778 1.9181651-1.8507377 1.9945143l-.1492623.0054857h-16.5c-1.1045695 0-2-.8954305-2-2 0-1.0543618.8158778-1.9181651 1.8507377-1.9945143l.1492623-.0054857z"/></g><path d="m25.093 33.812-2.1962248-2.1608413-.1308845-.1138271c-.6168298-.4524735-1.4066239-.4246209-1.9488481.0278134l-.1326987.1246055-.1340122.1565813c-.4672575.6604723-.3943259 1.5059336.1478643 2.0395671l3.505115 3.4497984.1204354.1047274.1470534.0967498c.2978149.1748343.616191.2381248.9247613.1979312l.0784389-.0151057-.0705348.0071802c.413086-.0180608.8009646-.2159233 1.0576734-.5508001l7.9830292-10.4138697c.4837891-.6311034.4079939-1.5174512-.1536396-2.0583259l-.1574844-.1339111c-.6793894-.520804-1.6523384-.3922452-2.1731424.2871442z" fill="#5f7b93"/><path d="m25.093 59.812-2.1962248-2.1608413-.1308845-.1138271c-.6168298-.4524735-1.4066239-.4246209-1.9488481.0278134l-.1326987.1246055-.1340122.1565813c-.4672575.6604723-.3943259 1.5059336.1478643 2.0395671l3.505115 3.4497984.1204354.1047274.1470534.0967498c.2978149.1748343.616191.2381248.9247613.1979312l.0784389-.0151057-.0705348.0071802c.413086-.0180608.8009646-.2159233 1.0576734-.5508001l7.9830292-10.4138697c.4837891-.6311034.4079939-1.5174512-.1536396-2.0583259l-.1574844-.1339111c-.6793894-.520804-1.6523384-.3922452-2.1731424.2871442z" fill="#5f7b93"/><path d="m25.093 85.812-2.1962248-2.1608413-.1308845-.1138271c-.6168298-.4524735-1.4066239-.4246209-1.9488481.0278134l-.1326987.1246055-.1340122.1565813c-.4672575.6604723-.3943259 1.5059336.1478643 2.0395671l3.505115 3.4497984.1204354.1047274.1470534.0967498c.2978149.1748343.616191.2381248.9247613.1979312l.0784389-.0151057-.0705348.0071802c.413086-.0180608.8009646-.2159233 1.0576734-.5508001l7.9830292-10.4138697c.4837891-.6311034.4079939-1.5174512-.1536396-2.0583259l-.1574844-.1339111c-.6793894-.520804-1.6523384-.3922452-2.1731424.2871442z" fill="#5f7b93"/></g><path d="m195 51c-3.865993 0-7 3.1340068-7 7s3.134007 7 7 7 7-3.1340068 7-7-3.134007-7-7-7zm0 2c2.761424 0 5 2.2385763 5 5s-2.238576 5-5 5-5-2.2385763-5-5 2.238576-5 5-5z" fill="#8fa2b3"/><path d="m24 122c-3.3137085 0-6 2.686292-6 6s2.6862915 6 6 6 6-2.686292 6-6-2.6862915-6-6-6zm0 2c2.209139 0 4 1.790861 4 4s-1.790861 4-4 4-4-1.790861-4-4 1.790861-4 4-4z" fill="#e2e7f1"/><circle cx="205" cy="113" fill="#c9ced7" r="5"/><circle cx="37" cy="64" fill="#8fa2b3" r="5"/><path d="m236 63c.744255 0 1.353999.5759137 1.407892 1.3064031l.003873.1053616-.000765 3.1762353 3.177235.0002353c.779696 0 1.411765.6320686 1.411765 1.4117647 0 .7442554-.575914 1.3539989-1.306403 1.4078924l-.105362.0038723-3.177235-.0007647.000765 3.1772353c0 .7796961-.632069 1.4117647-1.411765 1.4117647-.744255 0-1.353999-.5759137-1.407892-1.3064031l-.003873-.1053616-.000235-3.1772353-3.176235.0007647c-.779696 0-1.411765-.6320686-1.411765-1.4117647 0-.7442554.575914-1.3539989 1.306403-1.4078924l.105362-.0038723 3.176235-.0002353.000235-3.1762353c0-.7796961.632069-1.4117647 1.411765-1.4117647z" fill="#e2e7f1"/><path d="m79 12c.7442554 0 1.3539989.5759137 1.4078924 1.3064031l.0038723.1053616-.0007647 3.1762353 3.1772353.0002353c.7796961 0 1.4117647.6320686 1.4117647 1.4117647 0 .7442554-.5759137 1.3539989-1.3064031 1.4078924l-.1053616.0038723-3.1772353-.0007647.0007647 3.1772353c0 .7796961-.6320686 1.4117647-1.4117647 1.4117647-.7442554 0-1.3539989-.5759137-1.4078924-1.3064031l-.0038723-.1053616-.0002353-3.1772353-3.1762353.0007647c-.7796961 0-1.4117647-.6320686-1.4117647-1.4117647 0-.7442554.5759137-1.3539989 1.3064031-1.4078924l.1053616-.0038723 3.1762353-.0002353.0002353-3.1762353c0-.7796961.6320686-1.4117647 1.4117647-1.4117647z" fill="#e2e7f1"/><path d="m51 105c.7442554 0 1.3539989.575914 1.4078924 1.306403l.0038723.105362-.0007647 3.176235 3.1772353.000235c.7796961 0 1.4117647.632069 1.4117647 1.411765 0 .744255-.5759137 1.353999-1.3064031 1.407892l-.1053616.003873-3.1772353-.000765.0007647 3.177235c0 .779696-.6320686 1.411765-1.4117647 1.411765-.7442554 0-1.3539989-.575914-1.4078924-1.306403l-.0038723-.105362-.0002353-3.177235-3.1762353.000765c-.7796961 0-1.4117647-.632069-1.4117647-1.411765 0-.744255.5759137-1.353999 1.3064031-1.407892l.1053616-.003873 3.1762353-.000235.0002353-3.176235c0-.779696.6320686-1.411765 1.4117647-1.411765z" fill="#c9ced7"/></g></svg>