<?xml version="1.0" encoding="UTF-8"?>
<svg width="25px" height="25px" viewBox="0 0 25 25" version="1.1" xmlns="http://www.w3.org/2000/svg" xmlns:xlink="http://www.w3.org/1999/xlink">
    <title>Search</title>
    <g id="Search" stroke="none" stroke-width="1" fill="none" fill-rule="evenodd">
        <path d="M16.118159,14.5576432 L16.1025703,14.5452719 L16.1020098,14.5448487 C16.0880851,14.5343754 16.0880851,14.5343754 16.0687249,14.5180431 L16.0432589,14.3234747 C16.68603,13.348445 17.0339273,12.2085452 17.0339273,11.0170236 C17.0339273,7.69390596 14.3400394,5 11.0169636,5 C7.69389692,5 5,7.69389692 5,11.0169636 C5,14.3400032 7.69386979,17.0339273 11.0169037,17.0339273 C12.2084632,17.0339273 13.3483055,16.686043 14.3233549,16.0432589 L14.5177587,16.0685405 C14.5344578,16.0883084 14.5344578,16.0883084 14.5450335,16.102396 L14.5574635,16.118099 L17.8161901,19.3768256 C18.2471431,19.8077259 18.9458329,19.8077259 19.3768256,19.3768386 C19.8077248,18.9458867 19.8077248,18.2472019 19.3768256,17.81625 L16.118159,14.5576432 Z M10.9863941,15.2272727 C8.64416215,15.2272727 6.74545455,13.3285846 6.74545455,10.9863941 C6.74545455,8.64417306 8.64419257,6.74545455 10.9863941,6.74545455 C13.3285238,6.74545455 15.2272727,8.64422299 15.2272727,10.9863941 C15.2272727,13.3285542 13.3285347,15.2272727 10.9863941,15.2272727 Z" id="Shape" fill="#AEBCC8"></path>
    </g>
</svg>