<?xml version="1.0" encoding="UTF-8"?>
<svg width="25px" height="25px" viewBox="0 0 25 25" version="1.1" xmlns="http://www.w3.org/2000/svg" xmlns:xlink="http://www.w3.org/1999/xlink">
    <title>Attachment</title>
    <g id="Attachment" stroke="none" stroke-width="1" fill="none" fill-rule="evenodd">
        <path d="M12.5,23.5 C8.91547852,23.5 6,20.4163208 6,16.625 L6,7 C6,6.49310303 6.38831788,6.08338929 6.86661376,6.08338929 C7.34506836,6.08338929 7.73338624,6.49310303 7.73338624,7 L7.73338624,16.625 C7.73338624,19.4043732 9.87143555,21.6666107 12.5,21.6666107 C15.1285645,21.6666107 17.2666138,19.4043732 17.2666138,16.625 L17.2666138,6.54161071 C17.2666138,4.7725067 15.9059937,3.33338929 14.2333862,3.33338929 C12.5606201,3.33338929 11.2,4.7725067 11.2,6.54161071 L11.2,15.7083893 C11.2,16.4663849 11.7831909,17.0833893 12.5,17.0833893 C13.2168091,17.0833893 13.8,16.4663849 13.8,15.7083893 L13.8,7 C13.8,6.49310303 14.1883179,6.08338929 14.6666138,6.08338929 C15.1450684,6.08338929 15.5333862,6.49310303 15.5333862,7 L15.5333862,15.7083893 C15.5333862,17.4774933 14.1726074,18.9166107 12.5,18.9166107 C10.8273926,18.9166107 9.46661376,17.4774933 9.46661376,15.7083893 L9.46661376,6.54161071 C9.46661376,3.76240541 11.6046631,1.5 14.2333862,1.5 C16.8619507,1.5 19,3.76240541 19,6.54161071 L19,16.625 C19,20.4163208 16.0845215,23.5 12.5,23.5 Z" id="Path" fill="#8FA2B3"></path>
    </g>
</svg>