<?xml version="1.0" encoding="UTF-8"?>
<svg width="25px" height="25px" viewBox="0 0 25 25" version="1.1" xmlns="http://www.w3.org/2000/svg" xmlns:xlink="http://www.w3.org/1999/xlink">
    <title>More</title>
    <g id="More" stroke="none" stroke-width="1" fill="none" fill-rule="evenodd">
        <path d="M6,11 C6.82842712,11 7.5,11.6715729 7.5,12.5 C7.5,13.3284271 6.82842712,14 6,14 C5.17157288,14 4.5,13.3284271 4.5,12.5 C4.5,11.6715729 5.17157288,11 6,11 Z M12.5,11 C13.3284271,11 14,11.6715729 14,12.5 C14,13.3284271 13.3284271,14 12.5,14 C11.6715729,14 11,13.3284271 11,12.5 C11,11.6715729 11.6715729,11 12.5,11 Z M19,11 C19.8284271,11 20.5,11.6715729 20.5,12.5 C20.5,13.3284271 19.8284271,14 19,14 C18.1715729,14 17.5,13.3284271 17.5,12.5 C17.5,11.6715729 18.1715729,11 19,11 Z" id="Combined-Shape" fill="#8FA2B3"></path>
    </g>
</svg>