<?xml version="1.0" encoding="UTF-8"?>
<svg width="19px" height="8px" viewBox="0 0 19 8" version="1.1" xmlns="http://www.w3.org/2000/svg" xmlns:xlink="http://www.w3.org/1999/xlink">
    <title>EEEAE736-EEE0-4DCB-926C-AA5CFDE4572B@3x</title>
    <g id="Impersonation" stroke="none" stroke-width="1" fill="none" fill-rule="evenodd">
        <g id="Imp---Profile-Menu-A02" transform="translate(-31.000000, -79.000000)" fill="#8FA2B3">
            <g id="01" transform="translate(0.000000, 39.000000)">
                <g id="impersonation_icon" transform="translate(31.640000, 40.040000)">
                    <path d="M16.9638749,1.10606254 C15.7163918,0.42888207 14.4057445,-0.0449982179 12.9587119,0.00339552453 C12.1299441,0.0313762686 11.3273648,0.231655995 10.5249514,0.422675191 C10.0817404,0.527992986 9.63856259,0.635202717 9.19767501,0.750843182 C9.06321476,0.786225713 8.93094517,0.801560355 8.79997006,0.806671903 C8.66909453,0.801792698 8.53679175,0.786225713 8.40246426,0.750843182 C7.96144392,0.635202717 7.51839888,0.527992986 7.07505511,0.422675191 C6.27254214,0.231821955 5.47006237,0.0313762686 4.64129463,0.00339552453 C3.19412922,-0.0449982179 1.88351516,0.429014838 0.636131594,1.10606254 C0.0683847055,1.41424903 -0.0794850629,1.68771683 0.0369520073,2.18977701 C0.175428477,2.78679912 0.359908875,3.37754798 0.624514441,3.92816786 C0.859446477,4.41738279 1.1168826,4.89836614 1.40385948,5.36557486 C1.8686452,6.12185156 2.3710373,6.80454188 3.24836474,7.11963228 C3.78086186,7.31078424 4.32421273,7.41736333 4.88777744,7.38344124 C5.20170612,7.36438911 5.48612723,7.23006162 5.76643255,7.09112046 C6.04481274,6.95294272 6.32923385,6.82558553 6.57956691,6.63894766 C6.82810761,6.45350469 7.09238126,6.28077422 7.30816159,6.06114363 C7.30816159,6.06114363 8.20075728,5.1923797 8.80000325,5.05888201 C9.39958114,5.19254566 10.2918449,6.06114363 10.2918449,6.06114363 C10.5076252,6.28077422 10.7719321,6.45350469 11.0207051,6.63894766 C11.2708722,6.82558553 11.5555921,6.95277676 11.8338063,7.09112046 C12.1138793,7.23006162 12.3983004,7.36435591 12.7124614,7.38344124 C13.2760261,7.41733013 13.8193106,7.31078424 14.3518741,7.11963228 C15.2291352,6.80470784 15.7317928,6.12185156 16.1962134,5.36557486 C16.4832567,4.8985321 16.74056,4.41741598 16.9755584,3.92816786 C17.2399981,3.37754798 17.4244785,2.78696508 17.5631209,2.18977701 C17.6794252,1.68771683 17.531489,1.41424903 16.9638749,1.10606254 Z M4.41442822,4.48462952 C3.28816178,4.10152898 2.70391854,2.82390763 2.70391854,2.82390763 C2.70391854,2.82390763 3.94582544,2.16770442 5.07209188,2.55063899 C6.19835832,2.93357356 6.78236922,4.21119491 6.78236922,4.21119491 C6.78236922,4.21119491 5.5405287,4.86756409 4.41442822,4.48462952 Z M13.1856447,4.48462952 C12.0594446,4.86756409 10.8174049,4.21122811 10.8174049,4.21122811 C10.8174049,4.21122811 11.4017146,2.93360675 12.5280474,2.55067218 C13.6540815,2.16773761 14.8959884,2.82394082 14.8959884,2.82394082 C14.8959884,2.82394082 14.3120107,4.10152898 13.1856447,4.48462952 Z" id="Shape"></path>
                </g>
            </g>
        </g>
    </g>
</svg>