<?xml version="1.0" standalone="no"?>
<!DOCTYPE svg PUBLIC "-//W3C//DTD SVG 1.1//EN" "http://www.w3.org/Graphics/SVG/1.1/DTD/svg11.dtd">
<svg xmlns="http://www.w3.org/2000/svg">
<metadata>Copyright (C) 2020 by original authors @ fontello.com</metadata>
<defs>
<font id="etonicon" horiz-adv-x="1000" >
<font-face font-family="etonicon" font-weight="400" font-stretch="normal" units-per-em="1000" ascent="850" descent="-150" />
<missing-glyph horiz-adv-x="1000" />
<glyph glyph-name="add" unicode="&#xe800;" d="M500 690c22 0 40-18 40-40l0-260 260 0c22 0 40-18 40-40 0-22-18-40-40-40l-260 0 0-260c0-22-18-40-40-40-22 0-40 18-40 40l0 260-260 0c-22 0-40 18-40 40 0 22 18 40 40 40l260 0 0 260c0 22 18 40 40 40z" horiz-adv-x="1000" />

<glyph glyph-name="alert-filled" unicode="&#xe801;" d="M779 730c75 0 137-59 141-132l0-7 0-381c0-62-41-115-100-133l-7-2-3 0 0-154c0-10-4-19-12-25l-3-2-4-2c-4-1-8-2-12-2-7 0-13 2-19 6l-3 3-173 172-323 0c-73 0-133 55-140 125l-1 7 0 7 0 381c0 74 59 135 134 139l7 0 518 0z m-263-434c-25 0-46-21-46-46 0-25 21-45 46-45 25 0 45 20 45 45 0 25-20 46-45 46z m27 289l-55 0c-7 0-14-3-20-7-5-5-8-12-7-18l0 0 23-202c1-15 15-26 31-26 17 0 31 11 32 25l0 0 24 203c0 6-3 13-8 18-5 4-12 7-20 7l0 0z" horiz-adv-x="1000" />

<glyph glyph-name="alert" unicode="&#xe802;" d="M779 730c75 0 137-59 141-132l0-7 0-381c0-62-41-115-100-133l-7-2-3 0 0-154c0-10-4-19-12-25l-3-2-4-2c-4-1-8-2-12-2-7 0-13 2-19 6l-3 3-173 172-323 0c-73 0-133 55-140 125l-1 7 0 7 0 381c0 74 59 135 134 139l7 0 518 0z m0-62l-518 0c-42 0-76-31-79-72l0-5 0-381c0-41 32-74 73-77l6 0 335 0c7 0 14-3 19-7l3-2 130-129 0 107c0 16 12 28 27 30l4 1c42 0 76 32 79 72l0 5 0 381c0 43-35 77-79 77z m-263-372c25 0 45-21 45-46 0-25-20-45-45-45-25 0-46 20-46 45 0 25 21 46 46 46z m27 289c8 0 15-3 20-7 5-5 8-12 8-18l-24-203c-1-14-15-25-32-25-16 0-30 11-31 26l-23 202c-1 6 2 13 7 18 6 4 13 7 20 7l55 0z" horiz-adv-x="1000" />

<glyph glyph-name="arrow-down" unicode="&#xe803;" d="M175 378c21 21 54 21 74 0l204-204 0 464c0 29 23 52 52 52 29 0 52-23 52-52l0-462 204 204c19 19 49 20 69 4l5-4c20-21 20-53 0-74l0 0-289-288c-23-24-61-24-85 0l0 0-31 31 1 0-256 256c-20 20-20 53 0 73z" horiz-adv-x="1000" />

<glyph glyph-name="arrow-left" unicode="&#xe804;" d="M538 675c20-20 20-53 0-74l-204-204 464 0c29 0 52-23 52-52 0-29-23-52-52-52l-463 0 205-204c19-19 20-49 3-69l-3-5c-21-20-54-20-74 0l0 0-288 289c-24 23-24 61 0 85l0 0 31 31 0-1 256 256c20 20 53 20 73 0z" horiz-adv-x="1000" />

<glyph glyph-name="arrow-right" unicode="&#xe805;" d="M472 15c-20 21-20 54 0 74l204 204-464 0c-29 0-52 23-52 52 0 29 23 52 52 52l463 0-205 204c-19 19-20 49-3 70l3 4c21 20 54 20 74 0l0 0 288-289c24-23 24-61 0-85l0 0-31-31 0 1-256-256c-20-20-53-20-73 0z" horiz-adv-x="1000" />

<glyph glyph-name="arrow-up" unicode="&#xe806;" d="M835 312c-21-20-54-20-74 0l-204 204 0-464c0-29-23-52-52-52-29 0-52 23-52 52l0 463-204-205c-19-18-49-20-69-3l-5 3c-20 21-20 54 0 74l0 0 289 288c23 24 61 24 85 0l0 0 31-31-1 0 256-255c20-21 20-54 0-74z" horiz-adv-x="1000" />

<glyph glyph-name="assets-2-filled" unicode="&#xe807;" d="M453 670c7 0 12-2 17-8l0 0 61-60c2-2 4-3 7-3l0 0 247 0c54 0 94-38 94-89l0 0 0-389c0-53-43-93-94-93l0 0-576 0c-53 0-89 45-89 93l0 0 0 465c0 49 36 84 89 84l0 0z m47-178c-14 0-25-12-25-27l0-22c-44 0-75-37-75-79 0-43 33-79 73-79l54 0c12 0 22-11 22-24 0-13-10-24-22-24l-56 0c-7 0-27 7-33 12-12 8-28 5-36-7-8-12-5-29 7-38 17-13 47-22 66-22l0-22c0-15 11-28 25-28 14 0 25 13 25 28l0 22c44 0 75 37 75 79 0 43-33 79-73 79l-54 0c-12 0-22 11-22 24 0 13 9 24 23 24l51 0c9 0 18-4 24-12 10-11 26-11 36-1 10 10 11 27 1 38-16 19-38 29-61 30l0 22c0 15-11 27-25 27z" horiz-adv-x="1000" />

<glyph glyph-name="assets-2" unicode="&#xe808;" d="M453 670c7 0 12-2 17-8l0 0 61-60c2-2 4-3 7-3l0 0 247 0c54 0 94-38 94-89l0 0 0-389c0-53-43-93-94-93l0 0-576 0c-53 0-89 45-89 93l0 0 0 465c0 49 36 84 89 84l0 0z m-27-59l-209 0c-13 0-39-3-39-33l0 0 0-444c0-25 21-45 46-45l0 0 549-3 0 0c26 0 46 20 46 45l0 0 0 363c0 25-20 45-45 45l0 0-258 0c-9 0-19 4-26 11-15 15-42 45-53 56-3 3-7 5-11 5l0 0z m74-119c14 0 25-12 25-27l0 0 0-22c23-1 45-11 61-30 10-11 9-28-1-38-10-10-26-10-36 1-6 8-15 12-24 12l0 0-51 0c-14 0-23-11-23-24 0-13 10-24 22-24l0 0 54 0c40 0 73-36 73-79 0-42-31-79-75-79l0 0 0-22c0-15-11-28-25-28-14 0-25 13-25 28l0 0 0 22c-19 0-49 9-66 22-12 9-15 26-7 38 8 12 24 15 36 7 6-5 26-12 33-12l0 0 56 0c12 0 22 11 22 24 0 13-10 24-22 24l0 0-54 0c-40 0-73 36-73 79 0 42 31 79 75 79l0 0 0 22c0 15 11 27 25 27z" horiz-adv-x="1000" />

<glyph glyph-name="assets-filled" unicode="&#xe809;" d="M627 730c21 0 38-15 40-35l0-5 0-188c0-20-15-37-35-40l-5 0-96 0 0-60 156 0c33 0 60-27 60-60l0-87 107 0c21 0 38-16 40-36l0-4 0-188c0-21-15-38-35-40l-5-1-255 0c-20 0-37 16-39 36l-1 5 0 188c0 20 16 37 36 39l4 1 80 0 0 59c0 11-9 20-20 20l-322 0c-11 0-20-9-20-20l0-59 80 0c21 0 38-16 40-36l0-4 0-188c0-21-15-38-35-40l-5-1-257 0c-20 0-37 16-40 36l0 5 0 188c0 20 15 37 35 39l5 1 109 0 0 87c0 33 27 60 60 60l154 0 0 60-95 0c-21 0-38 15-40 35l0 5 0 188c0 21 15 37 35 40l5 0 259 0z m-48-68l-163 0c-11 0-20-9-20-20l0 0 0-92c0-11 9-20 20-20l0 0 163 0c11 0 20 9 20 20l0 0 0 92c0 11-9 20-20 20l0 0z" horiz-adv-x="1000" />

<glyph glyph-name="assets" unicode="&#xe80a;" d="M627 730c22 0 40-18 40-40l0 0 0-188c0-22-18-40-40-40l0 0-96 0 0-60 156 0c33 0 60-27 60-60l0-87 107 0c21 0 38-16 40-36l0-4 0-188c0-23-17-41-40-41l0 0-255 0c-22 0-40 18-40 41l0 0 0 188c0 22 18 40 40 40l0 0 80 0 0 59c0 11-9 20-20 20l-322 0c-11 0-20-9-20-20l0-59 80 0c21 0 38-16 40-36l0-4 0-188c0-23-18-41-40-41l0 0-257 0c-22 0-40 18-40 41l0 0 0 188c0 22 18 40 40 40l0 0 109 0 0 87c0 33 27 60 60 60l154 0 0 60-95 0c-21 0-38 15-40 35l0 5 0 188c0 22 18 40 40 40l0 0z m-278-543l-161 0c-11 0-20-9-20-20l0 0 0-92c0-11 9-20 20-20l0 0 161 0c11 0 20 9 20 20l0 0 0 92c0 11-9 20-20 20l0 0z m457 0l-159 0c-11 0-20-9-20-20l0 0 0-92c0-11 9-20 20-20l0 0 159 0c11 0 20 9 20 20l0 0 0 92c0 11-9 20-20 20l0 0z m-227 475l-163 0c-11 0-20-9-20-20l0 0 0-92c0-11 9-20 20-20l0 0 163 0c11 0 20 9 20 20l0 0 0 92c0 11-9 20-20 20l0 0z" horiz-adv-x="1000" />

<glyph glyph-name="attachment" unicode="&#xe80b;" d="M500-90c-143 0-260 123-260 275l0 385c0 20 16 37 35 37 19 0 34-17 34-37l0-385c0-111 86-202 191-202 105 0 191 91 191 202l0 403c0 71-55 129-122 129-67 0-121-58-121-129l0-366c0-31 23-55 52-55 29 0 52 24 52 55l0 348c0 20 16 37 35 37 19 0 34-17 34-37l0-348c0-71-54-129-121-129-67 0-121 58-121 129l0 366c0 112 85 202 190 202 106 0 191-90 191-202l0-403c0-152-117-275-260-275z" horiz-adv-x="1000" />

<glyph glyph-name="bill-payment-filled" unicode="&#xe80c;" d="M175-30c-52 0-95 43-95 95l0 128c0 8 7 15 15 15l137 0 0 496c0 7 5 12 11 14l3 0c4 0 7-1 10-3l60-50c6-5 13-8 21-8l4 0 5 0c6 1 11 4 16 8l66 61c1 2 3 3 5 3l4 1 3 0c2 0 4-1 6-3l87-62c6-5 13-8 21-8l4 0 5 0c6 1 11 4 16 8l87 62c2 2 4 3 6 3l3 0 3-1c2 0 4-1 6-3l66-61c6-5 13-8 20-8l5 0 4 0c6 1 12 4 17 8l60 50c2 1 4 2 6 3l3 0c5 0 9-2 12-5 2-3 3-6 3-9l0-639c0-25-10-49-28-67-18-19-41-28-67-28l-610 0z m71 174l-101 0 0-62 0 0c0-33 13-45 36-46l513 0c-3 10-5 19-5 29l0 44c0 20-15 35-34 35l-409 0 0 0z m457 238l-293 0c-20 0-35-15-35-34 0-20 15-35 35-35l0 0 293 0c20 0 35 15 35 35 0 19-15 34-35 34l0 0z m-121 136l-172 0c-20 0-35-15-35-34 0-20 15-35 35-35l0 0 172 0c20 0 35 15 35 35 0 19-15 34-35 34l0 0z" horiz-adv-x="1000" />

<glyph glyph-name="bill-payment" unicode="&#xe80d;" d="M175-30c-52 0-95 43-95 95l0 128c0 8 7 15 15 15l137 0 0 496c0 7 5 12 11 14l3 0c4 0 7-1 10-3l60-50c6-5 13-8 21-8l4 0 5 0c6 1 11 4 16 8l66 61c1 2 3 3 5 3l4 1 3 0c2 0 4-1 6-3l87-62c6-5 13-8 21-8l4 0 5 0c6 1 11 4 16 8l87 62c2 2 4 3 6 3l3 0 3-1c2 0 4-1 6-3l66-61c6-5 13-8 20-8l5 0 4 0c6 1 12 4 17 8l60 50c2 1 4 2 6 3l3 0c5 0 9-2 12-5 2-3 3-6 3-9l0-639c0-25-10-49-28-67-18-19-41-28-67-28l-610 0z m495 682l-53-38-1-1c-35-27-85-27-120 0l-2 1-52 38-37-34c-30-27-73-33-106-17l-3 1 0-394 359 0c52 0 95-40 98-92l0-7 0-44c0-15 10-28 25-31l3 0 4 0c8 0 14 2 18 5l3 2c5 6 8 13 10 19l0 5 0 538-4-2c-32-14-71-10-100 12l-6 5-36 34z m-424-508l-101 0 0-62 0 0c0-33 13-45 36-46l513 0c-3 10-5 19-5 29l0 44c0 20-15 35-34 35l-409 0 0 0z m457 238c20 0 35-15 35-34 0-20-15-35-35-35l-293 0c-20 0-35 15-35 35 0 19 15 34 35 34l293 0z m-121 136c20 0 35-15 35-34 0-20-15-35-35-35l-172 0c-20 0-35 15-35 35 0 19 15 34 35 34l172 0z" horiz-adv-x="1000" />

<glyph glyph-name="book-filled" unicode="&#xe80e;" d="M772 730c16 0 28-13 28-28 0-14-10-26-24-28l-4 0-449 0c-37 0-67-31-67-69 0-36 27-65 62-68l5 0 449 0c14 0 26-11 28-25l0-3 0-511c0-15-12-28-28-28-1 0-3 0-5 0l-3 0-441 0c-65 0-119 53-123 118l0 7 0 510c0 67 52 121 116 125l7 0 449 0z m-154-344l-236 0c-15 0-28-13-28-28l0-206c0-15 13-28 28-28l236 0c15 0 28 13 28 28l0 206c0 15-13 28-28 28z m-28-56l0-150-180 0 0 150 180 0z m182 302c16 0 28-13 28-29 0-14-10-25-24-27l-4-1-442 0c-15 0-28 13-28 28 0 15 11 26 24 28l4 1 442 0z" horiz-adv-x="1000" />

<glyph glyph-name="book" unicode="&#xe80f;" d="M323-30c-65 0-119 53-123 118l0 7 0 510c0 67 52 121 116 125l7 0 449 0c16 0 28-13 28-28 0-14-10-26-24-28l-4 0-449 0c-37 0-67-31-67-69 0-36 27-65 62-68l5 0 449 0c14 0 26-11 28-25l0-3 0-511c0-15-12-28-28-28-1 0-3 0-5 0l-3 0-441 0z m421 56l1 454-422 0c-21 0-42 6-60 16l-7 5 0-406c0-36 27-65 62-68l5-1 421 0z m-126 360c14 0 26-11 28-25l0-3 0-206c0-14-11-26-24-28l-4 0-236 0c-14 0-26 11-28 24l0 4 0 206c0 14 11 26 24 27l4 1 236 0z m-28-56l-180 0 0-150 180 0 0 150z m182 302c16 0 28-13 28-29 0-14-10-25-24-27l-4-1-442 0c-15 0-28 13-28 28 0 15 11 26 24 28l4 1 442 0z" horiz-adv-x="1000" />

<glyph glyph-name="briefcase-filled" unicode="&#xe810;" d="M566 686l-131 0c-50 0-91-38-94-86l-1-6 0-32-4-4-98 0c-50 0-90-38-94-86l0-6 0-320c0-49 39-88 88-92l6 0 524 0c50 0 91 38 94 86l0 6 0 320c0 49-39 89-88 92l-6 0-98 0-4 4 0 32c0 49-39 89-88 92l-6 0z m32-184l4-4 0-384-4-4-196 0-4 4 0 384 4 4 196 0z m-32 128c18 0 34-14 36-32l0-4 0-32-4-4-196 0-4 4 0 32c0 19 14 34 32 36l5 0 131 0z" horiz-adv-x="1000" />

<glyph glyph-name="briefcase" unicode="&#xe811;" d="M566 686l-131 0c-50 0-91-38-94-86l-1-6 0-32-4-4-98 0c-50 0-90-38-94-86l0-6 0-320c0-49 39-88 88-92l6 0 524 0c50 0 91 38 94 86l0 6 0 320c0 49-39 89-88 92l-6 0-98 0-4 4 0 32c0 49-39 89-88 92l-6 0z m-230-184l4-4 0-384-4-4-98 0c-19 0-34 14-36 32l0 4 0 320c0 19 14 34 32 36l4 0 98 0z m262 0l4-4 0-384-4-4-196 0-4 4 0 384 4 4 196 0z m164 0c19 0 34-14 36-32l1-4 0-320c0-18-15-34-33-36l-4 0-98 0-4 4 0 384 4 4 98 0z m-196 128c18 0 34-14 36-32l0-4 0-32-4-4-196 0-4 4 0 32c0 19 14 34 32 36l5 0 131 0z" horiz-adv-x="1000" />

<glyph glyph-name="calendar-filled" unicode="&#xe812;" d="M640 764c17 0 31-12 33-28l0-4 0-33 76 0c70 0 127-55 131-124l0-7 0-446c-1-69-55-126-124-130l-7 0-498 0c-70 0-127 55-131 124l0 7 0 445c0 69 55 127 124 131l7 0 74 0 0 33c0 18 15 32 33 32 17 0 31-12 33-28l0-4 0-33 216 0 0 33c0 18 15 32 33 32z m-315-131l-74 0c-34 0-62-26-65-60l0-5 0-114 628 0 0 114c0 34-26 62-60 65l-5 0-76 0 0-33c0-18-15-32-33-32-16 0-30 12-32 28l-1 4 0 33-216 0 0-33c0-18-15-32-33-32-17 0-30 12-32 28l-1 4 0 33z" horiz-adv-x="1000" />

<glyph glyph-name="calendar" unicode="&#xe813;" d="M640 764c17 0 31-12 33-28l0-4 0-33 76 0c70 0 127-55 131-124l0-7 0-446c-1-69-55-126-124-130l-7 0-498 0c-70 0-127 55-131 124l0 7 0 445c0 69 55 127 124 131l7 0 74 0 0 33c0 18 15 32 33 32 17 0 31-12 33-28l0-4 0-33 216 0 0 33c0 18 15 32 33 32z m174-379l-628 0 0-262c0-34 26-62 60-65l5 0 498 0c36 0 65 29 65 65l0 262z m-489 248l-74 0c-34 0-62-26-65-60l0-5 0-114 628 0 0 114c0 34-26 62-60 65l-5 0-76 0 0-33c0-18-15-32-33-32-16 0-30 12-32 28l-1 4 0 33-216 0 0-33c0-18-15-32-33-32-17 0-30 12-32 28l-1 4 0 33z" horiz-adv-x="1000" />

<glyph glyph-name="caret-down-small" unicode="&#xe814;" d="M379 453l287-5c22-1 39-19 39-41 0-11-5-21-12-28l-146-141c-16-15-41-15-57 1l-141 146c-15 16-15 41 1 56 8 8 18 12 29 12z" horiz-adv-x="1000" />

<glyph glyph-name="caret-down" unicode="&#xe815;" d="M260 495l527-10c22 0 39-18 39-40 0-11-5-21-12-28l-268-259c-16-15-42-15-57 1l-259 268c-15 16-15 41 1 56 8 8 18 12 29 12z" horiz-adv-x="1000" />

<glyph glyph-name="caret-left-small" unicode="&#xe816;" d="M640 513l0-286c0-22-18-40-40-40-11 0-21 4-28 11l-144 144c-15 15-15 41 0 56l144 144c15 15 41 15 56 0 8-8 12-18 12-29z" horiz-adv-x="1000" />

<glyph glyph-name="caret-left" unicode="&#xe817;" d="M700 573l0-526c0-22-18-40-40-40-11 0-21 4-28 11l-264 264c-15 15-15 41 0 56l264 264c15 15 41 15 56 0 8-8 12-18 12-29z" horiz-adv-x="1000" />

<glyph glyph-name="caret-right-small" unicode="&#xe818;" d="M400 227l0 286c0 23 18 40 40 40 11 0 21-4 28-11l144-144c15-15 15-41 0-56l-144-144c-15-15-41-15-56 0-8 8-12 18-12 29z" horiz-adv-x="1000" />

<glyph glyph-name="caret-right" unicode="&#xe819;" d="M340 47l0 526c0 23 18 40 40 40 11 0 21-4 28-11l264-264c15-15 15-41 0-56l-264-264c-15-15-41-15-56 0-8 8-12 18-12 29z" horiz-adv-x="1000" />

<glyph glyph-name="caret-up-small" unicode="&#xe81a;" d="M663 210l-286 0c-22 0-40 18-40 40 0 11 4 21 11 28l144 144c15 15 41 15 56 0l144-144c15-15 15-41 0-56-8-8-18-12-29-12z" horiz-adv-x="1000" />

<glyph glyph-name="caret-up" unicode="&#xe81b;" d="M783 130l-526 0c-22 0-40 18-40 40 0 11 4 21 11 28l264 264c15 15 41 15 56 0l264-264c15-15 15-41 0-56-8-8-18-12-29-12z" horiz-adv-x="1000" />

<glyph glyph-name="chart-bar-filled" unicode="&#xe81c;" d="M245 370c42 0 76-34 76-76l0 0 0-200c0-42-34-76-76-76l0 0-69 0c-42 0-76 34-76 76l0 0 0 200c0 42 34 76 76 76l0 0z m289 320c42 0 76-34 76-76l0 0 0-520c0-42-34-76-76-76l0 0-78 0c-42 0-76 34-76 76l0 0 0 520c0 42 34 76 76 76l0 0z m282-200c42 0 76-34 76-76l0 0 0-320c0-42-34-76-76-76l0 0-71 0c-42 0-76 34-76 76l0 0 0 320c0 42 34 76 76 76l0 0z" horiz-adv-x="1000" />

<glyph glyph-name="chart-bar" unicode="&#xe81d;" d="M245 370c42 0 76-34 76-76l0 0 0-200c0-42-34-76-76-76l0 0-69 0c-42 0-76 34-76 76l0 0 0 200c0 42 34 76 76 76l0 0z m289 320c42 0 76-34 76-76l0 0 0-520c0-42-34-76-76-76l0 0-78 0c-42 0-76 34-76 76l0 0 0 520c0 42 34 76 76 76l0 0z m282-200c42 0 76-34 76-76l0 0 0-320c0-42-34-76-76-76l0 0-71 0c-42 0-76 34-76 76l0 0 0 320c0 42 34 76 76 76l0 0z m-571-192l-69 0c-2 0-4-2-4-4l0 0 0-200c0-2 2-4 4-4l0 0 69 0c2 0 4 2 4 4l0 0 0 200c0 2-2 4-4 4l0 0z m289 320l-78 0c-2 0-4-2-4-4l0 0 0-520c0-2 2-4 4-4l0 0 78 0c2 0 4 2 4 4l0 0 0 520c0 2-2 4-4 4l0 0z m282-200l-71 0c-2 0-4-2-4-4l0 0 0-320c0-2 2-4 4-4l0 0 71 0c2 0 4 2 4 4l0 0 0 320c0 2-2 4-4 4l0 0z" horiz-adv-x="1000" />

<glyph glyph-name="chart-candle-filled" unicode="&#xe81e;" d="M700 730c22 0 40-18 40-40l0-80 33 0c40 0 73-31 76-70l0-6 0-280c0-42-34-76-76-76l0 0-33 0 0-168c0-21-15-37-35-40l-5 0c-22 0-40 18-40 40l0 0 0 168-36 0c-40 0-73 31-76 70l0 6 0 280c0 42 34 76 76 76l0 0 36 0 0 80c0 22 18 40 40 40z m-400 0c22 0 40-18 40-40l0-200 33 0c42 0 76-34 76-76l0 0 0-280c0-42-34-76-76-76l0 0-33 0 0-48c0-21-15-37-35-40l-5 0c-22 0-40 18-40 40l0 0 0 48-36 0c-40 0-73 31-76 70l0 6 0 280c0 42 34 76 76 76l0 0 36 0 0 200c0 22 18 40 40 40z" horiz-adv-x="1000" />

<glyph glyph-name="chart-candle" unicode="&#xe81f;" d="M700 730c22 0 40-18 40-40l0-80 33 0c40 0 73-31 76-70l0-6 0-280c0-42-34-76-76-76l0 0-33 0 0-168c0-21-15-37-35-40l-5 0c-22 0-40 18-40 40l0 0 0 168-36 0c-40 0-73 31-76 70l0 6 0 280c0 42 34 76 76 76l0 0 36 0 0 80c0 22 18 40 40 40z m-400 0c22 0 40-18 40-40l0-200 33 0c42 0 76-34 76-76l0 0 0-280c0-42-34-76-76-76l0 0-33 0 0-48c0-21-15-37-35-40l-5 0c-22 0-40 18-40 40l0 0 0 48-36 0c-40 0-73 31-76 70l0 6 0 280c0 42 34 76 76 76l0 0 36 0 0 200c0 22 18 40 40 40z m73-312l-149 0c-2 0-4-2-4-4l0 0 0-280c0-2 2-4 4-4l0 0 149 0c2 0 4 2 4 4l0 0 0 280c0 2-2 4-4 4l0 0z m400 120l-149 0c-2 0-4-2-4-4l0 0 0-280c0-2 2-4 4-4l0 0 149 0c2 0 4 2 4 4l0 0 0 280c0 2-2 4-4 4l0 0z" horiz-adv-x="1000" />

<glyph glyph-name="chart-line" unicode="&#xe820;" d="M747 679c16 29 53 40 82 24 27-15 38-49 26-77l-2-5-234-423c-18-34-63-42-92-17l-4 4-143 151-167-314c-15-28-48-39-76-27l-5 2c-28 15-39 48-27 76l2 5 207 388c18 35 64 43 92 17l4-4 144-151 193 351z" horiz-adv-x="1000" />

<glyph glyph-name="chart-pie-filled" unicode="&#xe821;" d="M500 726c208 0 376-168 376-376 0-208-168-376-376-376-208 0-376 168-376 376 0 208 168 376 376 376z m36-74l0-276 263-92c24 68 5 34 5 66 0 156-117 284-268 302z" horiz-adv-x="1000" />

<glyph glyph-name="chart-pie" unicode="&#xe822;" d="M500 726c208 0 376-168 376-376 0-208-168-376-376-376-208 0-376 168-376 376 0 208 168 376 376 376z m-36-74c-151-18-268-146-268-302 0-168 136-304 304-304 120 0 224 69 273 170l-309 109z m72 0l0-276 261-92c5 21 7 43 7 66 0 156-117 284-268 302z" horiz-adv-x="1000" />

<glyph glyph-name="chat-group-filled" unicode="&#xe823;" d="M368 688c11 5 24 0 29-11l0 0 22-46 10 0c46 0 84-39 84-86l0 0 0-102c0-64-23-133-73-171l0 0 0-60 148-41c37-10 63-44 63-84l0 0 0-37c0-22-17-40-40-40l0 0-531 0c-22 0-40 18-40 40l0 0 0 37c0 40 26 74 63 84l0 0 141 41 0 60c-50 38-65 107-65 171l0 0 0 102c0 36 26 76 58 89l0 0z m369-58c9 4 19 0 23-9l0 0 17-37 8 0c37 0 66-31 66-69l0 0 0-81c0-51-12-106-51-137l0 0 0-48 110-33c30-8 50-35 50-67l0 0 0-22c0-22-18-40-40-40l0 0-223 0-1 6c-5 54-30 100-81 113l-59 18 87 25 0 48c-40 31-54 86-54 137l0 0 0 81c0 29 20 61 45 71l0 0z" horiz-adv-x="1000" />

<glyph glyph-name="chat-group" unicode="&#xe824;" d="M376 690l3 0c6-1 12-4 16-10l2-3 22-46 10 0c44 0 80-35 83-80l1-6 0-102c0-61 5-127-38-166l-6-5 0-60 119-41c35-9 60-40 63-77l0-7 0-37c0-20-15-37-35-40l-5 0-531 0c-20 0-37 15-40 35l0 5 0 37c0 28 21 62 57 82l125 43 0 60c-39 30-43 79-43 129l0 42 0 102c0 34 23 71 52 86l6 3 131 54 4 2 4 0z m-17-69l-103-42-3-2c-6-3-14-14-16-23l0-3 0-134c-1-57 3-79 15-90l2-1 23-21 5-137c-90-30-144-49-164-59-10-8-15-20-15-37l485-3c2 21-3 35-13 40-17 8-72 27-164 59l4 136 22 23c11 10 16 30 16 81l-1 35 0 99 0 4c0 9-6 19-12 20l-3 1-48 8-30 46z m385 10c5 0 11-2 14-7l2-3 17-37 8 0c35 0 63-28 66-63l0-6 0-90c0-45-1-93-32-123l-6-5 0-48 97-33c28-7 47-32 50-61l0-6 0-22c0-20-15-37-35-39l-5-1-223 0 0 0 27 0c-15 0-28 12-30 27l0 4c0 17 13 31 30 31l0 0 174 0c0 10-47 30-141 59l0 0 0 110c17 18 27 29 31 34 9 13 13 146 8 165-1 12-19 14-54 9l0 0-16 40-73-32c-3-2-5-4-5-7-4-111-2-171 8-181 8-8 17-17 28-28l0 0 0-100c0-16-12-29-28-29-16 0-28 13-28 29l0 0 0 52-1-2 0 29c-35 27-38 74-38 120l0 98c0 27 18 56 40 69l5 2 103 44 4 1 3 0z" horiz-adv-x="1000" />

<glyph glyph-name="chat-individual-filled" unicode="&#xe825;" d="M802 119l-180 49 0 70c62 46 85 126 85 202l0 119c0 56-46 102-103 102l-13 0-27 54c-7 13-23 18-36 13l-163-64c-40-16-72-63-72-105l0-119c0-76 25-156 87-202l0-70-181-49c-47-11-79-52-79-99l0-50c0-22 18-40 40-40l680 0c22 0 40 18 40 40l0 50 0 0c0 47-32 88-78 99z" horiz-adv-x="1000" />

<glyph glyph-name="chat-individual" unicode="&#xe826;" d="M528 728c12 5 26 1 33-10l3-3 27-54 13 0c55 0 100-42 103-95l0-7 0-128c0-70-4-143-56-187l-7-6 0-70 158-49c43-10 75-48 78-92l0-7 0-50c0-21-15-37-35-40l-5 0-680 0c-20 0-37 15-40 35l0 5 0 50c0 45 29 84 72 97l7 2 157 49 0 70c-57 42-63 114-63 184l0 137c0 40 29 84 66 102l6 3 163 64z m-9-76l-129-51c-13-5-26-24-29-38l0-4 0-119c0-87 7-124 32-144l4-3 27-20 0-155-209-65c-15-3-25-15-27-28l0-5 0-22 624 0 0 22c0 14-9 27-25 33l-211 65 0 155 28 20c25 19 34 52 35 127l0 11 0 128c0 17-13 32-31 34l-4 0-55 0-30 59z" horiz-adv-x="1000" />

<glyph glyph-name="chatbot-filled" unicode="&#xe827;" d="M786 615c44-44 75-96 95-151l3 0c62 0 112-48 116-109l0-7 0-76c0-62-48-112-109-116l-7 0-19 0c-9-17-18-34-29-51l-9-12-4-6c-47-64-162-88-346-78l-17 1-31 3c-20 1-31 17-32 37l0 3 0-3-3 0 0 5c0 31 26 57 58 57l76 0c26 0 48-16 55-39 113 4 166 29 188 60l2 3 6 8c88 131 78 305-34 417-64 64-155 106-246 105-90 0-179-42-243-105-110-111-118-286-32-415 12-17 10-40-7-51-18-12-42-7-54 10-11 17-20 34-28 51l-19 0c-64 0-116 52-116 116l0 76c0 64 52 116 116 116l3 0c19 55 51 107 95 151 158 158 414 158 572 0z m-283-105c57 0 109 38 152 23 65-23 108-114 108-202 0-47-12-77-33-92-44-33-130-10-228-10-96 0-179-20-225 10-23 15-36 43-36 92 0 88 43 179 109 202 43 15 96-23 153-23z m-140-76c-30 0-54-24-54-53 0-30 24-54 54-54 30 0 54 24 54 54 0 29-24 53-54 53z m278 0c-30 0-54-24-54-53 0-30 24-54 54-54 30 0 55 24 55 54 0 29-25 53-55 53z" horiz-adv-x="1000" />

<glyph glyph-name="chatbot" unicode="&#xe828;" d="M214 615c158 158 414 158 572 0 44-44 75-96 95-151l3 0c62 0 112-48 116-109l0-7 0-76c0-62-48-112-109-116l-7 0-19 0c-11-22-23-43-38-63l0 0-4-6c-48-66-169-90-363-77l0 0-31 3c-21 1-33 20-31 41l-1-4-3 0 0 5c0 31 26 57 58 57l76 0c26 0 48-16 55-39 117 4 170 31 190 63l0 0 6 8c88 131 78 305-34 417-64 64-155 106-246 105-90 0-179-42-243-105-110-111-118-286-32-415 12-17 10-40-7-51-18-12-42-7-54 10-11 17-20 34-28 51l-19 0c-64 0-116 52-116 116l0 76c0 64 52 116 116 116l3 0c20 55 51 107 95 151z m-110-204l-5-1c-25-7-44-29-47-56l0-6 0-76c0-30 20-54 47-62l15 0c-21 65-24 135-10 201z m791 1c14-67 11-136-9-202l17 0c25 7 44 29 47 56l0 6 0 76 0 6c-3 25-19 46-41 54l-6 2z m-392 98c57 0 109 38 152 23 65-23 108-114 108-202 0-47-12-77-33-92-44-33-130-10-228-10-96 0-179-20-225 10-23 15-36 43-36 92 0 88 43 179 109 202 43 15 96-23 153-23z m-133-33c-36-13-69-77-69-146 0-29 4-39 9-42 10-6 29-8 82-5l50 3c24 1 41 2 60 2 20 0 39-1 63-2l50-4c53-3 72-2 80 4 3 3 8 16 8 44 0 69-33 133-68 146-3 1-9 0-29-6l-17-5c-37-11-59-16-86-16-25 0-45 4-76 13l-33 10c-16 4-22 5-24 4z" horiz-adv-x="1000" />

<glyph glyph-name="chevron-down" unicode="&#xe829;" d="M188 526c20 20 53 20 73 0l256-256 257 257c19 19 49 21 69 4l4-4c20-20 20-53 0-73l0 0-288-289c-24-23-62-23-85 0l0 0-31 31 0 1-255 255c-21 21-21 53 0 74z" horiz-adv-x="1000" />

<glyph glyph-name="chevron-left" unicode="&#xe82a;" d="M698 675c20-20 20-53 0-74l-255-255 257-257c19-19 20-49 3-69l-3-5c-21-20-54-20-74 0l0 0-288 289c-24 23-24 61 0 85l0 0 31 31 0-1 256 256c20 20 53 20 73 0z" horiz-adv-x="1000" />

<glyph glyph-name="chevron-right" unicode="&#xe82b;" d="M337 675c-21-20-21-53 0-74l255-255-257-257c-19-19-20-49-4-69l4-5c21-20 54-20 74 0l0 0 288 289c24 23 24 61 0 85l0 0-31 31 0-1-256 256c-20 20-53 20-73 0z" horiz-adv-x="1000" />

<glyph glyph-name="chevron-up" unicode="&#xe82c;" d="M847 164c-20-20-53-20-73 0l-256 256-257-257c-19-19-49-20-69-4l-4 4c-21 20-21 53 0 73l0 0 288 289c24 23 62 23 85 0l0 0 31-31 0-1 255-255c20-20 20-53 0-74z" horiz-adv-x="1000" />

<glyph glyph-name="close" unicode="&#xe82d;" d="M260 590c15 16 41 16 56 0l184-183 184 183c16 16 41 16 56 0 16-15 16-40 0-56l-183-184 183-184c16-15 16-41 0-56-15-16-40-16-56 0l-184 184-184-184c-15-16-41-16-56 0-16 15-16 41 0 56l183 184-183 184c-16 16-16 41 0 56z" horiz-adv-x="1000" />

<glyph glyph-name="config-filled" unicode="&#xe82e;" d="M412 294c68 0 125-46 140-109l0 3 292 0c20 0 36-16 36-36 0-19-16-35-36-35l-292 0 0 2c-15-62-72-109-140-109-67 0-123 45-139 107l-77 0c-20 0-36 16-36 35 0 20 16 36 36 36l77 0c16 61 72 106 139 106z m144 356c68 0 125-46 140-109l0 2 148 0c20 0 36-16 36-35 0-20-16-36-36-36l-148 0 0 3c-15-63-72-109-140-109-67 0-123 45-139 106l-221 0c-20 0-36 16-36 36 0 19 16 35 36 35l221 0c16 62 72 107 139 107z" horiz-adv-x="1000" />

<glyph glyph-name="config" unicode="&#xe82f;" d="M412 294c68 0 125-46 140-109l0 3 292 0c20 0 36-16 36-36 0-19-16-35-36-35l-292 0 0 2c-15-62-72-109-140-109-67 0-123 45-139 107l-77 0c-20 0-36 16-36 35 0 20 16 36 36 36l77 0c16 61 72 106 139 106z m0-71c-40 0-72-31-72-71 0-39 32-71 72-71 40 0 72 32 72 71 0 40-32 71-72 71z m144 427c68 0 125-46 140-109l0 2 148 0c20 0 36-16 36-35 0-20-16-36-36-36l-148 0 0 3c-15-63-72-109-140-109-67 0-123 45-139 106l-221 0c-20 0-36 16-36 36 0 19 16 35 36 35l221 0c16 62 72 107 139 107z m0-71c-40 0-72-32-72-71 0-39 32-71 72-71 40 0 72 32 72 71 0 39-32 71-72 71z" horiz-adv-x="1000" />

<glyph glyph-name="dashboard-create-filled" unicode="&#xe830;" d="M816 710c59 0 104-42 104-98l0 0 0-518c0-59-48-104-104-104l0 0-637 0c-59 0-99 50-99 104l0 0 0 518c0 53 40 98 99 98l0 0z m-315-155c-19 0-34-15-34-33l0 0 0-133-132 0c-19 0-34-14-34-33 0-18 15-33 34-33l0 0 132 0 0-133c0-18 15-33 34-33 18 0 33 15 33 33l0 0 0 133 132 0c19 0 34 15 34 33 0 19-15 33-34 33l0 0-132 0 0 133c0 18-15 33-33 33z" horiz-adv-x="1000" />

<glyph glyph-name="dashboard-create" unicode="&#xe831;" d="M816 710c57 0 101-39 104-91l0-7 0-518c0-57-44-101-97-104l-7 0-637 0c-57 0-96 47-99 97l0 7 0 518c0 51 37 94 92 98l7 0 637 0z m-615-61l-6-1c-28-1-48-21-50-48l0-5 0-477 0-5c2-30 22-53 49-56l5 0 594 0 5 0c29 2 53 25 55 54l1 6 0 476 0 6c-2 29-26 50-60 50l-593 0z m300-94c18 0 33-15 33-33l0-133 132 0c19 0 34-14 34-33 0-18-15-33-34-33l-132 0 0-133c0-18-15-33-33-33-19 0-34 15-34 33l0 133-132 0c-19 0-34 15-34 33 0 19 15 33 34 33l132 0 0 133c0 18 15 33 34 33z" horiz-adv-x="1000" />

<glyph glyph-name="dashboard-filled" unicode="&#xe832;" d="M816 710c59 0 104-42 104-98l0 0 0-518c0-59-48-104-104-104l0 0-637 0c-59 0-99 50-99 104l0 0 0 518c0 53 40 98 99 98l0 0z m-493-252c-24 0-44-20-44-44l0 0 0-192c0-25 20-45 44-45 25 0 45 20 45 45l0 0 0 192c0 24-20 44-45 44z m178 0c-25 0-45-20-45-44l0 0 0-192c0-25 20-45 45-45 24 0 44 20 44 45l0 0 0 192c0 24-20 44-44 44z m177 77c-25 0-45-20-45-44l0 0 0-269c0-25 20-45 45-45 24 0 44 20 44 45l0 0 0 269c0 24-20 44-44 44z" horiz-adv-x="1000" />

<glyph glyph-name="dashboard" unicode="&#xe833;" d="M816 710c59 0 104-42 104-98l0 0 0-518c0-59-48-104-104-104l0 0-637 0c-59 0-99 50-99 104l0 0 0 518c0 53 40 98 99 98l0 0z m-615-61l-6-1c-28-1-48-21-50-48l0-5 0-477 0-5c2-30 22-53 49-56l5 0 594 0 5 0c29 2 53 25 55 54l1 6 0 476 0 6c-2 29-26 50-60 50l-593 0z m122-191c25 0 45-20 45-44l0-192c0-25-20-45-45-45-24 0-44 20-44 45l0 192c0 24 20 44 44 44z m178 0c24 0 44-20 44-44l0-192c0-25-20-45-44-45-25 0-45 20-45 45l0 192c0 24 20 44 45 44z m177 77c24 0 44-20 44-44l0-269c0-25-20-45-44-45-25 0-45 20-45 45l0 269c0 24 20 44 45 44z" horiz-adv-x="1000" />

<glyph glyph-name="detail-filled" unicode="&#xe834;" d="M840 690c22 0 40-18 40-40l0-600c0-22-18-40-40-40l-680 0c-22 0-40 18-40 40l0 600c0 22 18 40 40 40l680 0z m-280-68l-372 0 0-544 372 0 0 544z" horiz-adv-x="1000" />

<glyph glyph-name="detail" unicode="&#xe835;" d="M800 690c44 0 80-36 80-80l0-520c0-44-36-80-80-80l-600 0c-44 0-80 36-80 80l0 520c0 44 36 80 80 80l600 0z m-240-68l-372 0 0-544 372 0 0 544z m252 0l-184 0 0-544 184 0 0 544z" horiz-adv-x="1000" />

<glyph glyph-name="document-approval-filled" unicode="&#xe836;" d="M292 766l-7 0c-54-3-96-47-96-100l0-632 0-7c4-52 48-93 103-93l458 0 7 0c54 3 96 47 96 100l0 528 0 5c-1 7-5 14-11 19l-213 173-1 0-1 1-1 1-2 1c-1 0-1 0-2 1l-2 1c-1 0-1 0-2 1l-1 0 0 0c-2 0-3 1-4 1l0 0c-2 0-3 0-5 0l-316 0z m393-328l1 0 0 0c15-12 18-34 6-50l-197-263c-6-8-14-12-23-12-8-1-15 1-22 6l-3 3-91 91c-13 12-14 32-4 46l3 4 1 1 0 0c12 12 32 13 45 3l4-3 60-61 172 229c11 15 33 18 48 6z m-39 227l124-100-3-7-123 0-4 4 0 100 6 3z" horiz-adv-x="1000" />

<glyph glyph-name="document-approval" unicode="&#xe837;" d="M292 766l-7 0c-54-3-96-47-96-100l0-632 0-7c4-52 48-93 103-93l458 0 7 0c54 3 96 47 96 100l0 528 0 5c-1 7-5 14-11 19l-213 173-1 0-1 1-1 1-2 1c-1 0-1 0-2 1l-2 1c-1 0-1 0-2 1l-1 0 0 0c-2 0-3 1-4 1l0 0c-2 0-3 0-5 0l-316 0z m281-61l4-4 0-174 0-4c2-14 13-24 27-26l4-1 178 0 4-4 0-459 0-4c-3-18-17-32-35-34l-5 0-459 0-4 0c-18 3-32 17-35 34l0 5 0 633 0 4c3 18 17 32 35 34l5 0 281 0z m112-267l1 0 0 0c15-12 18-34 6-50l-197-263c-6-8-14-12-23-12-8-1-15 1-22 6l-3 3-91 91c-13 12-14 32-4 46l3 4 1 1 0 0c12 12 32 13 45 3l4-3 60-61 172 229c11 15 33 18 48 6z m-39 227l124-100-3-7-123 0-4 4 0 100 6 3z" horiz-adv-x="1000" />

<glyph glyph-name="document-filled" unicode="&#xe838;" d="M292 766l-7 0c-54-3-96-47-96-100l0-632 0-7c4-52 48-93 103-93l458 0 7 0c54 3 96 47 96 100l0 528 0 5c-1 7-5 14-11 19l-213 173-1 0-1 1-1 1-2 1c-1 0-1 0-2 1l-2 1c-1 0-1 0-2 1l-1 0 0 0c-2 0-3 1-4 1l0 0c-2 0-3 0-5 0l-316 0z m354-101l124-100-3-7-123 0-4 4 0 100 6 3z" horiz-adv-x="1000" />

<glyph glyph-name="document" unicode="&#xe839;" d="M292 766l-7 0c-54-3-96-47-96-100l0-632 0-7c4-52 48-93 103-93l458 0 7 0c54 3 96 47 96 100l0 528 0 5c-1 7-5 14-11 19l-213 173-1 0-1 1-1 1-2 1c-1 0-1 0-2 1l-2 1c-1 0-1 0-2 1l-1 0 0 0c-2 0-3 1-4 1l0 0c-2 0-3 0-5 0l-316 0z m281-61l4-4 0-174 0-4c2-14 13-24 27-26l4-1 178 0 4-4 0-459 0-4c-3-18-17-32-35-34l-5 0-459 0-4 0c-18 3-32 17-35 34l0 5 0 633 0 4c3 18 17 32 35 34l5 0 281 0z m73-40l124-100-3-7-123 0-4 4 0 100 6 3z" horiz-adv-x="1000" />

<glyph glyph-name="download" unicode="&#xe83a;" d="M828 170c18 0 32-15 32-33l0 0 0-58c0-54-43-98-96-98l0 0-528 0c-53 0-96 44-96 98l0 0 0 58c0 18 14 33 32 33 18 0 32-15 32-33l0 0 0-58c0-18 14-33 32-33l0 0 528 0c18 0 32 15 32 33l0 0 0 58c0 18 14 33 32 33z m-328 520c20 0 36-16 36-36l0-402 142 142c13 13 34 14 48 3l3-3 0 0 4-4c10-14 9-34-4-47l0 0-200-201c-17-16-43-16-60 0l0 0-21 22 0 0-177 178c-13 13-14 33-4 47l4 4 0 0c14 14 37 14 51 0l142-142 0 403c0 20 16 36 36 36z" horiz-adv-x="1000" />

<glyph glyph-name="draggable" unicode="&#xe83b;" d="M413 176c29 0 52-25 52-55 0-30-23-54-52-54-29 0-53 24-53 54 0 30 24 55 53 55z m175 0c29 0 52-25 52-55 0-30-23-54-52-54-29 0-53 24-53 54 0 30 24 55 53 55z m-175 217c29 0 52-24 52-54 0-30-23-55-52-55-29 0-53 25-53 55 0 30 24 54 53 54z m175 0c29 0 52-24 52-54 0-30-23-55-52-55-29 0-53 25-53 55 0 30 24 54 53 54z m-175 217c29 0 52-24 52-54 0-30-23-55-52-55-29 0-53 25-53 55 0 30 24 54 53 54z m175 0c29 0 52-24 52-54 0-30-23-55-52-55-29 0-53 25-53 55 0 30 24 54 53 54z" horiz-adv-x="1000" />

<glyph glyph-name="edit-2" unicode="&#xe83c;" d="M433 665c18 0 33-15 33-33 0-18-15-33-33-33l0 0-175 0c-18 0-32-15-32-33l0 0 0-458c0-18 14-32 32-32l0 0 458 0c18 0 33 14 33 32l0 0 0 175c0 18 15 33 33 33 18 0 33-15 33-33l0 0 0-175c0-54-44-98-99-98l0 0-458 0c-54 0-98 44-98 98l0 0 0 458c0 55 44 99 98 99l0 0z m307 55l130-130c13-13 13-34 0-47l-327-327c-6-6-14-10-23-10l-131 0c-18 0-33 15-33 33l0 131c0 9 4 17 10 23l327 327c13 13 34 13 47 0z m-24-69l-294-295 0-84 84 0 295 294-85 85z" horiz-adv-x="1000" />

<glyph glyph-name="edit-2-filled" unicode="&#xe83d;" d="M433 665c18 0 33-15 33-33 0-18-15-33-33-33l0 0-175 0c-18 0-32-15-32-33l0 0 0-458c0-18 14-32 32-32l0 0 458 0c18 0 33 14 33 32l0 0 0 175c0 18 15 33 33 33 18 0 33-15 33-33l0 0 0-175c0-54-44-98-99-98l0 0-458 0c-54 0-98 44-98 98l0 0 0 458c0 55 44 99 98 99l0 0z m307 55l130-130c13-13 13-34 0-47l-327-327c-6-6-14-10-23-10l-131 0c-18 0-33 15-33 33l0 131c0 9 4 17 10 23l327 327c13 13 34 13 47 0z" horiz-adv-x="1000" />

<glyph glyph-name="edit-3-filled" unicode="&#xe83e;" d="M573 563l140-140-413-413-140 0 0 140 413 413z m121 116c14 15 37 15 51 0l0 0 84-84c15-14 15-37 0-51l0 0-66-66-135 135z" horiz-adv-x="1000" />

<glyph glyph-name="edit-3" unicode="&#xe83f;" d="M573 563l140-140-413-413-140 0 0 140 413 413z m0-85l-353-353 0-55 55 0 353 353-55 55z m121 201c14 15 37 15 51 0l0 0 84-84c15-14 15-37 0-51l0 0-66-66-135 135z" horiz-adv-x="1000" />

<glyph glyph-name="edit" unicode="&#xe840;" d="M571 480l99-99-291-291-99 0 0 99 291 291z m86 83c10 10 26 10 36 0l0 0 60-60c10-10 10-26 0-36l0 0-47-47-96 96z" horiz-adv-x="1000" />

<glyph glyph-name="email-filled" unicode="&#xe841;" d="M782 610c54 0 98-42 98-93l0-374c0-51-44-93-98-93l-524 0c-54 0-98 42-98 93l0 374c0 51 44 93 98 93l524 0z m0-62l-524 0c-12 0-24-7-29-17l291-194 291 194c-5 10-16 17-29 17z" horiz-adv-x="1000" />

<glyph glyph-name="email" unicode="&#xe842;" d="M782 610c54 0 98-42 98-93l0-374c0-51-44-93-98-93l-524 0c-54 0-98 42-98 93l0 374c0 51 44 93 98 93l524 0z m33-153l-276-184c-11-7-26-7-38 0l0 0-276 184 1-314c0-17 14-31 32-31l524 0c18 0 33 14 33 31l0 314z m-33 91l-524 0c-12 0-24-7-29-17l291-194 291 194c-5 10-16 17-29 17z" horiz-adv-x="1000" />

<glyph glyph-name="emoji-filled" unicode="&#xe843;" d="M500 810c254 0 460-206 460-460 0-254-206-460-460-460-254 0-460 206-460 460 0 254 206 460 460 460z m198-548c-15 14-39 12-52-3-37-41-90-64-146-64-56 0-109 23-146 64-13 15-36 17-52 3-15-13-16-37-3-52 51-57 124-89 201-89 77 0 150 32 201 89 13 15 12 39-3 52z m-352 240c-41 0-75-33-75-75 0-42 34-75 75-75 42 0 76 33 76 75 0 42-34 75-76 75z m308 0c-42 0-75-33-75-75 0-42 33-75 75-75 41 0 75 33 75 75 0 42-34 75-75 75z" horiz-adv-x="1000" />

<glyph glyph-name="emoji" unicode="&#xe844;" d="M500 810c254 0 460-206 460-460 0-254-206-460-460-460-254 0-460 206-460 460 0 254 206 460 460 460z m0-74c-213 0-386-173-386-386 0-213 173-386 386-386 213 0 386 173 386 386 0 213-173 386-386 386z m146-477c13 15 37 17 52 3 15-13 16-37 3-52-51-57-124-89-201-89-77 0-150 32-201 89-13 15-12 39 3 52 16 14 39 12 52-3 37-41 90-64 146-64 56 0 109 23 146 64z m-300 243c42 0 76-33 76-75 0-42-34-75-76-75-41 0-75 33-75 75 0 42 34 75 75 75z m308 0c41 0 75-33 75-75 0-42-34-75-75-75-42 0-75 33-75 75 0 42 33 75 75 75z" horiz-adv-x="1000" />

<glyph glyph-name="eton" unicode="&#xe845;" d="M500 840c-271 0-490-219-490-490 0-271 219-490 490-490 13 0 26 0 39 1l0 109 1 0 0 90 75 0c41 0 80 17 110 46 28 30 44 70 44 112 0 23-4 45-12 65 27 29 43 68 43 109 0 80-58 145-133 157-6 79-72 141-151 141-66 0-123-42-144-103-74-7-132-70-132-147 0-31 10-61 28-86-18-30-28-65-28-101 0-50 18-98 52-135 32-37 75-58 117-58l0 0 3 0c14 2 24 14 24 28l0 0 0 1c0 15-12 27-27 27-53 0-113 60-113 137 0 31 10 61 29 85l0 0 15 20-17 18c-18 17-27 40-27 64 0 50 40 91 90 91 2 0 4 0 6 0l0 0 25-2 4 25c8 46 48 80 95 80 53 0 96-44 96-97 0-4 0-7-1-11l0 0-3-32 33 1 0 0 2 0c56 0 101-46 101-103 0-32-14-61-39-81l0 0-21-16 14-21c11-16 16-35 16-56 0-57-44-102-99-102l0 0-75 0 0 96 87 88c11 11 11 29 0 40 0 0 0 0 0 0-11 11-29 11-40 0l0 0-47-49 0 160c0 15-13 28-28 28-16 0-28-13-28-28l0 0 0-98-41 41 0 0c-11 11-29 11-40 0-10-11-10-28 0-39l0 0 81-81 0-354c-230 9-414 198-414 430 0 238 193 430 430 430 238 0 430-192 430-430 0-155-82-291-205-367l0 0-4-2 0 0-1-1c-14-8-19-26-10-40 8-14 26-19 41-11l0 0 6 3c140 87 233 242 233 418 0 271-219 490-490 490z" horiz-adv-x="1000" />

<glyph glyph-name="export-filled" unicode="&#xe846;" d="M608 766c2 0 3 0 5 0l0 0 0 0c1 0 2-1 4-1l0 0 0 0 1 0c1-1 1-1 2-1l0 0 2-1 0 0 2-1 2-1 1-1 1-1 1 0 213-173c6-5 10-12 11-19l0 0 0-5 0-528c0-53-42-97-96-100l0 0-7 0-458 0c-55 0-99 41-103 93l0 0 0 7 0 632c0 53 42 97 96 100l0 0 7 0z m-68-332c-10 11-26 12-37 3l0 0-3-3-128-133c-11-11-11-30 0-42 10-10 26-11 37-2l0 0 3 3 75 78 7-3 0-214c0-13 10-25 23-27l0 0 4 0c15 0 27 12 27 27l0 0 0 212 7 3 73-77c11-11 29-11 40 0 10 11 11 27 3 39l0 0-3 3z m106 231l-6-3 0-100 4-4 123 0 3 7-124 100z" horiz-adv-x="1000" />

<glyph glyph-name="export" unicode="&#xe847;" d="M292 766l-7 0c-54-3-96-47-96-100l0-632 0-7c4-52 48-93 103-93l458 0 7 0c54 3 96 47 96 100l0 528 0 5c-1 7-5 14-11 19l-213 173-1 0-1 1-1 1-2 1c-1 0-1 0-2 1l-2 1c-1 0-1 0-2 1l-1 0 0 0c-2 0-3 1-4 1l0 0c-2 0-3 0-5 0l-316 0z m281-61l4-4 0-174 0-4c2-14 13-24 27-26l4-1 178 0 4-4 0-459 0-4c-3-18-17-32-35-34l-5 0-459 0-4 0c-18 3-32 17-35 34l0 5 0 633 0 4c3 18 17 32 35 34l5 0 281 0z m-52-611l-4 0c-13 2-23 14-23 27l0 214-7 3-75-78-3-3c-11-9-27-8-37 2-11 12-11 31 0 42l128 133 3 3c11 9 27 8 37-3l128-133 3-3c8-12 7-28-3-39-11-11-29-11-40 0l-73 77-7-3 0-212c0-15-12-27-27-27z m125 571l124-100-3-7-123 0-4 4 0 100 6 3z" horiz-adv-x="1000" />

<glyph glyph-name="filter-clear" unicode="&#xe848;" d="M592 153c20 0 36-16 36-36 0-21-16-37-36-37l-144 0c-20 0-36 16-36 37 0 20 16 36 36 36l144 0z m-263 487l120-120 395 0c20 0 36-17 36-37 0-20-16-36-36-36l-322 0 110-110 68 0c20 0 36-17 36-37 0-19-13-34-31-36l83-83c14-14 13-37-1-51-14-14-37-14-51 0l-458 458c-15 14-14 37 0 51 14 14 37 15 51 1z m98-303l73-74-160 0c-20 0-36 17-36 37 0 20 16 37 36 37l87 0z m-184 183l74-73-121 0c-20 0-36 16-36 36 0 20 16 37 36 37l47 0z" horiz-adv-x="1000" />

<glyph glyph-name="filter" unicode="&#xe849;" d="M592 203c20 0 36-16 36-36 0-21-16-37-36-37l-144 0c-20 0-36 16-36 37 0 20 16 36 36 36l144 0z m108 184c20 0 36-17 36-37 0-20-16-37-36-37l-360 0c-20 0-36 17-36 37 0 20 16 37 36 37l360 0z m144 183c20 0 36-16 36-37 0-20-16-36-36-36l-648 0c-20 0-36 16-36 36 0 21 16 37 36 37l648 0z" horiz-adv-x="1000" />

<glyph glyph-name="folder-filled" unicode="&#xe84a;" d="M820 614l-260 0c-3 0-5 1-7 3l-64 64c-5 6-11 8-19 8l-256 0c-56 0-94-37-94-88l0-489c0-51 38-99 94-99l606 0c54 0 99 43 99 99l0 409c0 53-42 93-99 93z m-647-16c0 32 28 35 41 35l239 0c4 0 8-2 11-5 12-11 40-40 56-56 8-7 18-11 28-11l2 0 270 0c21 0 46-11 46-37-10 8-29 15-46 15l-606 0c-15 0-27-2-41-8l0 67z" horiz-adv-x="1000" />

<glyph glyph-name="folder" unicode="&#xe84b;" d="M470 689c8 0 14-2 19-8l0 0 64-64c2-2 4-3 7-3l0 0 260 0c57 0 99-40 99-93l0 0 0-409c0-56-45-99-99-99l0 0-606 0c-56 0-94 48-94 99l0 0 0 489c0 51 38 88 94 88l0 0z m350-203l-606 0c-13 0-22-5-30-13 0-1 0-1 0-1-7-7-11-16-11-26l0 0 0-334c0-11 5-22 11-30 5-5 12-10 20-14 4-1 7-2 10-2l0 0 607 0c24 0 45 21 45 46l0 0 0 334c0 27-22 40-46 40l0 0z m-367 147l-239 0c-13 0-41-3-41-35l0 0 0-67c14 6 26 8 41 8l0 0 606 0c17 0 36-7 46-15 0 26-25 37-46 37l0 0-272 0c-10 0-20 4-28 11-16 16-44 45-56 56-3 3-7 5-11 5l0 0z" horiz-adv-x="1000" />

<glyph glyph-name="full-screen" unicode="&#xe84c;" d="M450 572c21 0 37-16 37-37 0-18-14-34-32-36l-5 0 0 0-195 0c-10 0-18-7-20-16l0-4 0 0 0-371c0-11 9-20 20-20l389 0c11 0 20 9 20 20l0 157c0 21 17 37 37 37 21 0 37-16 37-37l0-203c0-26-21-48-48-48l-482 0c-26 0-48 22-48 48l0 462c0 26 22 48 48 48l242 0z m97 78l249 0c23 0 41-17 44-39l0-5 0-29 0 0 0-219c0-18-14-34-33-36l-4 0c0 0 0 0 0 0-20 0-36 16-36 36l0 172-251-242c-14-14-37-14-51 1-14 14-14 38 0 52l245 236-163 0c-18 0-33 14-36 32l0 5 0 5c2 16 15 29 32 31l4 0z" horiz-adv-x="1000" />

<glyph glyph-name="home-filled" unicode="&#xe84d;" d="M849 385l-333 319c-9 8-23 8-32 0l-333-320c-7-7-11-17-11-26 0-21 17-38 38-38l65 0 0-285c0-25 20-45 45-45l121 0c13 0 23 10 23 23l0 195c0 4 3 7 7 7l123 0c4 0 7-3 7-7l0-195c0-13 10-23 23-23l120 0c25 0 45 20 45 45l0 285 66 0c20 0 37 17 37 38 0 9-4 19-11 27z" horiz-adv-x="1000" />

<glyph glyph-name="home" unicode="&#xe84e;" d="M484 704c8 7 20 8 29 2l3-2 333-319c7-8 11-18 11-27 0-20-15-36-33-38l-4 0-66 0 0-285c0-23-17-43-40-45l-5 0-120 0c-12 0-21 8-23 19l0 4 0 195c0 3-2 6-5 7l-2 0-123 0c-3 0-6-2-7-5l0-2 0-195c0-12-9-21-20-23l-3 0-121 0c-23 0-42 18-45 40l0 5 0 285-65 0c-21 0-38 17-38 38 0 8 3 16 8 23l3 3 333 320z m16-66l-271-260 72 0 0-330 72 0 0 160c0 34 27 63 61 65l5 0 123 0c34 0 62-26 65-60l0-5 0-160 72 0 0 330 72 0-271 260z" horiz-adv-x="1000" />

<glyph glyph-name="import-filled" unicode="&#xe84f;" d="M608 766c2 0 3 0 5 0l0 0 0 0c1 0 2-1 4-1l0 0 0 0 1 0c1-1 1-1 2-1l0 0 2-1 0 0 2-1 2-1 1-1 1-1 1 0 213-173c6-5 10-12 11-19l0 0 0-5 0-528c0-53-42-97-96-100l0 0-7 0-458 0c-55 0-99 41-103 93l0 0 0 7 0 632c0 53 42 97 96 100l0 0 7 0z m-87-323l-4 0c-13-2-23-14-23-27l0-214-7-3-75 78-3 3c-11 9-27 8-37-2-11-12-11-31 0-42l128-133 3-3c11-9 27-8 37 3l128 133 3 3c8 12 7 28-3 39-11 11-29 11-40 0l-73-77-7 3 0 212c0 15-12 27-27 27z m125 222l-6-3 0-100 4-4 123 0 3 7-124 100z" horiz-adv-x="1000" />

<glyph glyph-name="import" unicode="&#xe850;" d="M292 766l-7 0c-54-3-96-47-96-100l0-632 0-7c4-52 48-93 103-93l458 0 7 0c54 3 96 47 96 100l0 528 0 5c-1 7-5 14-11 19l-213 173-1 0-1 1-1 1-2 1c-1 0-1 0-2 1l-2 1c-1 0-1 0-2 1l-1 0 0 0c-2 0-3 1-4 1l0 0c-2 0-3 0-5 0l-316 0z m281-61l4-4 0-174 0-4c2-14 13-24 27-26l4-1 178 0 4-4 0-459 0-4c-3-18-17-32-35-34l-5 0-459 0-4 0c-18 3-32 17-35 34l0 5 0 633 0 4c3 18 17 32 35 34l5 0 281 0z m-52-262l-4 0c-13-2-23-14-23-27l0-214-7-3-75 78-3 3c-11 9-27 8-37-2-11-12-11-31 0-42l128-133 3-3c11-9 27-8 37 3l128 133 3 3c8 12 7 28-3 39-11 11-29 11-40 0l-73-77-7 3 0 212c0 15-12 27-27 27z m125 222l124-100-3-7-123 0-4 4 0 100 6 3z" horiz-adv-x="1000" />

<glyph glyph-name="inbox-filled" unicode="&#xe851;" d="M710 614c8 0 15-3 20-9l2-4 109-258 1-4 2-6 0-1 0-2 0-237c0-24-18-44-41-47l-5 0-595 0c-24 0-44 18-47 42l0 5 0 238 0 1 1 1 1 6 1 4 109 258c4 7 11 12 18 13l4 0 420 0z m-14-51l-391 0-80-207 84 0c8 0 16-4 20-11l2-4 36-72 266 0 36 72c3 8 10 13 18 14l4 1 84 0-79 207z m-38-127c12 0 22-9 22-20 0-11-10-20-22-20l0 0-315 0c-13 0-23 9-23 20 0 11 10 20 23 20l0 0z m-58 81c11 0 20-9 20-20 0-11-9-20-20-20l0 0-201 0c-11 0-20 9-20 20 0 11 9 20 20 20l0 0z" horiz-adv-x="1000" />

<glyph glyph-name="inbox" unicode="&#xe852;" d="M710 614c8 0 15-3 20-9l2-4 109-258 1-4 2-6 0-1 0-2 0-237c0-24-18-44-41-47l-5 0-595 0c-24 0-44 18-47 42l0 5 0 238 0 1 1 1 1 6 1 4 109 258c4 7 11 12 18 13l4 0 420 0z m-417-309l-86 0 0-208 587 0 0 208-87 0-36-73c-3-7-10-12-18-13l-4-1-298 0c-8 0-15 4-20 11l-2 3-36 73z m403 258l-391 0-80-207 84 0c8 0 16-4 20-11l2-4 36-72 266 0 36 72c3 8 10 13 18 14l4 1 84 0-79 207z m-38-127c12 0 22-9 22-20 0-11-10-20-22-20l0 0-315 0c-13 0-23 9-23 20 0 11 10 20 23 20l0 0z m-58 81c11 0 20-9 20-20 0-11-9-20-20-20l0 0-201 0c-11 0-20 9-20 20 0 11 9 20 20 20l0 0z" horiz-adv-x="1000" />

<glyph glyph-name="investment-filled" unicode="&#xe853;" d="M324 256c26 0 47-20 47-45l0 0 0-155c0-25-21-45-47-45l0 0-36 0c-26 0-47 20-47 45l0 0 0 155c0 25 21 45 47 45l0 0z m179 115c26 0 48-20 48-45l0 0 0-270c0-25-22-45-48-45l0 0-41 0c-26 0-48 20-48 45l0 0 0 270c0 25 22 45 48 45l0 0z m236 59c15 0 28-11 30-26l0-4 0-26c27 0 53-12 72-32 12-12 11-31-1-43-12-11-31-10-43 2-6 7-15 11-24 13l-5 0-60 0c-16 0-28-13-28-27 0-13 10-25 23-27l4 0 64 0c48 0 87-39 87-87 0-44-34-84-82-87l-7-1 0-25c0-17-13-30-30-30-15 0-28 11-30 26l0 4 0 25c-22 0-58 10-78 25-14 9-18 28-8 42 9 13 28 17 42 7 6-4 26-11 35-13l4 0 67 0c14 0 26 12 26 27 0 13-10 24-22 26l-4 1-64 0c-48 0-87 39-87 87 0 44 33 84 82 87l7 0 0 26c0 16 13 30 30 30z m-39 260l144-2c14 0 25-10 27-24l0-3-2-139c0-15-12-27-29-27-14 1-25 11-27 24l0 4 1 65-223-175c-5-4-11-6-18-7l-5-1c-7 1-14 2-20 6l-4 4-56 68-279-203c-10-8-25-8-36-1l-4 3-2 2-3 4c-7 11-5 25 4 34l3 3 297 216c6 5 14 7 22 7 6 0 13-2 18-4l4-3 2-2 55-67 210 163-80 1-3 0c-14 2-25 14-25 28 1 15 14 27 29 26z" horiz-adv-x="1000" />

<glyph glyph-name="investment" unicode="&#xe854;" d="M324 256c24 0 45-18 47-40l0-5 0-155c0-23-18-42-42-45l-5 0-36 0c-24 0-45 18-47 40l0 5 0 155c0 23 18 42 42 45l5 0 36 0z m179 115c25 0 45-18 47-40l1-5 0-270c0-23-19-42-43-45l-5 0-41 0c-24 0-45 18-47 40l-1 5 0 270c0 23 19 42 43 45l5 0 41 0z m236 59c15 0 28-11 30-26l0-4 0-26c27 0 53-12 72-32 12-12 11-31-1-43-12-11-31-10-43 2-6 7-15 11-24 13l-5 0-60 0c-16 0-28-13-28-27 0-13 10-25 23-27l4 0 64 0c48 0 87-39 87-87 0-44-34-84-82-87l-7-1 0-25c0-17-13-30-30-30-15 0-28 11-30 26l0 4 0 25c-22 0-58 10-78 25-14 9-18 28-8 42 9 13 28 17 42 7 6-4 26-11 35-13l4 0 67 0c14 0 26 12 26 27 0 13-10 24-22 26l-4 1-64 0c-48 0-87 39-87 87 0 44 33 84 82 87l7 0 0 26c0 16 13 30 30 30z m-421-217l-24 0c-4 0-7-2-8-6l0-2 0-143c0-4 2-7 6-8l2 0 24 0c4 0 7 2 8 6l0 2 0 143c0 5-3 8-8 8z m179 115l-29 0c-4 0-7-2-8-6l0-2 0-258c0-4 2-7 5-8l3 0 29 0c4 0 7 2 8 6l0 2 0 258c0 4-3 8-8 8z m203 362l144-2c14 0 25-10 27-24l0-3-2-139c0-15-12-27-29-27-14 1-25 11-27 24l0 4 1 65-223-175c-5-4-11-6-18-7l-5-1c-7 1-14 2-20 6l-4 4-56 68-279-203c-10-8-25-8-36-1l-4 3-2 2-3 4c-7 11-5 25 4 34l3 3 297 216c6 5 14 7 22 7 6 0 13-2 18-4l4-3 2-2 55-67 210 163-80 1-3 0c-14 2-25 14-25 28 1 15 14 27 29 26z" horiz-adv-x="1000" />

<glyph glyph-name="lightbulb-filled" unicode="&#xe855;" d="M575-68c20 0 35-15 35-35 0-17-13-32-30-34l-5-1-134 0c-19 0-35 16-35 35 0 18 14 33 31 35l4 0 134 0z m58 116c19 0 35-16 35-35 0-18-13-33-31-35l-4 0-249 0c-19 0-35 16-35 35 0 18 13 32 31 34l4 1 249 0z m-125 762c89 0 174-38 232-105 50-56 77-128 77-204 0-75-27-148-77-203-8-10-17-19-26-27-32-29-45-56-46-92l0 0 0-1 0-38c0-1 0-3 0-4l0-3c0-18-13-33-31-35l-4 0-249 0c-19 0-35 16-35 35 0 1 0 3 0 4l0 0 0 4 0 37c0 36-13 64-46 93-9 8-18 17-26 26-49 56-77 128-77 204 0 75 27 148 76 204 59 67 144 105 232 105z m-75-190c-14 11-33 10-46-3-13-14-13-36 0-49l0 0 86-86 0-221 1-4c2-17 17-31 34-31 20 0 35 16 35 35l0 0 0 232 0 6c-1 10-5 17-10 22l0 0-96 96z m197-3c-14 14-36 14-50 0l0 0-18-18-3-4c-11-13-10-33 3-46 7-6 15-10 24-10 9 0 18 3 25 10l0 0 19 19 3 3c10 14 9 34-3 46z" horiz-adv-x="1000" />

<glyph glyph-name="lightbulb" unicode="&#xe856;" d="M575-68c20 0 35-15 35-35 0-17-13-32-30-34l-5-1-134 0c-19 0-35 16-35 35 0 18 14 33 31 35l4 0 134 0z m58 116c19 0 35-16 35-35 0-18-13-33-31-35l-4 0-249 0c-19 0-35 16-35 35 0 18 13 32 31 34l4 1 249 0z m-125 762c89 0 174-38 232-105 50-56 77-128 77-204 0-75-27-148-77-203-8-10-17-19-26-27-32-29-45-56-46-92l0 0 0-1 0-38c0-1 0-3 0-4l0-3c0-20-16-35-35-35l0 0-249 0c-19 0-35 16-35 35 0 1 0 3 0 4 0 0 0 0 0 0l0 4 0 37c0 36-13 64-46 93-9 8-18 17-26 26-49 56-77 128-77 204 0 75 27 148 76 204 59 67 144 105 232 105z m1-70c-69 0-134-29-180-81-79-90-79-226 1-316 6-7 13-14 20-20 44-40 67-83 69-136l0-10 0 0 0-9 179 0 1 11c0 56 22 102 68 144 8 6 15 13 21 20 79 90 79 226 0 316-45 52-111 81-179 81z m-76-120l4-3 96-96c5-5 9-12 10-22l0-6 0-232c0-19-15-35-35-35-17 0-32 14-34 31l-1 4 0 221-86 86c-13 13-13 35 0 49 13 13 32 14 46 3z m197-3c12-12 13-32 3-46l-3-3-19-19c-7-7-16-10-25-10-9 0-17 4-24 10-13 13-14 33-3 46l3 4 18 18c14 14 36 14 50 0z" horiz-adv-x="1000" />

<glyph glyph-name="menu-expand" unicode="&#xe857;" d="M592 165c26 0 48-21 48-48 0-27-22-48-48-48l-384 0c-26 0-48 21-48 48 0 27 22 48 48 48l384 0z m-2 232c28 0 50-23 50-50 0-28-22-50-50-50l-380 0c-28 0-50 22-50 50 0 27 22 50 50 50l380 0z m-1 233c28 0 51-23 51-51 0-27-23-50-51-50l-378 0c-28 0-51 23-51 50 0 28 23 51 51 51l378 0z m131-395l0 270c0 11 9 20 20 20 5 0 10-2 13-5l151-135c8-7 8-20 1-28 0-1-1-1-1-2l-151-135c-8-7-20-7-28 2-3 3-5 8-5 13z" horiz-adv-x="1000" />

<glyph glyph-name="menu" unicode="&#xe858;" d="M511 168c21 0 39-17 39-39 0-21-18-39-39-39l-312 0c-21 0-39 18-39 39 0 22 18 39 39 39l312 0z m289 220c22 0 40-18 40-40 0-23-18-41-40-41l-599 0c-23 0-41 18-41 41 0 22 18 40 41 40l599 0z m-1 222c23 0 41-18 41-41 0-23-18-41-41-41l-598 0c-23 0-41 18-41 41 0 23 18 41 41 41l598 0z" horiz-adv-x="1000" />

<glyph glyph-name="messaging-add-filled" unicode="&#xe859;" d="M761 650c64 0 115-50 119-113l0-7 0-311c0-64-49-117-112-120l-7 0-270 0-142-139c-5-4-10-7-16-9l-5-1-4 0c-5 0-10 1-14 3-12 5-21 16-22 29l0 4-1 113-28 0c-61 0-111 46-118 106l-1 7 0 7 0 311c0 64 49 116 112 120l7 0 502 0z m-254-126l-4 0c-16-2-29-16-29-33l0 0 0-81-81 0-4 0c-16-2-29-16-29-33l0 0 0-4c2-17 16-30 33-30l0 0 81 0 0-80 0-4c2-17 16-30 33-30l0 0 4 1c17 2 30 16 30 33l0 0 0 80 80 0 4 1c17 2 30 16 30 33l0 0-1 4c-2 16-16 29-33 29l0 0-80 0 0 81-1 4c-2 16-16 29-33 29l0 0z" horiz-adv-x="1000" />

<glyph glyph-name="messaging-add" unicode="&#xe85a;" d="M761 650c64 0 115-50 119-113l0-7 0-311c0-64-49-117-112-120l-7 0-270 0-142-139c-5-4-10-7-16-9l-5-1-4 0c-5 0-10 1-14 3-12 5-21 16-22 29l0 4-1 113-28 0c-61 0-111 46-118 106l-1 7 0 7 0 311c0 64 49 116 112 120l7 0 502 0z m0-73l-502 0c-24 0-44-18-47-42l0-5 0-311c0-25 18-45 42-47l5-1 10 0 0 0 55 0c18 0 33-14 35-32l1-4 0-63 91 89c6 6 13 9 21 10l4 0 285 0c24 0 44 19 46 43l1 5 0 311c0 26-21 47-47 47z m-254-53c19 0 34-15 34-33l0 0 0-81 80 0c17 0 31-13 33-29l1-4c0-19-15-34-34-34l0 0-80 0 0-80c0-17-13-31-30-33l-4-1c-18 0-33 15-33 34l0 0 0 80-81 0c-17 0-31 13-33 30l0 4c0 18 15 33 33 33l0 0 81 0 0 81c0 17 13 31 29 33z" horiz-adv-x="1000" />

<glyph glyph-name="messaging-filled" unicode="&#xe85b;" d="M761 690c64 0 115-50 119-113l0-7 0-311c0-64-49-117-112-120l-7 0-270 0-142-138c-5-5-10-8-16-10l-5-1-4 0c-5 0-10 1-14 3-12 5-21 16-22 29l0 4-1 113-28 0c-61 0-111 46-118 106l-1 7 0 7 0 311c0 64 49 116 112 120l7 0 502 0z m-100-312l-308 0c-18 0-33-15-33-34 0-18 15-33 33-33l308 0c19 0 34 15 34 33 0 19-15 34-34 34z m0 141l-308 0c-18 0-33-15-33-33 0-19 15-34 33-34l308 0c19 0 34 15 34 34 0 18-15 33-34 33z" horiz-adv-x="1000" />

<glyph glyph-name="messaging" unicode="&#xe85c;" d="M761 690c64 0 115-50 119-113l0-7 0-311c0-64-49-117-112-120l-7 0-270 0-142-138c-5-5-10-8-16-10l-5-1-4 0c-5 0-10 1-14 3-12 5-21 16-22 29l0 4-1 113-28 0c-61 0-111 46-118 106l-1 7 0 7 0 311c0 64 49 116 112 120l7 0 502 0z m0-73l-502 0c-24 0-44-18-47-42l0-5 0-311c0-25 18-45 42-47l5-1 10 0 0 0 55 0c18 0 33-14 35-32l1-4 0-63 91 89c6 6 13 9 21 10l4 0 285 0c24 0 44 19 46 43l1 5 0 311c0 26-21 47-47 47z m-100-239c19 0 34-15 34-34 0-18-15-33-34-33l0 0-308 0c-18 0-33 15-33 33 0 19 15 34 33 34l0 0z m0 141c19 0 34-15 34-33 0-19-15-34-34-34l0 0-308 0c-18 0-33 15-33 34 0 18 15 33 33 33l0 0z" horiz-adv-x="1000" />

<glyph glyph-name="more" unicode="&#xe85d;" d="M240 410c33 0 60-27 60-60 0-33-27-60-60-60-33 0-60 27-60 60 0 33 27 60 60 60z m260 0c33 0 60-27 60-60 0-33-27-60-60-60-33 0-60 27-60 60 0 33 27 60 60 60z m260 0c33 0 60-27 60-60 0-33-27-60-60-60-33 0-60 27-60 60 0 33 27 60 60 60z" horiz-adv-x="1000" />

<glyph glyph-name="notification-filled" unicode="&#xe85e;" d="M616 68c0-52-40-95-90-98l-6 0c-53 0-96 44-96 98l192 0z m-99 702c30 0 44-25 44-57l0-34c125-15 216-136 223-271l20-182c21-11 36-33 36-60l0-6c0-37-28-39-63-39l-514 0c-35 0-63 2-63 39l0 6c0 27 15 49 36 60l20 182c7 136 86 246 216 271l0 34c0 30 15 57 45 57z" horiz-adv-x="1000" />

<glyph glyph-name="notification" unicode="&#xe85f;" d="M616 68c0-52-40-95-90-98l-6 0c-53 0-96 44-96 98l192 0z m-99 702c30 0 44-25 44-57l0-34c125-15 216-136 223-271l20-182c21-11 36-33 36-60l0-6c0-37-28-39-63-39l-514 0c-35 0-63 2-63 39l0 6c0 27 15 49 36 60l20 182c7 136 86 246 216 271l0 34c0 30 15 57 45 57z m0-152c-114 2-188-108-192-200l0-10 0-8-23-207 438 0-23 207 0 8c0 93-86 207-200 210z" horiz-adv-x="1000" />

<glyph glyph-name="objective" unicode="&#xe860;" d="M857 648l-7 133c0 11-7 21-17 25-10 5-22 3-30-4l-121-101c-7-6-11-15-10-24l0-5c-144 82-329 67-461-44-172-144-196-398-54-567 142-169 397-190 568-46 132 111 179 291 123 447l5-1c9-2 18 0 26 6l120 101c8 7 12 18 10 29-3 11-11 19-22 21l-130 30z m-79-170c70-141 33-315-90-418-147-124-365-106-486 39-121 144-101 362 46 485 123 103 301 109 427 16l3-52 1-12-16-13c-101 97-262 103-373 10-118-99-135-275-37-391 98-117 274-131 393-32 110 93 132 253 54 369l16 13 11-3 51-11z m-212-36c-56 45-138 45-196-3-66-55-75-152-21-217 54-64 152-72 217-17 58 48 72 130 37 192l52 44c58-91 39-214-47-287-93-78-232-67-310 25-77 93-64 232 29 310 87 72 211 69 291-4l-52-43z m-80-142l71 59c15-38 5-82-28-110-41-34-101-29-135 11-33 40-28 100 13 134 33 28 79 30 113 9l-71-59c-12-11-14-29-4-41 11-12 29-14 41-3z m336 296l95-22-64-53-117 26-5 119 64 54 4-98c1-12 10-23 23-26l0 0z" horiz-adv-x="1000" />

<glyph glyph-name="phone-filled" unicode="&#xe861;" d="M314 720c18 0 36-7 51-20l6-6c5-5 11-11 18-18l25-28 42-44c18-18 27-39 27-61 0-21-10-42-27-60l-31-33-10-11-5-5 1-2c6-13 14-27 25-43l6-9 8-10c39-51 80-90 126-121l4-3 18-9 45 48c13 13 28 22 44 25l7 2 7 0c19 0 37-8 52-22l5-5 85-90c35-36 35-84 1-121l-10-10-21-22-10-11-5-5-1-3-1 0c-25-29-56-43-94-43l-11 0c-46 3-87 18-139 44-94 48-176 115-245 201-56 71-94 138-119 210-17 47-23 86-20 124 2 27 12 52 29 72l6 7 53 56c17 17 37 26 58 26z" horiz-adv-x="1000" />

<glyph glyph-name="phone" unicode="&#xe862;" d="M314 720c18 0 36-7 51-20l6-6c5-5 11-11 18-18l25-28 42-44c18-18 27-39 27-61 0-21-10-42-27-60l-31-33-10-11-5-5 1-2c6-13 14-27 25-43l6-9 8-10c39-51 80-90 126-121l4-3 18-9 45 48c13 13 28 22 44 25l7 2 7 0c19 0 37-8 52-22l5-5 85-90c35-36 35-84 1-121l-10-10-21-22-10-11-5-5-1-3-1 0c-25-29-56-43-94-43l-11 0c-46 3-87 18-139 44-94 48-176 115-245 201-56 71-94 138-119 210-17 47-23 86-20 124 2 27 12 52 29 72l6 7 53 56c17 17 37 26 58 26z m0-57c-5 0-10-2-15-6l-4-3-53-56c-12-12-18-27-20-44-2-29 3-61 18-100 23-66 58-127 110-193 63-80 140-143 227-187 44-22 80-35 118-38l7 0c22 0 39 8 53 24 4 5 9 11 15 17l12 13 12 11c4 4 7 8 10 11 13 14 14 27 3 39l-3 4-85 90c-6 6-12 10-18 10-5 0-10-2-15-7l-4-3-53-56c-7-8-16-13-28-13-6 0-13 1-19 5l-7 4-19 11c-4 2-7 4-10 6-51 33-96 77-140 133-20 28-35 52-46 77l-5 12c-5 14-4 27 5 39l4 4 1 2c7 6 15 13 23 23l29 30c7 8 11 15 11 21 0 5-3 11-8 17l-3 4-73 77-12 13c-6 6-13 9-18 9z" horiz-adv-x="1000" />

<glyph glyph-name="remove-filled" unicode="&#xe863;" d="M564 710c53 0 96-44 96-98l0-33 128 0c18 0 32-15 32-33 0-18-14-32-32-32l-32 0 0-426c0-54-43-98-96-98l-320 0c-53 0-96 44-96 98l0 426-32 0c-18 0-32 14-32 32 0 18 14 33 32 33l128 0 0 33c0 54 43 98 96 98l128 0z m0-65l-128 0c-18 0-32-15-32-33l0-33 192 0 0 33c0 18-14 33-32 33z" horiz-adv-x="1000" />

<glyph glyph-name="remove" unicode="&#xe864;" d="M564 710c53 0 96-44 96-98l0-33 128 0c18 0 32-15 32-33 0-18-14-32-32-32l-32 0 0-426c0-54-43-98-96-98l-320 0c-53 0-96 44-96 98l0 426-32 0c-18 0-32 14-32 32 0 18 14 33 32 33l128 0 0 33c0 54 43 98 96 98l128 0z m-256-196l0-426c0-18 14-32 32-32l320 0c18 0 32 14 32 32l0 426-384 0z m256 131l-128 0c-18 0-32-15-32-33l0-33 192 0 0 33c0 18-14 33-32 33z" horiz-adv-x="1000" />

<glyph glyph-name="search" unicode="&#xe865;" d="M645 268l-1 0 0 0c0 1 0 1-1 1l-1 8c25 39 39 85 39 132 0 133-107 241-240 241-133 0-241-108-241-241 0-133 108-240 241-240 47 0 93 14 132 39l8-1c0 0 0 0 1-1l0-1 131-130c17-17 45-17 62 0 17 17 17 45 0 62l-130 131z m-205-27c-94 0-170 76-170 170 0 93 76 169 170 169 93 0 169-76 169-169 0-94-76-170-169-170z" horiz-adv-x="1000" />

<glyph glyph-name="setting-2" unicode="&#xe866;" d="M561 770c5 0 9-2 13-5 3-2 5-5 6-8l1-3 15-101c12-3 25-8 39-15l10-5 78 58c3 3 7 5 13 5 4 0 9-2 13-5l23-22c48-45 72-73 72-83 0-4-2-8-5-13l-38-49c-8-10-14-19-19-26 9-17 15-33 20-46l3-7 99-16c5 0 8-3 11-6 3-3 4-6 5-10l0-3 0-122c0-4-1-8-5-12-2-4-4-6-7-7l-3 0-102-16c-5-15-12-32-21-50l12-16c13-18 29-37 47-59 3-5 5-9 5-14 0-3-1-7-3-10l-2-2c-10-13-28-33-54-59l-11-11c-20-18-33-28-40-28-4 0-7 1-11 3l-3 2-76 59c-16-8-33-15-50-20l-4-33c-3-31-7-54-11-69-3-9-8-15-16-16l-4 0-122 0c-5 0-9 2-13 5-3 2-5 5-6 8l-1 3-15 101c-12 3-25 8-38 15l-11 5-77-58c-3-3-8-5-14-5-4 0-9 2-13 5l-23 22c-48 45-72 73-72 83 0 4 2 9 5 13l4 6c2 3 6 7 9 12l29 37c6 8 12 14 16 20-9 15-15 30-20 43l-3 11-100 15c-5 1-8 3-11 7-3 2-4 5-5 9l0 3 0 122c0 4 2 8 5 13 2 3 4 5 7 6l3 0 102 16c5 15 12 32 21 50-15 21-35 46-59 76-3 4-5 9-5 13 0 5 2 9 5 13 8 12 24 29 46 51l8 7c26 26 43 39 51 39 4 0 8-1 11-3l3-2 76-59c15 8 31 15 50 21l3 23c4 35 8 62 12 78 3 9 8 15 16 16l4 0 122 0z m-34-60l-55 0-4-23c0-6-1-12-2-19l-2-21-4-39-37-12c-12-4-23-8-32-12l-9-5-35-18-81 64-6-5-19-19c-4-4-8-8-11-12l-4-4 5-7c11-13 21-26 30-38l6-8 21-30-17-32c-6-12-11-23-14-33l-3-8-11-35-103-16 0-53 102-16 11-35c3-11 8-22 14-35l5-9 17-33-29-40c-7-9-15-20-25-33l-7-8 1-1c8-9 18-19 30-31l8-8 82 62 33-17c12-6 23-11 32-14l7-3 37-10 15-104 55 0 1 7c2 10 3 22 5 35l2 22 4 40 39 11c10 3 20 7 30 11l10 5 34 18 81-64 11 11 13 13 16 16-5 7c-11 13-21 26-30 38l-6 8-21 30 17 32c6 12 11 24 15 34l2 7 11 35 103 16 0 53-101 16-12 35c-3 10-8 23-15 37l-4 9-15 32 20 28 7 10c2 4 5 8 9 12l23 30-11 13c-4 3-8 8-13 12l-15 15-82-62-33 17c-12 7-23 11-32 14l-7 3-37 11-15 103z m-27-180c49 0 93-18 127-53 35-34 53-78 53-127 0-49-18-93-53-127-34-35-78-53-127-53-49 0-93 18-127 53-35 34-53 78-53 127 0 49 18 93 53 127 34 35 78 53 127 53z m0-60c-33 0-61-12-85-35-23-24-35-52-35-85 0-33 12-61 35-85 24-23 52-35 85-35 33 0 61 12 85 35 23 24 35 52 35 85 0 33-12 61-35 85-24 23-52 35-85 35z" horiz-adv-x="1000" />

<glyph glyph-name="setting-filled-2" unicode="&#xe867;" d="M846 114c0 5-2 9-5 14-24 29-44 54-59 75 9 18 16 35 21 50l102 16c4 0 7 2 10 7 4 4 5 8 5 12l0 122c0 5-1 9-5 13-3 3-6 6-11 6l-99 16c-5 14-13 32-23 53 7 10 17 23 30 40 13 16 22 28 27 35 3 5 5 9 5 13 0 11-32 46-95 105-4 3-9 5-13 5-6 0-10-2-13-5l-78-58c-18 9-34 16-49 20l-15 101c-1 4-3 8-7 11-4 3-8 5-13 5l-122 0c-10 0-17-5-20-16-5-20-10-54-15-101-19-6-35-13-50-21l-76 59c-4 3-9 5-14 5-8 0-25-13-51-39-27-26-45-45-54-58-3-4-5-8-5-13 0-4 2-9 5-13 24-30 44-55 59-76-9-18-16-35-21-50l-102-16c-4 0-7-2-10-6-3-5-5-9-5-13l0-122c0-4 2-9 5-12 3-4 6-6 11-7l100-15c5-17 12-35 23-54-7-10-18-23-31-40-14-17-23-29-27-35-3-4-5-9-5-13 0-11 32-46 95-105 4-3 9-5 13-5 6 0 11 2 14 5l77 58c18-9 34-16 49-20l15-101c1-4 3-8 7-11 4-3 8-5 13-5l122 0c10 0 17 5 20 16 5 20 10 54 15 102 17 5 34 12 50 20l76-59c4-3 9-5 14-5 8 0 25 13 51 39 26 26 44 46 54 59 3 3 5 7 5 12z m-227 117c-33-33-73-49-119-49-46 0-86 16-119 49-33 33-49 73-49 119 0 46 16 86 49 119 33 33 73 49 119 49 46 0 86-16 119-49 33-33 49-73 49-119 0-46-16-86-49-119z" horiz-adv-x="1000" />

<glyph glyph-name="setting-filled" unicode="&#xe868;" d="M520 770c61 0 110-49 110-110l0-3c0-10 6-18 15-22 9-4 19-2 26 4l2 3c21 20 49 32 78 32 29 0 57-12 78-32 20-21 32-49 32-78 0-29-12-57-32-78l-2-2c-7-7-9-17-5-26 1-3 2-5 2-8 5-6 12-10 20-10l6 0c61 0 110-49 110-110 0-61-49-110-110-110l-3 0c-10 0-18-6-22-14-4-10-2-20 4-27l3-2c20-21 32-49 32-78 0-29-12-57-32-78-21-20-49-32-78-32-29 0-57 12-78 32l-2 2c-7 7-17 9-27 5-8-4-14-12-14-22l0-6c0-61-49-110-110-110-61 0-110 49-110 110 0 12-6 21-18 25-9 4-19 2-26-4l-2-2c-21-21-49-33-78-33-29 0-57 12-78 32-20 21-32 49-32 78 0 29 12 57 32 78l2 2c7 7 9 17 5 27-4 8-12 14-22 14l-6 0c-61 0-110 49-110 110 0 61 49 110 110 110 12 0 21 7 25 18 4 9 2 19-4 26l-2 2c-21 21-33 49-33 78 0 29 12 57 32 78 21 20 49 32 78 32 29 0 57-12 78-32l2-2c7-7 17-9 26-5 3 1 5 2 8 2 6 5 10 12 10 20l0 6c0 61 49 110 110 110z m0-293c-81 0-147-66-147-147 0-81 66-147 147-147 81 0 147 66 147 147 0 81-66 147-147 147z" horiz-adv-x="1000" />

<glyph glyph-name="setting" unicode="&#xe869;" d="M520 770c61 0 110-49 110-110l0-3c0-10 6-18 15-22 9-4 19-2 26 4l2 3c21 20 49 32 78 32 29 0 57-12 78-32 20-21 32-49 32-78 0-29-12-57-32-78l-2-2c-7-7-9-17-5-26 1-3 2-5 2-8 5-6 12-10 20-10l6 0c61 0 110-49 110-110 0-61-49-110-110-110l-3 0c-10 0-18-6-22-14-4-10-2-20 4-27l3-2c20-21 32-49 32-78 0-29-12-57-32-78-21-20-49-32-78-32-29 0-57 12-78 32l-2 2c-7 7-17 9-27 5-8-4-14-12-14-22l0-6c0-61-49-110-110-110-61 0-110 49-110 110 0 12-6 21-18 25-9 4-19 2-26-4l-2-2c-21-21-49-33-78-33-29 0-57 12-78 32-20 21-32 49-32 78 0 29 12 57 32 78l2 2c7 7 9 17 5 27-4 8-12 14-22 14l-6 0c-61 0-110 49-110 110 0 61 49 110 110 110 12 0 21 7 25 18 4 9 2 19-4 26l-2 2c-21 21-33 49-33 78 0 29 12 57 32 78 21 20 49 32 78 32 29 0 57-12 78-32l2-2c7-7 17-9 26-5 3 1 5 2 8 2 6 5 10 12 10 20l0 6c0 61 49 110 110 110z m0-73c-20 0-37-17-37-37l0-6c0-39-23-74-59-89-3-2-6-2-9-3-35-12-74-4-101 23l-2 2c-7 7-16 11-26 11-9 0-19-4-26-11-7-7-10-16-10-26 0-10 3-19 10-26l3-3c28-28 35-70 20-105-14-37-49-62-90-63l-3 0c-20 0-37-17-37-37 0-20 17-37 37-37l6 0c39 0 74-23 89-58 16-36 9-79-20-108l-2-2c-7-7-10-16-10-26 0-9 3-19 10-26 7-7 17-10 26-10 10 0 19 3 26 10l3 3c28 28 71 35 105 20 37-14 62-49 63-90l0-3c0-20 17-37 37-37 20 0 37 17 37 37l0 6c0 39 23 74 58 89 37 16 79 9 108-20l2-2c7-7 16-10 26-10 10 0 19 3 26 10 7 7 11 17 11 26 0 10-4 19-11 26l-3 3c-27 28-35 70-19 107 15 35 50 58 89 58l3 0c20 0 37 17 37 37 0 20-17 37-37 37l-6 0c-39 0-74 23-89 59-2 3-2 6-3 9-12 35-4 74 23 101l2 2c7 7 11 16 11 26 0 10-4 19-11 26-7 7-16 11-26 11-10 0-19-4-26-11l-3-3c-28-28-70-35-106-19-36 15-59 50-59 89l0 3c0 20-17 37-37 37z m0-220c81 0 147-66 147-147 0-81-66-147-147-147-81 0-147 66-147 147 0 81 66 147 147 147z m0-220c41 0 73 33 73 73 0 41-32 73-73 73-40 0-73-32-73-73 0-40 33-73 73-73z" horiz-adv-x="1000" />

<glyph glyph-name="share-filled" unicode="&#xe86a;" d="M754 806c95 0 172-77 172-172 0-95-77-172-172-172-51 0-96 22-127 57-1 0-2 2-4 3l0 1c-1 1-2 2-2 3l-199-119c7-18 10-37 10-57 0-20-3-38-9-56l206-120c31 46 84 76 143 76 95 0 172-77 172-172 0-95-77-172-172-172-95 0-172 77-172 172 0 11 1 22 3 32l-214 126c-31-35-78-58-129-58-95 0-172 77-172 172 0 95 77 172 172 172 51 0 97-22 128-57l201 120c-4 15-7 32-7 49 0 95 77 172 172 172z m-494-356c-55 0-100-45-100-100 0-55 45-100 100-100 55 0 100 45 100 100 0 55-45 100-100 100z" horiz-adv-x="1000" />

<glyph glyph-name="share" unicode="&#xe86b;" d="M754 806c95 0 172-77 172-172 0-95-77-172-172-172-51 0-96 22-127 57-1 0-2 2-4 3l0 1c-1 1-2 2-2 3l-199-119c7-18 10-37 10-57 0-20-3-38-9-56l206-120c31 46 84 76 143 76 95 0 172-77 172-172 0-95-77-172-172-172-95 0-172 77-172 172 0 11 1 22 3 32l-214 126c-31-35-78-58-129-58-95 0-172 77-172 172 0 95 77 172 172 172 51 0 97-22 128-57l201 120c-4 15-7 32-7 49 0 95 77 172 172 172z m18-628c-55 0-100-45-100-100 0-55 45-100 100-100 55 0 100 45 100 100 0 55-45 100-100 100z m-512 272c-55 0-100-45-100-100 0-55 45-100 100-100 55 0 100 45 100 100 0 55-45 100-100 100z m494 284c-55 0-100-45-100-100 0-55 45-100 100-100 55 0 100 45 100 100 0 55-45 100-100 100z" horiz-adv-x="1000" />

<glyph glyph-name="sort" unicode="&#xe86c;" d="M338 290l364 0c13 0 24-11 24-24 0-6-2-12-7-17l-182-182c-9-9-25-9-34 0l-182 182c-9 9-9 25 0 34 5 5 11 7 17 7z m364 120l-364 0c-13 0-24 11-24 24 0 6 3 13 7 17l182 182c9 9 25 9 34 0l182-182c9-9 9-25 0-34-4-4-11-7-17-7z" horiz-adv-x="1000" />

<glyph glyph-name="system-update-filled" unicode="&#xe86d;" d="M832 728c23 9 48-9 48-35l0 0 0-635c0-25-25-43-48-34l0 0-418 166 72-170c9-22-6-47-28-50l-4 0-141 0c-15 0-28 9-33 23l0 0-94 222-31 0c-17 0-31 13-34 30l-1 5 0 2 0 248c0 20 16 36 35 36l0 0 196 0z m-496-684l65 0-75 171-65 0 75-171z" horiz-adv-x="1000" />

<glyph glyph-name="system-update" unicode="&#xe86e;" d="M832 728c23 9 48-9 48-35l0 0 0-635c0-25-25-43-48-34l0 0-418 166 72-170c9-22-6-47-28-50l-4 0-141 0c-15 0-28 9-33 23l0 0-94 222-31 0c-17 0-31 13-34 30l-1 5 0 2 0 248c0 20 16 36 35 36l0 0 196 0z m-496-684l65 0-75 171-65 0 75-171z m21 245c4 0 7-1 10-2l0 0 3-1 440-174 0 528-440-175c-4-1-9-2-13-2l0 0-166 0 0-174z" horiz-adv-x="1000" />

<glyph glyph-name="task-filled" unicode="&#xe86f;" d="M250 210c50 0 90-40 90-90 0-50-40-90-90-90-50 0-90 40-90 90 0 50 40 90 90 90z m556-60c19 0 34-18 34-40 0-22-15-40-34-40l0 0-372 0c-19 0-34 18-34 40 0 22 15 40 34 40l0 0z m-556 300c50 0 90-40 90-90 0-50-40-90-90-90-50 0-90 40-90 90 0 50 40 90 90 90z m556-60c19 0 34-18 34-40 0-22-15-40-34-40l0 0-372 0c-19 0-34 18-34 40 0 22 15 40 34 40l0 0z m-556 300c50 0 90-40 90-90 0-50-40-90-90-90-50 0-90 40-90 90 0 50 40 90 90 90z m556-60c19 0 34-18 34-40 0-22-15-40-34-40l0 0-372 0c-19 0-34 18-34 40 0 22 15 40 34 40l0 0z" horiz-adv-x="1000" />

<glyph glyph-name="task" unicode="&#xe870;" d="M250 210c50 0 90-40 90-90 0-50-40-90-90-90-50 0-90 40-90 90 0 50 40 90 90 90z m556-60c19 0 34-18 34-40 0-22-15-40-34-40l0 0-372 0c-19 0-34 18-34 40 0 22 15 40 34 40l0 0z m-556 0c-17 0-30-13-30-30 0-17 13-30 30-30 17 0 30 13 30 30 0 17-13 30-30 30z m0 300c50 0 90-40 90-90 0-50-40-90-90-90-50 0-90 40-90 90 0 50 40 90 90 90z m556-60c19 0 34-18 34-40 0-22-15-40-34-40l0 0-372 0c-19 0-34 18-34 40 0 22 15 40 34 40l0 0z m-556 0c-17 0-30-13-30-30 0-17 13-30 30-30 17 0 30 13 30 30 0 17-13 30-30 30z m0 300c50 0 90-40 90-90 0-50-40-90-90-90-50 0-90 40-90 90 0 50 40 90 90 90z m556-60c19 0 34-18 34-40 0-22-15-40-34-40l0 0-372 0c-19 0-34 18-34 40 0 22 15 40 34 40l0 0z m-556 0c-17 0-30-13-30-30 0-17 13-30 30-30 17 0 30 13 30 30 0 17-13 30-30 30z" horiz-adv-x="1000" />

<glyph glyph-name="tick-double" unicode="&#xe871;" d="M952 642c18-14 21-39 7-57l-393-503c-3-4-6-6-10-8-12-9-29-9-42 0l-4 3-79 77 49 64 52-50 364 467c14 17 39 20 56 7z m-245 0c17-14 21-39 7-57l-394-503c-6-8-15-12-24-13-9-2-19 0-28 6l-4 3-172 166c-16 15-16 41-1 57 14 14 37 16 53 4l4-3 138-134 365 467c13 17 39 20 56 7z" horiz-adv-x="1000" />

<glyph glyph-name="tick" unicode="&#xe872;" d="M787 642c17-14 21-39 7-57l-394-503c-6-8-15-12-24-13-11-2-23 0-32 9l0 0-172 166c-16 15-16 41-1 57 16 16 41 16 57 1l0 0 138-134 365 467c13 17 39 20 56 7z" horiz-adv-x="1000" />

<glyph glyph-name="transaction" unicode="&#xe873;" d="M911 458l-210 204c-11 11-30 11-42 0-6-6-9-13-9-21l0-87-210 0c-17 0-30-13-30-29 0-16 13-29 30-29l240 0c17 0 30 13 30 29l0 46 138-134-138-133 0 46c0 16-13 29-30 29l-330 0 0 87c0 16-13 30-30 30-8 0-16-4-21-9l-210-204c-12-11-12-29 0-41l210-203c5-6 13-9 21-9 4 0 8 1 12 2 11 5 18 15 18 27l0 87 210 0c17 0 30 13 30 30 0 16-13 29-30 29l-240 0c-17 0-30-13-30-29l0-47-138 134 138 133 0-46c0-16 13-29 30-29l330 0 0-87c0-16 13-29 30-29 8 0 16 3 21 8l210 204c12 11 12 30 0 41z" horiz-adv-x="1000" />

<glyph glyph-name="view-grid-filled" unicode="&#xe874;" d="M410 290c25 0 45-20 45-45l0-225c0-25-20-45-45-45l-225 0c-25 0-45 20-45 45l0 225c0 25 20 45 45 45l225 0z m413 0c25 0 45-20 45-45l0-225c0-25-20-45-45-45l-225 0c-25 0-45 20-45 45l0 225c0 25 20 45 45 45l225 0z m-30-80l-160 0 0-160 160 0 0 160z m-383 500c25 0 45-20 45-45l0-225c0-25-20-45-45-45l-225 0c-25 0-45 20-45 45l0 225c0 25 20 45 45 45l225 0z m413 0c25 0 45-20 45-45l0-225c0-25-20-45-45-45l-225 0c-25 0-45 20-45 45l0 225c0 25 20 45 45 45l225 0z" horiz-adv-x="1000" />

<glyph glyph-name="view-grid" unicode="&#xe875;" d="M410 290c25 0 45-20 45-45l0-225c0-25-20-45-45-45l-225 0c-25 0-45 20-45 45l0 225c0 25 20 45 45 45l225 0z m413 0c25 0 45-20 45-45l0-225c0-25-20-45-45-45l-225 0c-25 0-45 20-45 45l0 225c0 25 20 45 45 45l225 0z m-443-80l-160 0 0-160 160 0 0 160z m413 0l-160 0 0-160 160 0 0 160z m-383 500c25 0 45-20 45-45l0-225c0-25-20-45-45-45l-225 0c-25 0-45 20-45 45l0 225c0 25 20 45 45 45l225 0z m413 0c25 0 45-20 45-45l0-225c0-25-20-45-45-45l-225 0c-25 0-45 20-45 45l0 225c0 25 20 45 45 45l225 0z m-443-80l-160 0 0-160 160 0 0 160z m413 0l-160 0 0-160 160 0 0 160z" horiz-adv-x="1000" />

<glyph glyph-name="view-list-filled" unicode="&#xe876;" d="M800 710c44 0 80-36 80-80l0-580c0-44-36-80-80-80l-600 0c-44 0-80 36-80 80l0 580c0 44 36 80 80 80l600 0z m-471-516l-141 0 0-156 141 0 0 156z m483 0l-415 0 0-156 415 0 0 156z m-483 222l-141 0 0-154 141 0 0 154z m483 0l-415 0 0-154 415 0 0 154z" horiz-adv-x="1000" />

<glyph glyph-name="view-list" unicode="&#xe877;" d="M800 710c44 0 80-36 80-80l0-580c0-44-36-80-80-80l-600 0c-44 0-80 36-80 80l0 580c0 44 36 80 80 80l600 0z m-471-516l-141 0 0-156 141 0 0 156z m483 0l-415 0 0-156 415 0 0 156z m-483 222l-141 0 0-154 141 0 0 154z m483 0l-415 0 0-154 415 0 0 154z m-483 226l-141 0 0-158 141 0 0 158z m483 0l-415 0 0-158 415 0 0 158z" horiz-adv-x="1000" />

<glyph glyph-name="voice-filled" unicode="&#xe878;" d="M768 410c19 0 34-15 34-34 0-145-106-266-247-288l0 0-10-1 0-88 43 0c18 0 32-13 34-30l0 0 0-4c0-19-15-34-34-34l0 0-154 0c-19 0-34 15-34 34 0 18 15 34 34 34l0 0 43 0 0 88-10 1c-137 21-242 138-247 278l0 0 0 10c0 19 15 34 34 34 19 0 34-15 34-34 0-123 100-223 223-223 123 0 223 100 223 223 0 19 15 34 34 34z m-257 360c73 0 133-57 137-129l0-8 0-257c0-75-61-137-137-137-73 0-133 58-137 130l0 7 0 257c0 76 62 137 137 137z" horiz-adv-x="1000" />

<glyph glyph-name="voice" unicode="&#xe879;" d="M768 410c19 0 34-15 34-34 0-145-106-266-247-288l0 0-10-1 0-88 43 0c18 0 32-13 34-30l0 0 0-4c0-19-15-34-34-34l0 0-154 0c-19 0-34 15-34 34 0 18 15 34 34 34l0 0 43 0 0 88-10 1c-137 21-242 138-247 278l0 0 0 10c0 19 15 34 34 34 19 0 34-15 34-34 0-123 100-223 223-223 123 0 223 100 223 223 0 19 15 34 34 34z m-257 360c73 0 133-57 137-129l0-8 0-257c0-75-61-137-137-137-73 0-133 58-137 130l0 7 0 257c0 76 62 137 137 137z m0-68c-36 0-65-28-68-63l-1-6 0-257c0-38 31-69 69-69 36 0 66 28 69 63l0 6 0 257c0 38-31 69-69 69z" horiz-adv-x="1000" />

<glyph glyph-name="holdings" unicode="&#xe87a;" d="M608 766c2 0 3 0 5 0l0 0 0 0c1 0 2-1 4-1l0 0 0 0 1 0c1-1 1-1 2-1l0 0 2-1 0 0 2-1 2-1 1-1 1-1 1 0 213-173c6-5 10-12 11-19l0 0 0-5 0-528c0-53-42-97-96-100l0 0-7 0-458 0c-55 0-99 41-103 93l0 0 0 7 0 632c0 53 42 97 96 100l0 0 7 0z m-35-61l-281 0-5 0c-18-2-32-16-35-34l0 0 0-4 0-457 115 87c6 4 14 6 22 6 6 0 13-1 18-4l4-2 2-2 56-68 152 128-82 0-3 0c-14 2-25 14-24 28 0 15 13 27 29 26l143-1c14-1 25-11 27-24l0-4-2-139c0-15-12-27-29-27-14 1-25 11-27 24l0 4 1 64-164-137c-5-4-11-7-18-8l-5 0c-7 0-14 2-20 6l-4 3-55 69-136-102 0-103 0-5c3-17 17-31 35-34l0 0 4 0 459 0 5 0c18 2 32 16 35 34l0 0 0 4 0 459-4 4-178 0-4 1c-14 2-25 12-27 26l0 0 0 4 0 174-4 4z m73-40l-6-3 0-100 4-4 123 0 3 7-124 100z" horiz-adv-x="1000" />

<glyph glyph-name="holdings-filled" unicode="&#xe87b;" d="M608 766c2 0 3 0 5 0l0 0 0 0c1 0 2-1 4-1l0 0 0 0 1 0c1-1 1-1 2-1l0 0 2-1 0 0 2-1 2-1 1-1 1-1 1 0 213-173c6-5 10-12 11-19l0 0 0-5 0-528c0-53-42-97-96-100l0 0-7 0-458 0c-55 0-99 41-103 93l0 0 0 7 0 632c0 53 42 97 96 100l0 0 7 0z m-67-357c-16 1-29-11-29-26-1-14 10-26 24-28l0 0 3 0 82 0-152-128-56 68-2 2-4 2c-5 3-12 4-18 4-8 0-16-2-22-6l0 0-99-76-3-3c-9-9-11-23-4-34l0 0 3-3 2-3 4-3c11-7 25-7 36 1l0 0 82 63 55-69 4-3c6-4 13-6 20-6l0 0 5 0c7 1 13 4 18 8l0 0 163 137 0-64 0-4c2-13 13-23 27-24 17 0 29 12 29 27l0 0 2 139 0 4c-2 13-13 23-27 24l0 0z m105 256l-6-3 0-100 4-4 123 0 3 7-124 100z" horiz-adv-x="1000" />

<glyph glyph-name="dark-mode" unicode="&#xe87c;" d="M500-9c15 0 27-11 29-25l0-4 0-83c0-16-13-29-29-29-15 0-27 11-29 25l0 4 0 83c0 16 13 29 29 29z m292 108l3-3 59-58c11-12 11-30 0-42-6-5-14-8-21-8-6 0-12 2-17 5l-4 3-58 59c-12 11-12 30 0 41 10 11 26 12 38 3z m-546-3c11-10 12-26 3-38l-3-3-58-59c-6-5-13-8-21-8-7 0-15 3-21 8-10 11-11 27-2 39l2 3 59 58c11 12 30 12 41 0z m254 550c163 0 296-133 296-296 0-163-133-296-296-296-163 0-296 133-296 296 0 163 133 296 296 296z m-68-69l0 0c-98-29-169-120-169-227 0-131 106-237 237-237 91 0 170 51 210 126-258-39-337 226-278 338z m-320-198c16 0 29-13 29-29 0-15-11-27-25-29l-4 0-83 0c-16 0-29 13-29 29 0 15 11 27 25 29l4 0 83 0z m859 0c16 0 29-13 29-29 0-15-11-27-25-29l-4 0-83 0c-16 0-29 13-29 29 0 15 11 27 25 29l4 0 83 0z m-786 327l3-2 58-59c12-11 12-30 0-41-5-6-13-9-20-9-6 0-12 2-17 6l-4 3-59 58c-11 12-11 30 0 42 11 10 27 11 39 2z m669-2c10-11 11-27 2-39l-2-3-59-58c-6-6-13-9-21-9-7 0-15 3-20 9-11 10-12 26-3 38l3 3 58 59c12 11 30 11 42 0z m-354 146c15 0 27-11 29-25l0-4 0-83c0-16-13-29-29-29-15 0-27 11-29 25l0 4 0 83c0 16 13 29 29 29z" horiz-adv-x="1000" />

<glyph glyph-name="document-2" unicode="&#xe87d;" d="M608 766c2 0 3 0 5 0l0 0 0 0c1 0 2-1 4-1l0 0 0 0 1 0c1-1 1-1 2-1l0 0 2-1 0 0 2-1 2-1 1-1 1-1 1 0 213-173c6-5 10-12 11-19l0 0 0-5 0-528c0-53-42-97-96-100l0 0-7 0-458 0c-55 0-99 41-103 93l0 0 0 7 0 632c0 53 42 97 96 100l0 0 7 0z m-35-61l-281 0-5 0c-18-2-32-16-35-34l0 0 0-4 0-633 0-5c3-17 17-31 35-34l0 0 4 0 459 0 5 0c18 2 32 16 35 34l0 0 0 4 0 459-4 4-178 0-4 1c-14 2-25 12-27 26l0 0 0 4 0 174-4 4z m-25-542c20 0 35-15 35-34 0-20-15-35-35-35l-173 0c-19 0-34 15-34 35 0 19 15 34 34 34l173 0 0 0z m121 136c19 0 34-15 34-34 0-20-15-35-34-35l-294 0c-19 0-34 15-34 35 0 19 15 34 34 34l294 0 0 0z m0 142c19 0 34-15 34-35 0-19-15-34-34-34l-294 0c-19 0-34 15-34 34 0 20 15 35 34 35l294 0 0 0z m-23 224l-6-3 0-100 4-4 123 0 3 7-124 100z" horiz-adv-x="1000" />

<glyph glyph-name="document-filled-2" unicode="&#xe87e;" d="M608 766c2 0 3 0 5 0l0 0 0 0c1 0 2-1 4-1l0 0 0 0 1 0c1-1 1-1 2-1l0 0 2-1 0 0 2-1 2-1 1-1 1-1 1 0 213-173c6-5 10-12 11-19l0 0 0-5 0-528c0-53-42-97-96-100l0 0-7 0-458 0c-55 0-99 41-103 93l0 0 0 7 0 632c0 53 42 97 96 100l0 0 7 0z m-60-603l-173 0c-19 0-34-15-34-34 0-20 15-35 34-35l0 0 173 0c20 0 35 15 35 35 0 19-15 34-35 34l0 0z m121 136l-294 0c-19 0-34-15-34-34 0-20 15-35 34-35l0 0 294 0c19 0 34 15 34 35 0 19-15 34-34 34l0 0z m0 142l-294 0c-19 0-34-15-34-35 0-19 15-34 34-34l0 0 294 0c19 0 34 15 34 34 0 20-15 35-34 35l0 0z m-23 224l-6-3 0-100 4-4 123 0 3 7-124 100z" horiz-adv-x="1000" />

<glyph glyph-name="keyboard" unicode="&#xe87f;" d="M1000 494l0-524-1000 0 0 524 1000 0z m-59-58l-882 0 0-408 882 0 0 408z m-763-291l0-58-59 0 0 58 59 0z m117 0l0-58-59 0 0 58 59 0z m352 0l0-58-294 0 0 58 294 0z m234 0l0-58-176 0 0 58 176 0z m-703 116l0-58-59 0 0 58 59 0z m117 0l0-58-59 0 0 58 59 0z m117 0l0-58-59 0 0 58 59 0z m117 0l0-58-58 0 0 58 58 0z m118 0l0-58-59 0 0 58 59 0z m117 0l0-58-59 0 0 58 59 0z m117 0l0-58-58 0 0 58 58 0z m-703 117l0-58-59 0 0 58 59 0z m117 0l0-58-59 0 0 58 59 0z m117 0l0-58-59 0 0 58 59 0z m117 0l0-58-58 0 0 58 58 0z m118 0l0-58-59 0 0 58 59 0z m117 0l0-58-59 0 0 58 59 0z m117 0l0-58-58 0 0 58 58 0z m-374 472c9 0 17-3 23-9l0 0 152-150c13-13 12-33-1-45-13-12-33-11-46 1l0 0-128 127-129-127c-11-11-29-12-42-3l0 0-3 2c-7 6-11 14-11 23 0 8 4 16 10 22l0 0 152 150c6 6 14 9 23 9z" horiz-adv-x="1000" />

<glyph glyph-name="language" unicode="&#xe880;" d="M718 402c8 0 14-5 17-12l0 0 144-396c1-2 1-4 1-6 0-10-8-18-18-18l0 0-31 0c-8 0-15 5-17 12l0 0-35 96-166 0-35-96c-3-7-9-12-17-12l0 0-31 0c-3 0-5 0-7 1-9 3-14 14-10 23l0 0 144 396c2 7 9 12 17 12l0 0z m-302 288c10 0 18-8 18-18l0 0 0-54 226 0c10 0 18-8 18-18l0 0 0-36c0-10-8-18-18-18l0 0-84 0c-25-85-69-165-129-235l0 0-1-1 88-91-26-73-109 112-161-167 0 0-1 0c-7-7-18-7-25 0l0 0-24 25c-7 7-7 19 0 26l0 0 165 168c-44 50-79 105-104 164l0 0 70 0c21-43 48-83 80-121 50 58 87 124 111 193l0 0-372 0c-10 0-18 8-18 18l0 0 0 36c0 10 8 18 18 18l0 0 226 0 0 54c0 10 8 18 18 18l0 0z m280-384l-57-156 114 0-57 156z" horiz-adv-x="1000" />

<glyph glyph-name="logout" unicode="&#xe881;" d="M557 710c62 0 113-50 113-112l0-57c0-15-13-28-28-28-16 0-28 13-28 28l0 57c0 31-26 56-57 56l-284 0c-31 0-56-25-56-56l0-495c0-31 25-57 56-57l284 0c31 0 57 26 57 57l0 56c0 15 12 28 28 28 15 0 28-13 28-28l0-56c0-62-51-113-113-113l-284 0c-62 0-113 51-113 113l0 495c0 62 51 112 113 112l284 0z m234-196l4-3 152-153c14-14 15-36 3-52l-3-3-21-21 0 0-130-131c-14-14-35-14-49 0 0 0 0 0 0 0-13 13-13 35 0 49l97 97-382 0c-19 0-34 15-34 34 0 19 15 35 34 35l381 0-97 97c-12 12-13 31-3 45l3 3c12 13 32 14 45 3z" horiz-adv-x="1000" />

<glyph glyph-name="passcode" unicode="&#xe882;" d="M407 751c127 53 272-10 324-142 5-14-1-31-15-37-14-6-31 1-36 16-30 75-101 125-180 125-107 0-194-90-194-200l0 0 0-29 506 0c16 0 28-13 28-28l0 0 0-457c0-16-12-29-28-29l0 0-624 0c-16 0-28 13-28 29l0 0 0 457c0 15 12 28 28 28l0 0 63 0 0 29c0 105 62 199 156 238z m378-324l-570 0 0-400 570 0 0 400z m-313-90c44 16 91-8 106-52 16-45-7-94-50-110l0 0 0-62c0-16-13-29-28-29-15 0-28 13-28 29l0 0 0 62c-23 9-42 28-50 52-15 45 7 94 50 110z m28-53c-15 0-28-13-28-28 0-16 13-29 28-29 15 0 28 13 28 29 0 15-13 28-28 28z" horiz-adv-x="1000" />

<glyph glyph-name="touchid" unicode="&#xe883;" d="M488 362c12 3 23-3 28-13l1-3 1-4c5-19 11-49 16-95 9-79 13-177 9-294-1-12-10-21-21-23l-4 0c-12 0-23 11-22 25 4 114 0 209-9 286-3 27-6 50-10 69l-2 11c-1 6-2 10-3 11-3 13 4 26 16 30z m116-276c13 0 23-11 23-24l0-36 1-12c0-16 0-27 0-36 0-12-9-21-20-23l-4 0c-13 0-23 11-23 25l0 12c0 8 0 16 0 28l-1 39c0 1 0 2 0 3 0 13 9 23 20 24l4 0z m-109 364c43 0 83-27 100-68 22-52 32-137 34-241 0-12-8-23-20-25l-3 0-3 0c-12 2-20 12-21 24-2 97-11 178-30 223-10 23-32 39-57 39-9 0-17-2-24-5-29-12-43-45-35-77l1-5c11-34 19-188 19-336 0-14-11-24-23-24-13 0-24 10-24 24l0 45c-1 127-8 245-16 274l0 2c-19 58 7 119 60 141 13 6 27 9 42 9z m0 87c78 0 148-48 179-121 30-72 35-168 27-401 0-12-9-21-20-23l-4 0c-13 0-23 12-22 25l1 56c5 182-1 266-25 324-23 55-77 91-136 91-11 0-22-1-32-3-13-3-25 5-28 18-3 13 5 26 18 29 14 3 28 5 42 5z m-111-36c9 7 22 5 30-3l2-3 2-3c5-10 2-24-8-31-50-36-72-106-54-174l2-7c3-14 8-36 12-62 8-53 13-112 13-177 0-13-11-24-24-24-13 0-23 11-23 24 0 106-14 200-25 233-23 88 6 179 73 227z m135 132c128-4 213-94 247-195 24-71 29-175 25-339 0-13-11-23-24-23-13 0-23 11-23 25l1 30c3 140-3 232-23 291-28 85-136 216-328 137-103-42-158-158-127-267l3-14c3-12 5-21 7-30l1-13c3-28 4-68 4-168 0-13-11-24-24-24-11 0-21 9-23 21l0 3 0 54c0 66-1 99-5 119-1 8-2 16-5 27l-3 11c-37 133 29 273 154 326 33 14 70 31 143 29z m-301-47c9 10 24 9 33 0 9-9 9-25 0-34-84-84-105-208-61-360 4-13-3-27-16-31-2 0-4-1-6-1-10 0-20 7-23 18-53 183-18 317 73 408z m292 144c137 0 260-61 332-228 18-42 30-112 38-195 1-12-7-23-17-25l-5-1-1 0c-12 0-22 9-24 22-7 75-17 143-34 180-65 145-170 199-289 199-39 0-77-8-113-23-21-9-40-19-57-31-11-7-26-4-33 7-7 12-4 27 7 34 20 13 42 25 65 34 42 18 86 27 131 27z" horiz-adv-x="1000" />
</font>
</defs>
</svg>
